26F Sans-26F Sans Regular.ufo
<glyph name="exclam" format="2">
	<advance width="198"/>
	<unicode hex="0021"/>
	<outline>
		<contour>
			<point x="66" y="191" type="line"/>
			<point x="134" y="191" type="line"/>
			<point x="141" y="680" type="line"/>
			<point x="59" y="680" type="line"/>
		</contour>
		<contour>
			<point x="99" y="88" type="curve" smooth="yes"/>
			<point x="65" y="88"/>
			<point x="50" y="72"/>
			<point x="50" y="39" type="curve" smooth="yes"/>
			<point x="50" y="5"/>
			<point x="66" y="-10"/>
			<point x="99" y="-10" type="curve" smooth="yes"/>
			<point x="133" y="-10"/>
			<point x="148" y="6"/>
			<point x="148" y="39" type="curve" smooth="yes"/>
			<point x="148" y="73"/>
			<point x="132" y="88"/>
		</contour>
	</outline>
</glyph>
<glyph name="quotedbl" format="2">
	<advance width="382"/>
	<unicode hex="0022"/>
	<outline>
		<contour>
			<point x="55" y="680" type="line"/>
			<point x="60" y="479" type="line"/>
			<point x="132" y="479" type="line"/>
			<point x="137" y="680" type="line"/>
		</contour>
		<contour>
			<point x="245" y="680" type="line"/>
			<point x="250" y="479" type="line"/>
			<point x="322" y="479" type="line"/>
			<point x="327" y="680" type="line"/>
		</contour>
	</outline>
</glyph>
<glyph name="numbersign" format="2">
	<advance width="560"/>
	<unicode hex="0023"/>
	<outline>
		<contour>
			<point x="161" y="1" type="line"/>
			<point x="270" y="680" type="line"/>
			<point x="202" y="680" type="line"/>
			<point x="93" y="1" type="line"/>
		</contour>
		<contour>
			<point x="518" y="516" type="line"/>
			<point x="82" y="516" type="line"/>
			<point x="82" y="452" type="line"/>
			<point x="518" y="452" type="line"/>
		</contour>
		<contour>
			<point x="358" y="0" type="line"/>
			<point x="467" y="680" type="line"/>
			<point x="399" y="679" type="line"/>
			<point x="290" y="0" type="line"/>
		</contour>
		<contour>
			<point x="478" y="232" type="line"/>
			<point x="42" y="232" type="line"/>
			<point x="42" y="168" type="line"/>
			<point x="478" y="168" type="line"/>
		</contour>
	</outline>
</glyph>
<glyph name="dollar" format="2">
	<advance width="600"/>
	<unicode hex="0024"/>
	<outline>
		<contour>
			<point x="262" y="603" type="line"/>
			<point x="334" y="603" type="line"/>
			<point x="334" y="709" type="line"/>
			<point x="262" y="709" type="line"/>
		</contour>
		<contour>
			<point x="264" y="31" type="line"/>
			<point x="332" y="31" type="line"/>
			<point x="332" y="603" type="line"/>
			<point x="264" y="603" type="line"/>
		</contour>
		<contour>
			<point x="334" y="31" type="line"/>
			<point x="262" y="31" type="line"/>
			<point x="262" y="-93" type="line"/>
			<point x="334" y="-93" type="line"/>
		</contour>
		<contour>
			<point x="153" y="174" type="curve"/>
			<point x="67" y="174" type="line"/>
			<point x="67" y="79"/>
			<point x="150" y="-10"/>
			<point x="305" y="-10" type="curve" smooth="yes"/>
			<point x="422" y="-10"/>
			<point x="528" y="41"/>
			<point x="528" y="162" type="curve" smooth="yes"/>
			<point x="528" y="389"/>
			<point x="163" y="305"/>
			<point x="163" y="467" type="curve" smooth="yes"/>
			<point x="163" y="538"/>
			<point x="230" y="571"/>
			<point x="296" y="571" type="curve" smooth="yes"/>
			<point x="372" y="571"/>
			<point x="435" y="524"/>
			<point x="435" y="463" type="curve"/>
			<point x="519" y="463" type="line"/>
			<point x="519" y="569"/>
			<point x="430" y="638"/>
			<point x="297" y="638" type="curve" smooth="yes"/>
			<point x="178" y="638"/>
			<point x="81" y="584"/>
			<point x="81" y="465" type="curve" smooth="yes"/>
			<point x="81" y="235"/>
			<point x="446" y="324"/>
			<point x="446" y="160" type="curve" smooth="yes"/>
			<point x="446" y="84"/>
			<point x="368" y="59"/>
			<point x="301" y="59" type="curve" smooth="yes"/>
			<point x="198" y="59"/>
			<point x="153" y="116"/>
		</contour>
	</outline>
</glyph>
<glyph name="percent" format="2">
	<advance width="767"/>
	<unicode hex="0025"/>
	<outline>
		<contour>
			<point x="665" y="680" type="line"/>
			<point x="588" y="680" type="line"/>
			<point x="102" y="0" type="line"/>
			<point x="179" y="0" type="line"/>
		</contour>
		<contour>
			<point x="184" y="425" type="curve" smooth="yes"/>
			<point x="135" y="425"/>
			<point x="106" y="463"/>
			<point x="106" y="529" type="curve" smooth="yes"/>
			<point x="106" y="593"/>
			<point x="134" y="634"/>
			<point x="185" y="634" type="curve" smooth="yes"/>
			<point x="234" y="634"/>
			<point x="264" y="597"/>
			<point x="264" y="530" type="curve" smooth="yes"/>
			<point x="264" y="466"/>
			<point x="236" y="425"/>
		</contour>
		<contour>
			<point x="185" y="369" type="curve" smooth="yes"/>
			<point x="275" y="369"/>
			<point x="329" y="424"/>
			<point x="329" y="529" type="curve" smooth="yes"/>
			<point x="329" y="630"/>
			<point x="279" y="690"/>
			<point x="185" y="690" type="curve" smooth="yes"/>
			<point x="96" y="690"/>
			<point x="42" y="634"/>
			<point x="42" y="529" type="curve" smooth="yes"/>
			<point x="42" y="429"/>
			<point x="92" y="369"/>
		</contour>
		<contour>
			<point x="580" y="46" type="curve" smooth="yes"/>
			<point x="532" y="46"/>
			<point x="502" y="84"/>
			<point x="502" y="149" type="curve" smooth="yes"/>
			<point x="502" y="213"/>
			<point x="531" y="253"/>
			<point x="580" y="253" type="curve" smooth="yes"/>
			<point x="630" y="253"/>
			<point x="660" y="215"/>
			<point x="660" y="149" type="curve" smooth="yes"/>
			<point x="660" y="86"/>
			<point x="631" y="46"/>
		</contour>
		<contour>
			<point x="581" y="-11" type="curve" smooth="yes"/>
			<point x="671" y="-11"/>
			<point x="725" y="44"/>
			<point x="725" y="149" type="curve" smooth="yes"/>
			<point x="725" y="250"/>
			<point x="675" y="310"/>
			<point x="581" y="310" type="curve" smooth="yes"/>
			<point x="492" y="310"/>
			<point x="438" y="254"/>
			<point x="438" y="149" type="curve" smooth="yes"/>
			<point x="438" y="49"/>
			<point x="488" y="-11"/>
		</contour>
	</outline>
</glyph>
<glyph name="ampersand" format="2">
	<advance width="614"/>
	<unicode hex="0026"/>
	<outline>
		<contour>
			<point x="500" y="346" type="curve" smooth="yes"/>
			<point x="495" y="283"/>
			<point x="490" y="245"/>
			<point x="462" y="187" type="curve"/>
			<point x="294" y="365" type="line"/>
			<point x="395" y="431"/>
			<point x="434" y="476"/>
			<point x="434" y="539" type="curve" smooth="yes"/>
			<point x="434" y="625"/>
			<point x="359" y="690"/>
			<point x="269" y="690" type="curve" smooth="yes"/>
			<point x="178" y="690"/>
			<point x="108" y="625"/>
			<point x="108" y="542" type="curve" smooth="yes"/>
			<point x="108" y="506"/>
			<point x="122" y="450"/>
			<point x="187" y="378" type="curve"/>
			<point x="77" y="306"/>
			<point x="37" y="240"/>
			<point x="37" y="174" type="curve" smooth="yes"/>
			<point x="37" y="69"/>
			<point x="140" y="-10"/>
			<point x="265" y="-10" type="curve" smooth="yes"/>
			<point x="345" y="-10"/>
			<point x="416" y="22"/>
			<point x="470" y="78" type="curve"/>
			<point x="535" y="9" type="line"/>
			<point x="630" y="9" type="line"/>
			<point x="513" y="133" type="line"/>
			<point x="547" y="189"/>
			<point x="568" y="259"/>
			<point x="573" y="326" type="curve" smooth="yes"/>
			<point x="574" y="341"/>
			<point x="575" y="356"/>
			<point x="575" y="372" type="curve"/>
			<point x="501" y="372" type="line"/>
			<point x="501" y="358"/>
			<point x="501" y="358"/>
		</contour>
		<contour>
			<point x="114" y="174" type="curve" smooth="yes"/>
			<point x="114" y="222"/>
			<point x="139" y="268"/>
			<point x="234" y="327" type="curve"/>
			<point x="423" y="127" type="line"/>
			<point x="382" y="82"/>
			<point x="328" y="60"/>
			<point x="265" y="60" type="curve" smooth="yes"/>
			<point x="172" y="60"/>
			<point x="114" y="103"/>
		</contour>
		<contour>
			<point x="185" y="542" type="curve" smooth="yes"/>
			<point x="185" y="594"/>
			<point x="215" y="623"/>
			<point x="269" y="623" type="curve" smooth="yes"/>
			<point x="323" y="623"/>
			<point x="357" y="593"/>
			<point x="357" y="539" type="curve" smooth="yes"/>
			<point x="357" y="500"/>
			<point x="337" y="474"/>
			<point x="247" y="415" type="curve"/>
			<point x="195" y="473"/>
			<point x="185" y="513"/>
		</contour>
	</outline>
</glyph>
<glyph name="quotesingle" format="2">
	<advance width="192"/>
	<unicode hex="0027"/>
	<outline>
		<contour>
			<point x="55" y="680" type="line"/>
			<point x="60" y="479" type="line"/>
			<point x="132" y="479" type="line"/>
			<point x="137" y="680" type="line"/>
		</contour>
	</outline>
</glyph>
<glyph name="parenleft" format="2">
	<advance width="253"/>
	<unicode hex="0028"/>
	<outline>
		<contour>
			<point x="243" y="680" type="curve"/>
			<point x="174" y="680" type="line"/>
			<point x="4" y="374"/>
			<point x="4" y="106"/>
			<point x="174" y="-200" type="curve"/>
			<point x="243" y="-200" type="line"/>
			<point x="81" y="94"/>
			<point x="81" y="386"/>
		</contour>
	</outline>
</glyph>
<glyph name="parenright" format="2">
	<advance width="243"/>
	<unicode hex="0029"/>
	<outline>
		<contour>
			<point x="79" y="680" type="curve"/>
			<point x="10" y="680" type="line"/>
			<point x="172" y="386"/>
			<point x="172" y="94"/>
			<point x="10" y="-200" type="curve"/>
			<point x="79" y="-200" type="line"/>
			<point x="249" y="106"/>
			<point x="249" y="374"/>
		</contour>
	</outline>
</glyph>
<glyph name="asterisk" format="2">
	<advance width="363"/>
	<unicode hex="002A"/>
	<outline>
		<contour>
			<point x="153" y="680" type="line"/>
			<point x="159" y="560" type="line"/>
			<point x="159" y="482" type="line"/>
			<point x="153" y="363" type="line"/>
			<point x="210" y="363" type="line"/>
			<point x="204" y="482" type="line"/>
			<point x="204" y="560" type="line"/>
			<point x="210" y="680" type="line"/>
		</contour>
		<contour>
			<point x="153" y="680" type="line"/>
			<point x="159" y="560" type="line"/>
			<point x="159" y="482" type="line"/>
			<point x="153" y="363" type="line"/>
			<point x="210" y="363" type="line"/>
			<point x="204" y="482" type="line"/>
			<point x="204" y="560" type="line"/>
			<point x="210" y="680" type="line"/>
		</contour>
		<contour>
			<point x="153" y="680" type="line"/>
			<point x="159" y="560" type="line"/>
			<point x="159" y="482" type="line"/>
			<point x="153" y="363" type="line"/>
			<point x="210" y="363" type="line"/>
			<point x="204" y="482" type="line"/>
			<point x="204" y="560" type="line"/>
			<point x="210" y="680" type="line"/>
		</contour>
		<contour>
			<point x="153" y="680" type="line"/>
			<point x="159" y="560" type="line"/>
			<point x="159" y="482" type="line"/>
			<point x="153" y="363" type="line"/>
			<point x="210" y="363" type="line"/>
			<point x="204" y="482" type="line"/>
			<point x="204" y="560" type="line"/>
			<point x="210" y="680" type="line"/>
		</contour>
		<contour>
			<point x="304" y="625" type="line"/>
			<point x="204" y="560" type="line"/>
			<point x="137" y="522" type="line"/>
			<point x="30" y="466" type="line"/>
			<point x="59" y="417" type="line"/>
			<point x="159" y="482" type="line"/>
			<point x="226" y="521" type="line"/>
			<point x="333" y="577" type="line"/>
		</contour>
		<contour>
			<point x="304" y="625" type="line"/>
			<point x="204" y="560" type="line"/>
			<point x="137" y="522" type="line"/>
			<point x="30" y="466" type="line"/>
			<point x="59" y="417" type="line"/>
			<point x="159" y="482" type="line"/>
			<point x="226" y="521" type="line"/>
			<point x="333" y="577" type="line"/>
		</contour>
		<contour>
			<point x="304" y="625" type="line"/>
			<point x="204" y="560" type="line"/>
			<point x="137" y="522" type="line"/>
			<point x="30" y="466" type="line"/>
			<point x="59" y="417" type="line"/>
			<point x="159" y="482" type="line"/>
			<point x="226" y="521" type="line"/>
			<point x="333" y="577" type="line"/>
		</contour>
		<contour>
			<point x="304" y="625" type="line"/>
			<point x="204" y="560" type="line"/>
			<point x="137" y="522" type="line"/>
			<point x="30" y="466" type="line"/>
			<point x="59" y="417" type="line"/>
			<point x="159" y="482" type="line"/>
			<point x="226" y="521" type="line"/>
			<point x="333" y="577" type="line"/>
		</contour>
		<contour>
			<point x="333" y="466" type="line"/>
			<point x="226" y="522" type="line"/>
			<point x="159" y="560" type="line"/>
			<point x="59" y="625" type="line"/>
			<point x="30" y="577" type="line"/>
			<point x="137" y="521" type="line"/>
			<point x="204" y="482" type="line"/>
			<point x="304" y="417" type="line"/>
		</contour>
		<contour>
			<point x="333" y="466" type="line"/>
			<point x="226" y="522" type="line"/>
			<point x="159" y="560" type="line"/>
			<point x="59" y="625" type="line"/>
			<point x="30" y="577" type="line"/>
			<point x="137" y="521" type="line"/>
			<point x="204" y="482" type="line"/>
			<point x="304" y="417" type="line"/>
		</contour>
		<contour>
			<point x="333" y="466" type="line"/>
			<point x="226" y="522" type="line"/>
			<point x="159" y="560" type="line"/>
			<point x="59" y="625" type="line"/>
			<point x="30" y="577" type="line"/>
			<point x="137" y="521" type="line"/>
			<point x="204" y="482" type="line"/>
			<point x="304" y="417" type="line"/>
		</contour>
		<contour>
			<point x="333" y="466" type="line"/>
			<point x="226" y="522" type="line"/>
			<point x="159" y="560" type="line"/>
			<point x="59" y="625" type="line"/>
			<point x="30" y="577" type="line"/>
			<point x="137" y="521" type="line"/>
			<point x="204" y="482" type="line"/>
			<point x="304" y="417" type="line"/>
		</contour>
	</outline>
</glyph>
<glyph name="plus" format="2">
	<advance width="550"/>
	<unicode hex="002B"/>
	<outline>
		<contour>
			<point x="50" y="230" type="line"/>
			<point x="500" y="230" type="line"/>
			<point x="500" y="308" type="line"/>
			<point x="50" y="308" type="line"/>
		</contour>
		<contour>
			<point x="314" y="44" type="line"/>
			<point x="314" y="494" type="line"/>
			<point x="236" y="494" type="line"/>
			<point x="236" y="44" type="line"/>
		</contour>
	</outline>
</glyph>
<glyph name="comma" format="2">
	<advance width="183"/>
	<unicode hex="002C"/>
	<outline>
		<contour>
			<point x="62" y="98" type="line"/>
			<point x="20" y="-103" type="line"/>
			<point x="85" y="-103" type="line"/>
			<point x="153" y="98" type="line"/>
		</contour>
	</outline>
</glyph>
<glyph name="hyphen" format="2">
	<advance width="436"/>
	<unicode hex="002D"/>
	<outline>
		<contour>
			<point x="50" y="228" type="line"/>
			<point x="386" y="228" type="line"/>
			<point x="386" y="310" type="line"/>
			<point x="50" y="310" type="line"/>
		</contour>
	</outline>
</glyph>
<glyph name="period" format="2">
	<advance width="176"/>
	<unicode hex="002E"/>
	<outline>
		<contour>
			<point x="88" y="-10" type="curve" smooth="yes"/>
			<point x="124" y="-10"/>
			<point x="141" y="6"/>
			<point x="141" y="43" type="curve" smooth="yes"/>
			<point x="141" y="79"/>
			<point x="125" y="96"/>
			<point x="88" y="96" type="curve" smooth="yes"/>
			<point x="52" y="96"/>
			<point x="35" y="80"/>
			<point x="35" y="43" type="curve" smooth="yes"/>
			<point x="35" y="7"/>
			<point x="51" y="-10"/>
		</contour>
	</outline>
</glyph>
<glyph name="slash" format="2">
	<advance width="322"/>
	<unicode hex="002F"/>
	<outline>
		<contour>
			<point x="317" y="680" type="line"/>
			<point x="240" y="680" type="line"/>
			<point x="5" y="-200" type="line"/>
			<point x="82" y="-200" type="line"/>
		</contour>
	</outline>
</glyph>
<glyph name="zero" format="2">
	<advance width="560"/>
	<unicode hex="0030"/>
	<outline>
		<contour>
			<point x="279" y="63" type="curve" smooth="yes"/>
			<point x="174" y="63"/>
			<point x="128" y="145"/>
			<point x="128" y="340" type="curve" smooth="yes"/>
			<point x="128" y="535"/>
			<point x="174" y="617"/>
			<point x="279" y="617" type="curve" smooth="yes"/>
			<point x="386" y="617"/>
			<point x="432" y="535"/>
			<point x="432" y="340" type="curve" smooth="yes"/>
			<point x="432" y="145"/>
			<point x="386" y="63"/>
		</contour>
		<contour>
			<point x="280" y="-10" type="curve" smooth="yes"/>
			<point x="435" y="-10"/>
			<point x="522" y="115"/>
			<point x="522" y="340" type="curve" smooth="yes"/>
			<point x="522" y="565"/>
			<point x="435" y="690"/>
			<point x="280" y="690" type="curve" smooth="yes"/>
			<point x="125" y="690"/>
			<point x="38" y="565"/>
			<point x="38" y="340" type="curve" smooth="yes"/>
			<point x="38" y="115"/>
			<point x="125" y="-10"/>
		</contour>
	</outline>
</glyph>
<glyph name="one" format="2">
	<advance width="561"/>
	<unicode hex="0031"/>
	<outline>
		<contour>
			<point x="258" y="592" type="line"/>
			<point x="258" y="680" type="line"/>
			<point x="95" y="562" type="line"/>
			<point x="95" y="474" type="line"/>
		</contour>
		<contour>
			<point x="258" y="680" type="line"/>
			<point x="258" y="0" type="line"/>
			<point x="343" y="0" type="line"/>
			<point x="343" y="680" type="line"/>
		</contour>
	</outline>
</glyph>
<glyph name="two" format="2">
	<advance width="560"/>
	<unicode hex="0032"/>
	<outline>
		<contour>
			<point x="317" y="315" type="curve" smooth="yes"/>
			<point x="64" y="72" type="line"/>
			<point x="64" y="0" type="line"/>
			<point x="504" y="0" type="line"/>
			<point x="504" y="72" type="line"/>
			<point x="177" y="72" type="line"/>
			<point x="358" y="248" type="line" smooth="yes"/>
			<point x="426" y="314"/>
			<point x="496" y="382"/>
			<point x="496" y="479" type="curve" smooth="yes"/>
			<point x="496" y="579"/>
			<point x="423" y="690"/>
			<point x="276" y="690" type="curve" smooth="yes"/>
			<point x="145" y="690"/>
			<point x="48" y="598"/>
			<point x="51" y="481" type="curve"/>
			<point x="136" y="481" type="line"/>
			<point x="136" y="549"/>
			<point x="181" y="613"/>
			<point x="274" y="613" type="curve" smooth="yes"/>
			<point x="382" y="613"/>
			<point x="406" y="532"/>
			<point x="406" y="477" type="curve" smooth="yes"/>
			<point x="406" y="407"/>
			<point x="365" y="361"/>
		</contour>
	</outline>
</glyph>
<glyph name="three" format="2">
	<advance width="560"/>
	<unicode hex="0033"/>
	<outline>
		<contour>
			<point x="280" y="392" type="curve" smooth="yes"/>
			<point x="228" y="392" type="line"/>
			<point x="228" y="320" type="line"/>
			<point x="280" y="320" type="line" smooth="yes"/>
			<point x="378" y="320"/>
			<point x="429" y="261"/>
			<point x="429" y="184" type="curve" smooth="yes"/>
			<point x="429" y="105"/>
			<point x="375" y="63"/>
			<point x="282" y="63" type="curve" smooth="yes"/>
			<point x="187" y="63"/>
			<point x="140" y="105"/>
			<point x="140" y="186" type="curve"/>
			<point x="50" y="186" type="line"/>
			<point x="50" y="53"/>
			<point x="155" y="-10"/>
			<point x="282" y="-10" type="curve" smooth="yes"/>
			<point x="405" y="-10"/>
			<point x="519" y="52"/>
			<point x="519" y="179" type="curve" smooth="yes"/>
			<point x="519" y="270"/>
			<point x="463" y="334"/>
			<point x="375" y="361" type="curve"/>
			<point x="448" y="385"/>
			<point x="494" y="436"/>
			<point x="494" y="513" type="curve" smooth="yes"/>
			<point x="494" y="617"/>
			<point x="406" y="690"/>
			<point x="281" y="690" type="curve" smooth="yes"/>
			<point x="150" y="690"/>
			<point x="62" y="618"/>
			<point x="62" y="506" type="curve"/>
			<point x="152" y="506" type="line"/>
			<point x="152" y="580"/>
			<point x="200" y="617"/>
			<point x="281" y="617" type="curve" smooth="yes"/>
			<point x="353" y="617"/>
			<point x="404" y="582"/>
			<point x="404" y="503" type="curve" smooth="yes"/>
			<point x="404" y="392"/>
			<point x="302" y="392"/>
		</contour>
	</outline>
</glyph>
<glyph name="four" format="2">
	<advance width="561"/>
	<unicode hex="0034"/>
	<outline>
		<contour>
			<point x="437" y="-3" type="line"/>
			<point x="437" y="680" type="line"/>
			<point x="331" y="680" type="line"/>
			<point x="27" y="224" type="line"/>
			<point x="27" y="148" type="line"/>
			<point x="524" y="148" type="line"/>
			<point x="524" y="220" type="line"/>
			<point x="60" y="220" type="line"/>
			<point x="88" y="177" type="line"/>
			<point x="396" y="650" type="line"/>
			<point x="351" y="650" type="line"/>
			<point x="351" y="-3" type="line"/>
		</contour>
	</outline>
</glyph>
<glyph name="five" format="2">
	<advance width="560"/>
	<unicode hex="0035"/>
	<outline>
		<contour>
			<point x="144" y="313" type="line"/>
			<point x="157" y="340"/>
			<point x="183" y="377"/>
			<point x="263" y="377" type="curve" smooth="yes"/>
			<point x="358" y="377"/>
			<point x="414" y="325"/>
			<point x="414" y="221" type="curve" smooth="yes"/>
			<point x="414" y="115"/>
			<point x="355" y="63"/>
			<point x="266" y="63" type="curve" smooth="yes"/>
			<point x="180" y="63"/>
			<point x="134" y="121"/>
			<point x="134" y="175" type="curve"/>
			<point x="49" y="175" type="line"/>
			<point x="49" y="49"/>
			<point x="170" y="-10"/>
			<point x="269" y="-10" type="curve" smooth="yes"/>
			<point x="401" y="-10"/>
			<point x="504" y="76"/>
			<point x="504" y="218" type="curve" smooth="yes"/>
			<point x="504" y="351"/>
			<point x="414" y="450"/>
			<point x="274" y="450" type="curve" smooth="yes"/>
			<point x="210" y="450"/>
			<point x="175" y="428"/>
			<point x="151" y="403" type="curve"/>
			<point x="170" y="608" type="line"/>
			<point x="478" y="608" type="line"/>
			<point x="478" y="680" type="line"/>
			<point x="102" y="680" type="line"/>
			<point x="69" y="314" type="line"/>
			<point x="69" y="313" type="line"/>
		</contour>
	</outline>
</glyph>
<glyph name="six" format="2">
	<advance width="560"/>
	<unicode hex="0036"/>
	<outline>
		<contour>
			<point x="284" y="368" type="curve" smooth="yes"/>
			<point x="375" y="368"/>
			<point x="429" y="318"/>
			<point x="429" y="221" type="curve" smooth="yes"/>
			<point x="429" y="125"/>
			<point x="375" y="62"/>
			<point x="284" y="62" type="curve" smooth="yes"/>
			<point x="194" y="62"/>
			<point x="143" y="123"/>
			<point x="143" y="221" type="curve" smooth="yes"/>
			<point x="143" y="320"/>
			<point x="194" y="368"/>
		</contour>
		<contour>
			<point x="516" y="217" type="curve" smooth="yes"/>
			<point x="516" y="345"/>
			<point x="436" y="441"/>
			<point x="288" y="441" type="curve" smooth="yes"/>
			<point x="202" y="441"/>
			<point x="160" y="408"/>
			<point x="125" y="353" type="curve"/>
			<point x="128" y="535"/>
			<point x="180" y="620"/>
			<point x="287" y="620" type="curve" smooth="yes"/>
			<point x="380" y="620"/>
			<point x="423" y="556"/>
			<point x="423" y="511" type="curve"/>
			<point x="505" y="511" type="line"/>
			<point x="505" y="580"/>
			<point x="449" y="693"/>
			<point x="289" y="693" type="curve" smooth="yes"/>
			<point x="111" y="693"/>
			<point x="41" y="551"/>
			<point x="41" y="339" type="curve" smooth="yes"/>
			<point x="41" y="94"/>
			<point x="135" y="-11"/>
			<point x="287" y="-11" type="curve" smooth="yes"/>
			<point x="433" y="-11"/>
			<point x="516" y="87"/>
		</contour>
	</outline>
</glyph>
<glyph name="seven" format="2">
	<advance width="560"/>
	<unicode hex="0037"/>
	<outline>
		<contour>
			<point x="213" y="0" type="line"/>
			<point x="500" y="598" type="line"/>
			<point x="500" y="680" type="line"/>
			<point x="53" y="680" type="line"/>
			<point x="53" y="608" type="line"/>
			<point x="478" y="608" type="line"/>
			<point x="437" y="646" type="line"/>
			<point x="126" y="0" type="line"/>
		</contour>
	</outline>
</glyph>
<glyph name="eight" format="2">
	<advance width="560"/>
	<unicode hex="0038"/>
	<outline>
		<contour>
			<point x="279" y="373" type="curve" smooth="yes"/>
			<point x="132" y="373"/>
			<point x="35" y="301"/>
			<point x="35" y="182" type="curve" smooth="yes"/>
			<point x="35" y="51"/>
			<point x="151" y="-10"/>
			<point x="280" y="-10" type="curve" smooth="yes"/>
			<point x="409" y="-10"/>
			<point x="525" y="51"/>
			<point x="525" y="181" type="curve" smooth="yes"/>
			<point x="525" y="301"/>
			<point x="427" y="373"/>
		</contour>
		<contour>
			<point x="279" y="319" type="curve" smooth="yes"/>
			<point x="381" y="319"/>
			<point x="435" y="262"/>
			<point x="435" y="184" type="curve" smooth="yes"/>
			<point x="435" y="103"/>
			<point x="376" y="63"/>
			<point x="280" y="63" type="curve" smooth="yes"/>
			<point x="183" y="63"/>
			<point x="125" y="103"/>
			<point x="125" y="185" type="curve" smooth="yes"/>
			<point x="125" y="263"/>
			<point x="178" y="319"/>
		</contour>
		<contour>
			<point x="279" y="348" type="curve" smooth="yes"/>
			<point x="411" y="348"/>
			<point x="499" y="396"/>
			<point x="499" y="507" type="curve" smooth="yes"/>
			<point x="499" y="619"/>
			<point x="410" y="690"/>
			<point x="280" y="690" type="curve" smooth="yes"/>
			<point x="149" y="690"/>
			<point x="61" y="618"/>
			<point x="61" y="507" type="curve" smooth="yes"/>
			<point x="61" y="396"/>
			<point x="148" y="348"/>
		</contour>
		<contour>
			<point x="279" y="391" type="curve" smooth="yes"/>
			<point x="195" y="391"/>
			<point x="151" y="433"/>
			<point x="151" y="505" type="curve" smooth="yes"/>
			<point x="151" y="580"/>
			<point x="199" y="617"/>
			<point x="280" y="617" type="curve" smooth="yes"/>
			<point x="361" y="617"/>
			<point x="409" y="580"/>
			<point x="409" y="506" type="curve" smooth="yes"/>
			<point x="409" y="434"/>
			<point x="364" y="391"/>
		</contour>
	</outline>
</glyph>
<glyph name="nine" format="2">
	<advance width="560"/>
	<unicode hex="0039"/>
	<outline>
		<contour>
			<point x="276" y="312" type="curve" smooth="yes"/>
			<point x="185" y="312"/>
			<point x="131" y="362"/>
			<point x="131" y="459" type="curve" smooth="yes"/>
			<point x="131" y="555"/>
			<point x="185" y="618"/>
			<point x="276" y="618" type="curve" smooth="yes"/>
			<point x="366" y="618"/>
			<point x="417" y="557"/>
			<point x="417" y="459" type="curve" smooth="yes"/>
			<point x="417" y="360"/>
			<point x="366" y="312"/>
		</contour>
		<contour>
			<point x="44" y="459" type="curve" smooth="yes"/>
			<point x="44" y="335"/>
			<point x="141" y="239"/>
			<point x="281" y="239" type="curve" smooth="yes"/>
			<point x="355" y="239"/>
			<point x="398" y="266"/>
			<point x="435" y="319" type="curve"/>
			<point x="432" y="137"/>
			<point x="380" y="60"/>
			<point x="275" y="60" type="curve" smooth="yes"/>
			<point x="179" y="60"/>
			<point x="137" y="124"/>
			<point x="137" y="169" type="curve"/>
			<point x="55" y="169" type="line"/>
			<point x="55" y="100"/>
			<point x="111" y="-13"/>
			<point x="271" y="-13" type="curve" smooth="yes"/>
			<point x="449" y="-13"/>
			<point x="519" y="130"/>
			<point x="519" y="339" type="curve" smooth="yes"/>
			<point x="519" y="586"/>
			<point x="422" y="691"/>
			<point x="282" y="691" type="curve" smooth="yes"/>
			<point x="141" y="691"/>
			<point x="44" y="583"/>
		</contour>
	</outline>
</glyph>
<glyph name="less" format="2">
	<advance width="528"/>
	<unicode hex="003C"/>
	<outline>
		<contour>
			<point x="478" y="73" type="line"/>
			<point x="134" y="250" type="line"/>
			<point x="478" y="427" type="line"/>
			<point x="478" y="500" type="line"/>
			<point x="50" y="288" type="line"/>
			<point x="50" y="212" type="line"/>
			<point x="478" y="0" type="line"/>
		</contour>
	</outline>
</glyph>
<glyph name="equal" format="2">
	<advance width="583"/>
	<unicode hex="003D"/>
	<outline>
		<contour>
			<point x="50" y="123" type="line"/>
			<point x="533" y="123" type="line"/>
			<point x="533" y="201" type="line"/>
			<point x="50" y="201" type="line"/>
		</contour>
		<contour>
			<point x="50" y="323" type="line"/>
			<point x="533" y="323" type="line"/>
			<point x="533" y="401" type="line"/>
			<point x="50" y="401" type="line"/>
		</contour>
	</outline>
</glyph>
<glyph name="greater" format="2">
	<advance width="528"/>
	<unicode hex="003E"/>
	<outline>
		<contour>
			<point x="50" y="73" type="line"/>
			<point x="50" y="0" type="line"/>
			<point x="478" y="212" type="line"/>
			<point x="478" y="288" type="line"/>
			<point x="50" y="500" type="line"/>
			<point x="50" y="427" type="line"/>
			<point x="394" y="250" type="line"/>
		</contour>
	</outline>
</glyph>
<glyph name="question" format="2">
	<advance width="492"/>
	<unicode hex="003F"/>
	<outline>
		<contour>
			<point x="217" y="88" type="curve" smooth="yes"/>
			<point x="183" y="88"/>
			<point x="168" y="72"/>
			<point x="168" y="39" type="curve" smooth="yes"/>
			<point x="168" y="5"/>
			<point x="184" y="-10"/>
			<point x="217" y="-10" type="curve" smooth="yes"/>
			<point x="251" y="-10"/>
			<point x="266" y="6"/>
			<point x="266" y="39" type="curve" smooth="yes"/>
			<point x="266" y="73"/>
			<point x="250" y="88"/>
		</contour>
		<contour>
			<point x="234" y="690" type="curve" smooth="yes"/>
			<point x="141" y="690"/>
			<point x="20" y="643"/>
			<point x="20" y="506" type="curve"/>
			<point x="102" y="506" type="line"/>
			<point x="102" y="586"/>
			<point x="169" y="617"/>
			<point x="230" y="617" type="curve" smooth="yes"/>
			<point x="308" y="617"/>
			<point x="358" y="566"/>
			<point x="358" y="506" type="curve" smooth="yes"/>
			<point x="358" y="393"/>
			<point x="177" y="376"/>
			<point x="177" y="239" type="curve" smooth="yes"/>
			<point x="177" y="185" type="line"/>
			<point x="258" y="185" type="line"/>
			<point x="258" y="226" type="line" smooth="yes"/>
			<point x="258" y="339"/>
			<point x="445" y="363"/>
			<point x="445" y="509" type="curve" smooth="yes"/>
			<point x="445" y="611"/>
			<point x="355" y="690"/>
		</contour>
	</outline>
</glyph>
<glyph name="at" format="2">
	<advance width="877"/>
	<unicode hex="0040"/>
	<outline>
		<contour>
			<point x="546" y="126" type="curve"/>
			<point x="546" y="125" type="line"/>
			<point x="546" y="81"/>
			<point x="596" y="38"/>
			<point x="661" y="38" type="curve" smooth="yes"/>
			<point x="767" y="38"/>
			<point x="840" y="175"/>
			<point x="840" y="326" type="curve" smooth="yes"/>
			<point x="840" y="544"/>
			<point x="683" y="690"/>
			<point x="443" y="690" type="curve" smooth="yes"/>
			<point x="201" y="690"/>
			<point x="37" y="542"/>
			<point x="37" y="280" type="curve" smooth="yes"/>
			<point x="37" y="20"/>
			<point x="198" y="-145"/>
			<point x="419" y="-145" type="curve" smooth="yes"/>
			<point x="670" y="-145" type="line"/>
			<point x="670" y="-80" type="line"/>
			<point x="441" y="-80" type="line" smooth="yes"/>
			<point x="257" y="-80"/>
			<point x="112" y="41"/>
			<point x="112" y="273" type="curve" smooth="yes"/>
			<point x="112" y="505"/>
			<point x="254" y="626"/>
			<point x="441" y="626" type="curve" smooth="yes"/>
			<point x="630" y="626"/>
			<point x="767" y="505"/>
			<point x="767" y="326" type="curve" smooth="yes"/>
			<point x="767" y="216"/>
			<point x="728" y="99"/>
			<point x="663" y="99" type="curve" smooth="yes"/>
			<point x="628" y="99"/>
			<point x="613" y="114"/>
			<point x="613" y="150" type="curve" smooth="yes"/>
			<point x="613" y="479" type="line"/>
			<point x="546" y="479" type="line"/>
			<point x="546" y="420" type="line"/>
			<point x="516" y="456"/>
			<point x="472" y="484"/>
			<point x="411" y="484" type="curve" smooth="yes"/>
			<point x="313" y="484"/>
			<point x="237" y="411"/>
			<point x="237" y="273" type="curve" smooth="yes"/>
			<point x="237" y="141"/>
			<point x="307" y="62"/>
			<point x="410" y="62" type="curve" smooth="yes"/>
			<point x="471" y="62"/>
			<point x="515" y="90"/>
		</contour>
		<contour>
			<point x="307" y="273" type="curve" smooth="yes"/>
			<point x="307" y="367"/>
			<point x="350" y="427"/>
			<point x="425" y="427" type="curve" smooth="yes"/>
			<point x="497" y="427"/>
			<point x="546" y="372"/>
			<point x="546" y="273" type="curve" smooth="yes"/>
			<point x="546" y="179"/>
			<point x="500" y="119"/>
			<point x="425" y="119" type="curve" smooth="yes"/>
			<point x="352" y="119"/>
			<point x="307" y="174"/>
		</contour>
	</outline>
</glyph>
<glyph name="A" format="2">
	<advance width="653"/>
	<unicode hex="0041"/>
	<outline>
		<contour>
			<point x="530" y="0" type="line"/>
			<point x="623" y="0" type="line"/>
			<point x="379" y="680" type="line"/>
			<point x="297" y="680" type="line"/>
		</contour>
		<contour>
			<point x="30" y="0" type="line"/>
			<point x="123" y="0" type="line"/>
			<point x="356" y="680" type="line"/>
			<point x="274" y="680" type="line"/>
		</contour>
		<contour>
			<point x="164" y="187" type="line"/>
			<point x="492" y="187" type="line"/>
			<point x="492" y="259" type="line"/>
			<point x="164" y="259" type="line"/>
		</contour>
	</outline>
</glyph>
<glyph name="B" format="2">
	<advance width="576"/>
	<unicode hex="0042"/>
	<anchor x="273" y="0" name="bottom"/>
	<anchor x="288" y="340" name="center"/>
	<anchor x="273" y="680" name="top"/>
	<outline>
		<contour>
			<point x="55" y="0" type="line"/>
			<point x="322" y="0" type="line" smooth="yes"/>
			<point x="470" y="0"/>
			<point x="552" y="70"/>
			<point x="552" y="185" type="curve" smooth="yes"/>
			<point x="552" y="303"/>
			<point x="465" y="350"/>
			<point x="404" y="355" type="curve"/>
			<point x="449" y="359"/>
			<point x="516" y="405"/>
			<point x="516" y="509" type="curve" smooth="yes"/>
			<point x="516" y="630"/>
			<point x="426" y="680"/>
			<point x="296" y="680" type="curve" smooth="yes"/>
			<point x="55" y="680" type="line"/>
		</contour>
		<contour>
			<point x="322" y="75" type="curve" smooth="yes"/>
			<point x="140" y="75" type="line"/>
			<point x="140" y="313" type="line"/>
			<point x="322" y="313" type="line" smooth="yes"/>
			<point x="394" y="313"/>
			<point x="462" y="269"/>
			<point x="462" y="191" type="curve" smooth="yes"/>
			<point x="462" y="120"/>
			<point x="406" y="75"/>
		</contour>
		<contour>
			<point x="296" y="385" type="curve" smooth="yes"/>
			<point x="140" y="385" type="line"/>
			<point x="140" y="605" type="line"/>
			<point x="296" y="605" type="line" smooth="yes"/>
			<point x="368" y="605"/>
			<point x="425" y="570"/>
			<point x="425" y="501" type="curve" smooth="yes"/>
			<point x="425" y="431"/>
			<point x="366" y="385"/>
		</contour>
	</outline>
</glyph>
<glyph name="C" format="2">
	<advance width="671"/>
	<unicode hex="0043"/>
	<outline>
		<contour>
			<point x="641" y="207" type="curve"/>
			<point x="549" y="207" type="line"/>
			<point x="535" y="117"/>
			<point x="458" y="58"/>
			<point x="351" y="58" type="curve" smooth="yes"/>
			<point x="210" y="58"/>
			<point x="137" y="160"/>
			<point x="137" y="340" type="curve" smooth="yes"/>
			<point x="137" y="519"/>
			<point x="209" y="622"/>
			<point x="351" y="622" type="curve" smooth="yes"/>
			<point x="458" y="622"/>
			<point x="534" y="564"/>
			<point x="552" y="472" type="curve"/>
			<point x="641" y="472" type="line"/>
			<point x="622" y="609"/>
			<point x="511" y="695"/>
			<point x="351" y="695" type="curve" smooth="yes"/>
			<point x="155" y="695"/>
			<point x="47" y="565"/>
			<point x="47" y="340" type="curve" smooth="yes"/>
			<point x="47" y="115"/>
			<point x="155" y="-15"/>
			<point x="351" y="-15" type="curve" smooth="yes"/>
			<point x="511" y="-15"/>
			<point x="623" y="71"/>
		</contour>
	</outline>
</glyph>
<glyph name="D" format="2">
	<advance width="655"/>
	<unicode hex="0044"/>
	<outline>
		<contour>
			<point x="50" y="680" type="line"/>
			<point x="50" y="0" type="line"/>
			<point x="135" y="0" type="line"/>
			<point x="135" y="680" type="line"/>
		</contour>
		<contour>
			<point x="124" y="680" type="line"/>
			<point x="124" y="608" type="line"/>
			<point x="285" y="608" type="line"/>
			<point x="285" y="680" type="line"/>
		</contour>
		<contour>
			<point x="124" y="72" type="line"/>
			<point x="124" y="0" type="line"/>
			<point x="285" y="0" type="line"/>
			<point x="285" y="72" type="line"/>
		</contour>
		<contour>
			<point x="283" y="680" type="curve"/>
			<point x="283" y="607" type="line"/>
			<point x="429" y="607"/>
			<point x="528" y="520"/>
			<point x="528" y="340" type="curve" smooth="yes"/>
			<point x="528" y="160"/>
			<point x="429" y="73"/>
			<point x="283" y="73" type="curve"/>
			<point x="283" y="0" type="line"/>
			<point x="483" y="0"/>
			<point x="618" y="115"/>
			<point x="618" y="340" type="curve" smooth="yes"/>
			<point x="618" y="565"/>
			<point x="483" y="680"/>
		</contour>
	</outline>
</glyph>
<glyph name="E" format="2">
	<advance width="546"/>
	<unicode hex="0045"/>
	<anchor x="279" y="0" name="bottom"/>
	<anchor x="488" y="32" name="ogonek"/>
	<anchor x="284" y="680" name="top"/>
	<anchor x="20" y="680" name="topleft"/>
	<outline>
		<contour>
			<point x="55" y="680" type="line"/>
			<point x="55" y="0" type="line"/>
			<point x="140" y="0" type="line"/>
			<point x="140" y="680" type="line"/>
		</contour>
		<contour>
			<point x="96" y="0" type="line"/>
			<point x="508" y="0" type="line"/>
			<point x="508" y="72" type="line"/>
			<point x="96" y="72" type="line"/>
		</contour>
		<contour>
			<point x="96" y="608" type="line"/>
			<point x="508" y="608" type="line"/>
			<point x="508" y="680" type="line"/>
			<point x="96" y="680" type="line"/>
		</contour>
		<contour>
			<point x="96" y="304" type="line"/>
			<point x="448" y="304" type="line"/>
			<point x="448" y="376" type="line"/>
			<point x="96" y="376" type="line"/>
		</contour>
	</outline>
</glyph>
<glyph name="F" format="2">
	<advance width="533"/>
	<unicode hex="0046"/>
	<outline>
		<contour>
			<point x="91" y="294" type="line"/>
			<point x="443" y="294" type="line"/>
			<point x="443" y="366" type="line"/>
			<point x="91" y="366" type="line"/>
		</contour>
		<contour>
			<point x="50" y="680" type="line"/>
			<point x="50" y="0" type="line"/>
			<point x="135" y="0" type="line"/>
			<point x="135" y="680" type="line"/>
		</contour>
		<contour>
			<point x="91" y="608" type="line"/>
			<point x="503" y="608" type="line"/>
			<point x="503" y="680" type="line"/>
			<point x="91" y="680" type="line"/>
		</contour>
	</outline>
</glyph>
<glyph name="G" format="2">
	<advance width="687"/>
	<unicode hex="0047"/>
	<outline>
		<contour>
			<point x="355" y="284" type="line"/>
			<point x="637" y="284" type="line"/>
			<point x="637" y="356" type="line"/>
			<point x="355" y="356" type="line"/>
		</contour>
		<contour>
			<point x="637" y="284" type="curve"/>
			<point x="552" y="284" type="line"/>
			<point x="551" y="151"/>
			<point x="482" y="58"/>
			<point x="348" y="58" type="curve" smooth="yes"/>
			<point x="204" y="58"/>
			<point x="132" y="160"/>
			<point x="132" y="340" type="curve" smooth="yes"/>
			<point x="132" y="520"/>
			<point x="204" y="622"/>
			<point x="348" y="622" type="curve" smooth="yes"/>
			<point x="443" y="622"/>
			<point x="514" y="580"/>
			<point x="538" y="495" type="curve"/>
			<point x="632" y="495" type="line"/>
			<point x="600" y="626"/>
			<point x="495" y="695"/>
			<point x="349" y="695" type="curve" smooth="yes"/>
			<point x="149" y="695"/>
			<point x="42" y="565"/>
			<point x="42" y="340" type="curve" smooth="yes"/>
			<point x="42" y="115"/>
			<point x="149" y="-15"/>
			<point x="346" y="-15" type="curve" smooth="yes"/>
			<point x="537" y="-15"/>
			<point x="633" y="106"/>
		</contour>
	</outline>
</glyph>
<glyph name="H" format="2">
	<advance width="671"/>
	<unicode hex="0048"/>
	<outline>
		<contour>
			<point x="55" y="680" type="line"/>
			<point x="55" y="0" type="line"/>
			<point x="140" y="0" type="line"/>
			<point x="140" y="680" type="line"/>
		</contour>
		<contour>
			<point x="531" y="680" type="line"/>
			<point x="531" y="0" type="line"/>
			<point x="616" y="0" type="line"/>
			<point x="616" y="680" type="line"/>
		</contour>
		<contour>
			<point x="96" y="304" type="line"/>
			<point x="583" y="304" type="line"/>
			<point x="583" y="376" type="line"/>
			<point x="96" y="376" type="line"/>
		</contour>
	</outline>
</glyph>
<glyph name="I" format="2">
	<advance width="185"/>
	<unicode hex="0049"/>
	<outline>
		<contour>
			<point x="50" y="680" type="line"/>
			<point x="50" y="0" type="line"/>
			<point x="135" y="0" type="line"/>
			<point x="135" y="680" type="line"/>
		</contour>
	</outline>
</glyph>
<glyph name="J" format="2">
	<advance width="500"/>
	<unicode hex="004A"/>
	<outline>
		<contour>
			<point x="235" y="-15" type="curve" smooth="yes"/>
			<point x="359" y="-15"/>
			<point x="450" y="59"/>
			<point x="450" y="229" type="curve"/>
			<point x="450" y="680" type="line"/>
			<point x="365" y="680" type="line"/>
			<point x="365" y="229" type="line"/>
			<point x="368" y="110"/>
			<point x="310" y="61"/>
			<point x="235" y="61" type="curve" smooth="yes"/>
			<point x="166" y="61"/>
			<point x="109" y="102"/>
			<point x="109" y="179" type="curve"/>
			<point x="26" y="179" type="line"/>
			<point x="26" y="54"/>
			<point x="116" y="-15"/>
		</contour>
	</outline>
</glyph>
<glyph name="K" format="2">
	<advance width="579"/>
	<unicode hex="004B"/>
	<anchor x="273" y="0" name="bottom"/>
	<anchor x="290" y="680" name="top"/>
	<outline>
		<contour>
			<point x="50" y="680" type="line"/>
			<point x="50" y="0" type="line"/>
			<point x="135" y="0" type="line"/>
			<point x="135" y="680" type="line"/>
		</contour>
		<contour>
			<point x="451" y="680" type="line"/>
			<point x="105" y="291" type="line"/>
			<point x="105" y="184" type="line"/>
			<point x="553" y="680" type="line"/>
		</contour>
		<contour>
			<point x="190" y="364" type="line"/>
			<point x="470" y="0" type="line"/>
			<point x="568" y="0" type="line"/>
			<point x="247" y="431" type="line"/>
		</contour>
		<contour>
			<point x="50" y="680" type="line"/>
			<point x="50" y="0" type="line"/>
			<point x="132" y="0" type="line"/>
			<point x="132" y="680" type="line"/>
		</contour>
	</outline>
</glyph>
<glyph name="L" format="2">
	<advance width="520"/>
	<unicode hex="004C"/>
	<outline>
		<contour>
			<point x="55" y="680" type="line"/>
			<point x="55" y="0" type="line"/>
			<point x="140" y="0" type="line"/>
			<point x="140" y="680" type="line"/>
		</contour>
		<contour>
			<point x="96" y="0" type="line"/>
			<point x="488" y="0" type="line"/>
			<point x="488" y="72" type="line"/>
			<point x="96" y="72" type="line"/>
		</contour>
	</outline>
</glyph>
<glyph name="M" format="2">
	<advance width="777"/>
	<unicode hex="004D"/>
	<outline>
		<contour>
			<point x="346" y="0" type="line"/>
			<point x="431" y="0" type="line"/>
			<point x="642" y="561" type="line"/>
			<point x="642" y="0" type="line"/>
			<point x="727" y="0" type="line"/>
			<point x="727" y="680" type="line"/>
			<point x="599" y="680" type="line"/>
			<point x="389" y="117" type="line"/>
			<point x="178" y="680" type="line"/>
			<point x="50" y="680" type="line"/>
			<point x="50" y="0" type="line"/>
			<point x="135" y="0" type="line"/>
			<point x="135" y="561" type="line"/>
		</contour>
	</outline>
</glyph>
<glyph name="N" format="2">
	<advance width="641"/>
	<unicode hex="004E"/>
	<outline>
		<contour>
			<point x="50" y="0" type="line"/>
			<point x="135" y="0" type="line"/>
			<point x="135" y="542" type="line"/>
			<point x="500" y="0" type="line"/>
			<point x="591" y="0" type="line"/>
			<point x="591" y="680" type="line"/>
			<point x="506" y="680" type="line"/>
			<point x="506" y="138" type="line"/>
			<point x="141" y="680" type="line"/>
			<point x="50" y="680" type="line"/>
		</contour>
	</outline>
</glyph>
<glyph name="O" format="2">
	<advance width="718"/>
	<unicode hex="004F"/>
	<outline>
		<contour>
			<point x="358" y="61" type="curve" smooth="yes"/>
			<point x="214" y="61"/>
			<point x="137" y="160"/>
			<point x="137" y="340" type="curve" smooth="yes"/>
			<point x="137" y="520"/>
			<point x="214" y="619"/>
			<point x="358" y="619" type="curve" smooth="yes"/>
			<point x="504" y="619"/>
			<point x="581" y="520"/>
			<point x="581" y="340" type="curve" smooth="yes"/>
			<point x="581" y="160"/>
			<point x="504" y="61"/>
		</contour>
		<contour>
			<point x="359" y="-15" type="curve" smooth="yes"/>
			<point x="559" y="-15"/>
			<point x="671" y="115"/>
			<point x="671" y="340" type="curve" smooth="yes"/>
			<point x="671" y="565"/>
			<point x="559" y="695"/>
			<point x="359" y="695" type="curve" smooth="yes"/>
			<point x="159" y="695"/>
			<point x="47" y="565"/>
			<point x="47" y="340" type="curve" smooth="yes"/>
			<point x="47" y="115"/>
			<point x="159" y="-15"/>
		</contour>
	</outline>
</glyph>
<glyph name="P" format="2">
	<advance width="593"/>
	<unicode hex="0050"/>
	<outline>
		<contour>
			<point x="140" y="605" type="line"/>
			<point x="322" y="605" type="line" smooth="yes"/>
			<point x="406" y="605"/>
			<point x="462" y="542"/>
			<point x="462" y="466" type="curve" smooth="yes"/>
			<point x="462" y="390"/>
			<point x="406" y="330"/>
			<point x="322" y="330" type="curve" smooth="yes"/>
			<point x="140" y="330" type="line"/>
		</contour>
		<contour>
			<point x="140" y="255" type="line"/>
			<point x="322" y="255" type="line" smooth="yes"/>
			<point x="465" y="255"/>
			<point x="552" y="347"/>
			<point x="552" y="466" type="curve" smooth="yes"/>
			<point x="552" y="585"/>
			<point x="465" y="680"/>
			<point x="322" y="680" type="curve" smooth="yes"/>
			<point x="55" y="680" type="line"/>
			<point x="55" y="0" type="line"/>
			<point x="140" y="0" type="line"/>
		</contour>
	</outline>
</glyph>
<glyph name="Q" format="2">
	<advance width="708"/>
	<unicode hex="0051"/>
	<outline>
		<contour>
			<point x="330" y="168" type="line"/>
			<point x="517" y="-105" type="line"/>
			<point x="618" y="-105" type="line"/>
			<point x="431" y="168" type="line"/>
		</contour>
		<component base="O"/>
	</outline>
</glyph>
<glyph name="R" format="2">
	<advance width="583"/>
	<unicode hex="0052"/>
	<outline>
		<contour>
			<point x="292" y="295" type="line"/>
			<point x="463" y="0" type="line"/>
			<point x="560" y="0" type="line"/>
			<point x="389" y="295" type="line"/>
		</contour>
		<contour>
			<point x="135" y="605" type="line"/>
			<point x="317" y="605" type="line" smooth="yes"/>
			<point x="401" y="605"/>
			<point x="457" y="542"/>
			<point x="457" y="466" type="curve" smooth="yes"/>
			<point x="457" y="390"/>
			<point x="401" y="330"/>
			<point x="317" y="330" type="curve" smooth="yes"/>
			<point x="135" y="330" type="line"/>
		</contour>
		<contour>
			<point x="135" y="255" type="line"/>
			<point x="317" y="255" type="line" smooth="yes"/>
			<point x="460" y="255"/>
			<point x="547" y="347"/>
			<point x="547" y="466" type="curve" smooth="yes"/>
			<point x="547" y="585"/>
			<point x="460" y="680"/>
			<point x="317" y="680" type="curve" smooth="yes"/>
			<point x="50" y="680" type="line"/>
			<point x="50" y="0" type="line"/>
			<point x="135" y="0" type="line"/>
		</contour>
	</outline>
</glyph>
<glyph name="S" format="2">
	<advance width="565"/>
	<unicode hex="0053"/>
	<anchor x="291" y="0" name="bottom"/>
	<anchor x="282" y="695" name="top"/>
	<outline>
		<contour>
			<point x="124" y="187" type="curve"/>
			<point x="30" y="187" type="line"/>
			<point x="30" y="83"/>
			<point x="121" y="-15"/>
			<point x="291" y="-15" type="curve" smooth="yes"/>
			<point x="419" y="-15"/>
			<point x="535" y="41"/>
			<point x="535" y="174" type="curve" smooth="yes"/>
			<point x="535" y="422"/>
			<point x="135" y="335"/>
			<point x="135" y="508" type="curve" smooth="yes"/>
			<point x="135" y="585"/>
			<point x="209" y="621"/>
			<point x="281" y="621" type="curve" smooth="yes"/>
			<point x="364" y="621"/>
			<point x="433" y="570"/>
			<point x="433" y="503" type="curve"/>
			<point x="525" y="503" type="line"/>
			<point x="525" y="619"/>
			<point x="428" y="695"/>
			<point x="282" y="695" type="curve" smooth="yes"/>
			<point x="152" y="695"/>
			<point x="45" y="636"/>
			<point x="45" y="505" type="curve" smooth="yes"/>
			<point x="45" y="253"/>
			<point x="445" y="346"/>
			<point x="445" y="171" type="curve" smooth="yes"/>
			<point x="445" y="88"/>
			<point x="360" y="61"/>
			<point x="286" y="61" type="curve" smooth="yes"/>
			<point x="174" y="61"/>
			<point x="124" y="123"/>
		</contour>
	</outline>
</glyph>
<glyph name="T" format="2">
	<advance width="651"/>
	<unicode hex="0054"/>
	<outline>
		<contour>
			<point x="52" y="608" type="line"/>
			<point x="599" y="608" type="line"/>
			<point x="599" y="680" type="line"/>
			<point x="52" y="680" type="line"/>
		</contour>
		<contour>
			<point x="283" y="680" type="line"/>
			<point x="283" y="0" type="line"/>
			<point x="368" y="0" type="line"/>
			<point x="368" y="680" type="line"/>
		</contour>
	</outline>
</glyph>
<glyph name="U" format="2">
	<advance width="638"/>
	<unicode hex="0055"/>
	<outline>
		<contour>
			<point x="319" y="-15" type="curve" smooth="yes"/>
			<point x="475" y="-15"/>
			<point x="588" y="60"/>
			<point x="588" y="264" type="curve"/>
			<point x="588" y="680" type="line"/>
			<point x="503" y="680" type="line"/>
			<point x="503" y="264" type="line"/>
			<point x="503" y="104"/>
			<point x="396" y="61"/>
			<point x="319" y="61" type="curve" smooth="yes"/>
			<point x="242" y="61"/>
			<point x="139" y="104"/>
			<point x="139" y="264" type="curve"/>
			<point x="139" y="680" type="line"/>
			<point x="50" y="680" type="line"/>
			<point x="50" y="264" type="line"/>
			<point x="50" y="56"/>
			<point x="169" y="-15"/>
		</contour>
	</outline>
</glyph>
<glyph name="V" format="2">
	<advance width="661"/>
	<unicode hex="0056"/>
	<outline>
		<contour>
			<point x="537" y="680" type="line"/>
			<point x="304" y="0" type="line"/>
			<point x="387" y="0" type="line"/>
			<point x="631" y="680" type="line"/>
		</contour>
		<contour>
			<point x="30" y="680" type="line"/>
			<point x="274" y="0" type="line"/>
			<point x="360" y="0" type="line"/>
			<point x="123" y="680" type="line"/>
		</contour>
	</outline>
</glyph>
<glyph name="W" format="2">
	<advance width="906"/>
	<unicode hex="0057"/>
	<outline>
		<contour>
			<point x="597" y="0" type="line"/>
			<point x="678" y="0" type="line"/>
			<point x="505" y="680" type="line"/>
			<point x="424" y="680" type="line"/>
		</contour>
		<contour>
			<point x="195" y="0" type="line"/>
			<point x="276" y="0" type="line"/>
			<point x="123" y="680" type="line"/>
			<point x="30" y="680" type="line"/>
		</contour>
		<contour>
			<point x="232" y="0" type="line"/>
			<point x="309" y="0" type="line"/>
			<point x="482" y="680" type="line"/>
			<point x="405" y="680" type="line"/>
		</contour>
		<contour>
			<point x="634" y="0" type="line"/>
			<point x="711" y="0" type="line"/>
			<point x="876" y="680" type="line"/>
			<point x="787" y="680" type="line"/>
		</contour>
	</outline>
</glyph>
<glyph name="X" format="2">
	<advance width="632"/>
	<unicode hex="0058"/>
	<outline>
		<contour>
			<point x="300" y="386" type="line"/>
			<point x="343" y="307" type="line"/>
			<point x="588" y="680" type="line"/>
			<point x="496" y="680" type="line"/>
		</contour>
		<contour>
			<point x="510" y="0" type="line"/>
			<point x="602" y="0" type="line"/>
			<point x="122" y="680" type="line"/>
			<point x="30" y="680" type="line"/>
		</contour>
		<contour>
			<point x="330" y="308" type="line"/>
			<point x="287" y="387" type="line"/>
			<point x="30" y="0" type="line"/>
			<point x="122" y="0" type="line"/>
		</contour>
	</outline>
</glyph>
<glyph name="Y" format="2">
	<advance width="594"/>
	<unicode hex="0059"/>
	<outline>
		<contour>
			<point x="30" y="680" type="line"/>
			<point x="259" y="268" type="line"/>
			<point x="335" y="280" type="line"/>
			<point x="123" y="680" type="line"/>
		</contour>
		<contour>
			<point x="474" y="680" type="line"/>
			<point x="261" y="280" type="line"/>
			<point x="334" y="268" type="line"/>
			<point x="564" y="680" type="line"/>
		</contour>
		<contour>
			<point x="254" y="302" type="line"/>
			<point x="254" y="0" type="line"/>
			<point x="339" y="0" type="line"/>
			<point x="339" y="302" type="line"/>
		</contour>
	</outline>
</glyph>
<glyph name="Z" format="2">
	<advance width="607"/>
	<unicode hex="005A"/>
	<outline>
		<contour>
			<point x="552" y="623" type="line"/>
			<point x="460" y="621" type="line"/>
			<point x="45" y="57" type="line"/>
			<point x="136" y="59" type="line"/>
		</contour>
		<contour>
			<point x="65" y="680" type="line"/>
			<point x="65" y="608" type="line"/>
			<point x="504" y="608" type="line"/>
			<point x="552" y="623" type="line"/>
			<point x="552" y="680" type="line"/>
		</contour>
		<contour>
			<point x="45" y="57" type="line"/>
			<point x="45" y="41" type="line"/>
			<point x="45" y="0" type="line"/>
			<point x="562" y="0" type="line"/>
			<point x="562" y="72" type="line"/>
			<point x="83" y="72" type="line"/>
		</contour>
	</outline>
</glyph>
<glyph name="bracketleft" format="2">
	<advance width="278"/>
	<unicode hex="005B"/>
	<outline>
		<contour>
			<point x="50" y="680" type="line"/>
			<point x="50" y="-200" type="line"/>
			<point x="124" y="-200" type="line"/>
			<point x="124" y="680" type="line"/>
		</contour>
		<contour>
			<point x="113" y="680" type="line"/>
			<point x="113" y="615" type="line"/>
			<point x="258" y="615" type="line"/>
			<point x="258" y="680" type="line"/>
		</contour>
		<contour>
			<point x="113" y="-135" type="line"/>
			<point x="113" y="-200" type="line"/>
			<point x="258" y="-200" type="line"/>
			<point x="258" y="-135" type="line"/>
		</contour>
	</outline>
</glyph>
<glyph name="backslash" format="2">
	<advance width="312"/>
	<unicode hex="005C"/>
	<outline>
		<contour>
			<point x="0" y="680" type="line"/>
			<point x="235" y="-200" type="line"/>
			<point x="312" y="-200" type="line"/>
			<point x="77" y="680" type="line"/>
		</contour>
	</outline>
</glyph>
<glyph name="bracketright" format="2">
	<advance width="278"/>
	<unicode hex="005D"/>
	<outline>
		<contour>
			<point x="228" y="680" type="line"/>
			<point x="154" y="680" type="line"/>
			<point x="154" y="-200" type="line"/>
			<point x="228" y="-200" type="line"/>
		</contour>
		<contour>
			<point x="165" y="680" type="line"/>
			<point x="20" y="680" type="line"/>
			<point x="20" y="615" type="line"/>
			<point x="165" y="615" type="line"/>
		</contour>
		<contour>
			<point x="165" y="-135" type="line"/>
			<point x="20" y="-135" type="line"/>
			<point x="20" y="-200" type="line"/>
			<point x="165" y="-200" type="line"/>
		</contour>
	</outline>
</glyph>
<glyph name="asciicircum" format="2">
	<advance width="372"/>
	<unicode hex="005E"/>
	<outline>
		<contour>
			<point x="107" y="452" type="line"/>
			<point x="186" y="632" type="line"/>
			<point x="265" y="452" type="line"/>
			<point x="342" y="452" type="line"/>
			<point x="240" y="680" type="line"/>
			<point x="132" y="680" type="line"/>
			<point x="30" y="452" type="line"/>
		</contour>
	</outline>
</glyph>
<glyph name="underscore" format="2">
	<advance width="450"/>
	<unicode hex="005F"/>
	<outline>
		<contour>
			<point x="-23" y="-120" type="line"/>
			<point x="473" y="-120" type="line"/>
			<point x="473" y="-60" type="line"/>
			<point x="-23" y="-60" type="line"/>
		</contour>
	</outline>
</glyph>
<glyph name="grave" format="2">
	<advance width="500"/>
	<unicode hex="0060"/>
	<outline>
		<contour>
			<point x="163" y="712" type="line"/>
			<point x="254" y="580" type="line"/>
			<point x="319" y="580" type="line"/>
			<point x="258" y="712" type="line"/>
		</contour>
	</outline>
</glyph>
<glyph name="a" format="2">
	<advance width="500"/>
	<unicode hex="0061"/>
	<outline>
		<contour>
			<point x="134" y="348" type="curve"/>
			<point x="53" y="348" type="line"/>
			<point x="54" y="460"/>
			<point x="157" y="508"/>
			<point x="250" y="508" type="curve" smooth="yes"/>
			<point x="359" y="508"/>
			<point x="450" y="441"/>
			<point x="450" y="339" type="curve" smooth="yes"/>
			<point x="450" y="2" type="line"/>
			<point x="367" y="2" type="line"/>
			<point x="367" y="329" type="line" smooth="yes"/>
			<point x="367" y="395"/>
			<point x="314" y="438"/>
			<point x="245" y="438" type="curve" smooth="yes"/>
			<point x="175" y="438"/>
			<point x="134" y="393"/>
		</contour>
		<contour>
			<point x="204" y="289" type="curve" smooth="yes"/>
			<point x="376" y="288" type="line"/>
			<point x="376" y="222" type="line"/>
			<point x="228" y="222" type="line" smooth="yes"/>
			<point x="161" y="222"/>
			<point x="124" y="197"/>
			<point x="124" y="145" type="curve" smooth="yes"/>
			<point x="124" y="94"/>
			<point x="160" y="60"/>
			<point x="221" y="60" type="curve" smooth="yes"/>
			<point x="289" y="60"/>
			<point x="367" y="102"/>
			<point x="367" y="173" type="curve"/>
			<point x="386" y="105" type="line"/>
			<point x="354" y="49"/>
			<point x="300" y="-10"/>
			<point x="207" y="-10" type="curve" smooth="yes"/>
			<point x="115" y="-10"/>
			<point x="35" y="49"/>
			<point x="35" y="144" type="curve" smooth="yes"/>
			<point x="35" y="232"/>
			<point x="109" y="290"/>
		</contour>
	</outline>
</glyph>
<glyph name="b" format="2">
	<advance width="543"/>
	<unicode hex="0062"/>
	<anchor x="298" y="0" name="bottom"/>
	<anchor x="272" y="250" name="center"/>
	<anchor x="281" y="700" name="top"/>
	<outline>
		<contour>
			<point x="50" y="0" type="line"/>
			<point x="50" y="700" type="line"/>
			<point x="132" y="700" type="line"/>
			<point x="132" y="180" type="line"/>
			<point x="128" y="175" type="line"/>
			<point x="128" y="0" type="line"/>
		</contour>
		<contour>
			<point x="281" y="440" type="curve" smooth="yes"/>
			<point x="192" y="440"/>
			<point x="135" y="372"/>
			<point x="135" y="250" type="curve" smooth="yes"/>
			<point x="135" y="134"/>
			<point x="189" y="60"/>
			<point x="281" y="60" type="curve" smooth="yes"/>
			<point x="371" y="60"/>
			<point x="426" y="128"/>
			<point x="426" y="250" type="curve" smooth="yes"/>
			<point x="426" y="366"/>
			<point x="374" y="440"/>
		</contour>
		<contour>
			<point x="298" y="510" type="curve" smooth="yes"/>
			<point x="420" y="510"/>
			<point x="512" y="420"/>
			<point x="512" y="252" type="curve" smooth="yes"/>
			<point x="512" y="88"/>
			<point x="424" y="-10"/>
			<point x="299" y="-10" type="curve" smooth="yes"/>
			<point x="122" y="-10"/>
			<point x="82" y="184"/>
			<point x="82" y="251" type="curve" smooth="yes"/>
			<point x="82" y="318"/>
			<point x="121" y="510"/>
		</contour>
	</outline>
</glyph>
<glyph name="c" format="2">
	<advance width="507"/>
	<unicode hex="0063"/>
	<outline>
		<contour>
			<point x="473" y="152" type="curve"/>
			<point x="386" y="152" type="line"/>
			<point x="372" y="99"/>
			<point x="324" y="60"/>
			<point x="261" y="60" type="curve" smooth="yes"/>
			<point x="168" y="60"/>
			<point x="123" y="135"/>
			<point x="123" y="250" type="curve" smooth="yes"/>
			<point x="123" y="365"/>
			<point x="168" y="440"/>
			<point x="261" y="440" type="curve" smooth="yes"/>
			<point x="325" y="440"/>
			<point x="372" y="401"/>
			<point x="386" y="348" type="curve"/>
			<point x="474" y="348" type="line"/>
			<point x="454" y="456"/>
			<point x="374" y="510"/>
			<point x="262" y="510" type="curve" smooth="yes"/>
			<point x="115" y="510"/>
			<point x="37" y="415"/>
			<point x="37" y="250" type="curve" smooth="yes"/>
			<point x="37" y="85"/>
			<point x="115" y="-10"/>
			<point x="262" y="-10" type="curve" smooth="yes"/>
			<point x="374" y="-10"/>
			<point x="453" y="44"/>
		</contour>
	</outline>
</glyph>
<glyph name="d" format="2">
	<advance width="549"/>
	<unicode hex="0064"/>
	<outline>
		<contour>
			<point x="499" y="0" type="line"/>
			<point x="417" y="0" type="line"/>
			<point x="417" y="700" type="line"/>
			<point x="499" y="700" type="line"/>
		</contour>
		<contour>
			<point x="268" y="440" type="curve" smooth="yes"/>
			<point x="175" y="440"/>
			<point x="123" y="366"/>
			<point x="123" y="250" type="curve" smooth="yes"/>
			<point x="123" y="128"/>
			<point x="178" y="60"/>
			<point x="268" y="60" type="curve" smooth="yes"/>
			<point x="360" y="60"/>
			<point x="414" y="134"/>
			<point x="414" y="250" type="curve" smooth="yes"/>
			<point x="414" y="372"/>
			<point x="357" y="440"/>
		</contour>
		<contour>
			<point x="251" y="510" type="curve" smooth="yes"/>
			<point x="428" y="510"/>
			<point x="467" y="318"/>
			<point x="467" y="251" type="curve" smooth="yes"/>
			<point x="467" y="184"/>
			<point x="427" y="-10"/>
			<point x="250" y="-10" type="curve" smooth="yes"/>
			<point x="125" y="-10"/>
			<point x="37" y="88"/>
			<point x="37" y="252" type="curve" smooth="yes"/>
			<point x="37" y="420"/>
			<point x="129" y="510"/>
		</contour>
	</outline>
</glyph>
<glyph name="e" format="2">
	<advance width="521"/>
	<unicode hex="0065"/>
	<outline>
		<contour>
			<point x="87" y="292" type="line"/>
			<point x="87" y="224" type="line"/>
			<point x="486" y="224" type="line"/>
			<point x="486" y="262" type="line"/>
			<point x="452" y="292" type="line"/>
		</contour>
		<contour>
			<point x="399" y="292" type="curve"/>
			<point x="486" y="262" type="line"/>
			<point x="486" y="444"/>
			<point x="386" y="510"/>
			<point x="263" y="510" type="curve" smooth="yes"/>
			<point x="118" y="510"/>
			<point x="37" y="420"/>
			<point x="37" y="252" type="curve" smooth="yes"/>
			<point x="37" y="88"/>
			<point x="114" y="-10"/>
			<point x="265" y="-10" type="curve" smooth="yes"/>
			<point x="374" y="-10"/>
			<point x="451" y="41"/>
			<point x="480" y="138" type="curve"/>
			<point x="393" y="138" type="line"/>
			<point x="371" y="88"/>
			<point x="321" y="60"/>
			<point x="263" y="60" type="curve" smooth="yes"/>
			<point x="174" y="60"/>
			<point x="122" y="128"/>
			<point x="122" y="250" type="curve" smooth="yes"/>
			<point x="122" y="366"/>
			<point x="171" y="440"/>
			<point x="263" y="440" type="curve" smooth="yes"/>
			<point x="342" y="440"/>
			<point x="399" y="386"/>
		</contour>
	</outline>
</glyph>
<glyph name="f" format="2">
	<advance width="303"/>
	<unicode hex="0066"/>
	<anchor x="152" y="0" name="bottom"/>
	<anchor x="216" y="712" name="top"/>
	<outline>
		<contour>
			<point x="276" y="634" type="curve"/>
			<point x="276" y="701" type="line"/>
			<point x="260" y="709"/>
			<point x="238" y="712"/>
			<point x="216" y="712" type="curve" smooth="yes"/>
			<point x="116" y="712"/>
			<point x="76" y="652"/>
			<point x="76" y="571" type="curve"/>
			<point x="76" y="0" type="line"/>
			<point x="158" y="0" type="line"/>
			<point x="158" y="561" type="line"/>
			<point x="158" y="609"/>
			<point x="177" y="642"/>
			<point x="230" y="642" type="curve" smooth="yes"/>
			<point x="246" y="642"/>
			<point x="261" y="639"/>
		</contour>
		<contour>
			<point x="10" y="500" type="line"/>
			<point x="10" y="432" type="line"/>
			<point x="268" y="432" type="line"/>
			<point x="268" y="500" type="line"/>
		</contour>
	</outline>
</glyph>
<glyph name="g" format="2">
	<advance width="550"/>
	<unicode hex="0067"/>
	<outline>
		<contour>
			<point x="60" y="-53" type="curve"/>
			<point x="142" y="-53" type="line"/>
			<point x="154" y="-100"/>
			<point x="209" y="-130"/>
			<point x="273" y="-130" type="curve" smooth="yes"/>
			<point x="360" y="-130"/>
			<point x="417" y="-74"/>
			<point x="417" y="9" type="curve" smooth="yes"/>
			<point x="417" y="500" type="line"/>
			<point x="500" y="500" type="line"/>
			<point x="500" y="-1" type="line" smooth="yes"/>
			<point x="500" y="-120"/>
			<point x="398" y="-200"/>
			<point x="272" y="-200" type="curve" smooth="yes"/>
			<point x="175" y="-200"/>
			<point x="74" y="-153"/>
		</contour>
		<contour>
			<point x="268" y="60" type="curve" smooth="yes"/>
			<point x="357" y="60"/>
			<point x="414" y="128"/>
			<point x="414" y="250" type="curve" smooth="yes"/>
			<point x="414" y="366"/>
			<point x="360" y="440"/>
			<point x="268" y="440" type="curve" smooth="yes"/>
			<point x="178" y="440"/>
			<point x="123" y="372"/>
			<point x="123" y="250" type="curve" smooth="yes"/>
			<point x="123" y="134"/>
			<point x="175" y="60"/>
		</contour>
		<contour>
			<point x="251" y="-10" type="curve" smooth="yes"/>
			<point x="129" y="-10"/>
			<point x="37" y="80"/>
			<point x="37" y="248" type="curve" smooth="yes"/>
			<point x="37" y="412"/>
			<point x="125" y="510"/>
			<point x="250" y="510" type="curve" smooth="yes"/>
			<point x="427" y="510"/>
			<point x="467" y="316"/>
			<point x="467" y="249" type="curve" smooth="yes"/>
			<point x="467" y="182"/>
			<point x="428" y="-10"/>
		</contour>
	</outline>
</glyph>
<glyph name="h" format="2">
	<advance width="512"/>
	<unicode hex="0068"/>
	<outline>
		<contour>
			<point x="50" y="700" type="line"/>
			<point x="50" y="0" type="line"/>
			<point x="132" y="0" type="line"/>
			<point x="132" y="700" type="line"/>
		</contour>
		<contour>
			<point x="118" y="398" type="curve"/>
			<point x="132" y="304" type="line"/>
			<point x="132" y="386"/>
			<point x="195" y="439"/>
			<point x="268" y="439" type="curve" smooth="yes"/>
			<point x="342" y="439"/>
			<point x="379" y="385"/>
			<point x="379" y="311" type="curve"/>
			<point x="379" y="0" type="line"/>
			<point x="462" y="0" type="line"/>
			<point x="462" y="337" type="line"/>
			<point x="462" y="453"/>
			<point x="374" y="510"/>
			<point x="281" y="510" type="curve" smooth="yes"/>
			<point x="192" y="510"/>
			<point x="144" y="458"/>
		</contour>
	</outline>
</glyph>
<glyph name="i" format="2">
	<advance width="198"/>
	<unicode hex="0069"/>
	<anchor x="99" y="0" name="bottom"/>
	<outline>
		<contour>
			<point x="59" y="500" type="line"/>
			<point x="59" y="0" type="line"/>
			<point x="141" y="0" type="line"/>
			<point x="141" y="500" type="line"/>
		</contour>
		<contour>
			<point x="99" y="577" type="curve" smooth="yes"/>
			<point x="132" y="577"/>
			<point x="148" y="592"/>
			<point x="148" y="626" type="curve" smooth="yes"/>
			<point x="148" y="659"/>
			<point x="133" y="675"/>
			<point x="99" y="675" type="curve" smooth="yes"/>
			<point x="66" y="675"/>
			<point x="50" y="660"/>
			<point x="50" y="626" type="curve" smooth="yes"/>
			<point x="50" y="593"/>
			<point x="65" y="577"/>
		</contour>
	</outline>
</glyph>
<glyph name="j" format="2">
	<advance width="196"/>
	<unicode hex="006A"/>
	<outline>
		<contour>
			<point x="48" y="626" type="curve" smooth="yes"/>
			<point x="48" y="593"/>
			<point x="63" y="577"/>
			<point x="97" y="577" type="curve" smooth="yes"/>
			<point x="130" y="577"/>
			<point x="146" y="592"/>
			<point x="146" y="626" type="curve" smooth="yes"/>
			<point x="146" y="659"/>
			<point x="131" y="675"/>
			<point x="97" y="675" type="curve" smooth="yes"/>
			<point x="64" y="675"/>
			<point x="48" y="660"/>
		</contour>
		<contour>
			<point x="-18" y="-142" type="curve"/>
			<point x="-18" y="-212" type="line"/>
			<point x="105" y="-212"/>
			<point x="138" y="-162"/>
			<point x="138" y="-51" type="curve"/>
			<point x="138" y="500" type="line"/>
			<point x="56" y="500" type="line"/>
			<point x="56" y="-41" type="line"/>
			<point x="56" y="-113"/>
			<point x="38" y="-142"/>
		</contour>
		<contour>
			<point x="-24" y="-142" type="line"/>
			<point x="-24" y="-212" type="line"/>
			<point x="-18" y="-212" type="line"/>
			<point x="-18" y="-142" type="line"/>
		</contour>
	</outline>
</glyph>
<glyph name="k" format="2">
	<advance width="510"/>
	<unicode hex="006B"/>
	<anchor x="255" y="0" name="bottom"/>
	<anchor x="258" y="700" name="top"/>
	<outline>
		<contour>
			<point x="50" y="700" type="line"/>
			<point x="50" y="0" type="line"/>
			<point x="132" y="0" type="line"/>
			<point x="132" y="700" type="line"/>
		</contour>
		<contour>
			<point x="368" y="500" type="line"/>
			<point x="115" y="242" type="line"/>
			<point x="115" y="135" type="line"/>
			<point x="466" y="500" type="line"/>
		</contour>
		<contour>
			<point x="191" y="274" type="line"/>
			<point x="388" y="0" type="line"/>
			<point x="486" y="0" type="line"/>
			<point x="259" y="327" type="line"/>
		</contour>
	</outline>
</glyph>
<glyph name="l" format="2">
	<advance width="182"/>
	<unicode hex="006C"/>
	<outline>
		<contour>
			<point x="50" y="700" type="line"/>
			<point x="50" y="0" type="line"/>
			<point x="132" y="0" type="line"/>
			<point x="132" y="700" type="line"/>
		</contour>
	</outline>
</glyph>
<glyph name="m" format="2">
	<advance width="802"/>
	<unicode hex="006D"/>
	<anchor x="401" y="6" name="bottom"/>
	<anchor x="404" y="500" name="top"/>
	<outline>
		<contour>
			<point x="50" y="500" type="line"/>
			<point x="50" y="0" type="line"/>
			<point x="132" y="0" type="line"/>
			<point x="132" y="500" type="line"/>
		</contour>
		<contour>
			<point x="118" y="398" type="curve"/>
			<point x="132" y="304" type="line"/>
			<point x="132" y="386"/>
			<point x="175" y="439"/>
			<point x="248" y="439" type="curve" smooth="yes"/>
			<point x="322" y="439"/>
			<point x="359" y="385"/>
			<point x="359" y="311" type="curve"/>
			<point x="359" y="0" type="line"/>
			<point x="442" y="0" type="line"/>
			<point x="442" y="337" type="line"/>
			<point x="442" y="453"/>
			<point x="352" y="510"/>
			<point x="267" y="510" type="curve" smooth="yes"/>
			<point x="187" y="510"/>
			<point x="141" y="457"/>
		</contour>
		<contour>
			<point x="428" y="398" type="curve"/>
			<point x="442" y="304" type="line"/>
			<point x="442" y="386"/>
			<point x="485" y="439"/>
			<point x="558" y="439" type="curve" smooth="yes"/>
			<point x="632" y="439"/>
			<point x="669" y="385"/>
			<point x="669" y="311" type="curve"/>
			<point x="669" y="0" type="line"/>
			<point x="752" y="0" type="line"/>
			<point x="752" y="337" type="line"/>
			<point x="752" y="453"/>
			<point x="662" y="510"/>
			<point x="577" y="510" type="curve" smooth="yes"/>
			<point x="497" y="510"/>
			<point x="452" y="457"/>
		</contour>
	</outline>
</glyph>
<glyph name="n" format="2">
	<advance width="512"/>
	<unicode hex="006E"/>
	<anchor x="256" y="0" name="bottom"/>
	<anchor x="256" y="505" name="top"/>
	<outline>
		<contour>
			<point x="50" y="500" type="line"/>
			<point x="50" y="0" type="line"/>
			<point x="132" y="0" type="line"/>
			<point x="132" y="500" type="line"/>
		</contour>
		<contour>
			<point x="118" y="398" type="curve"/>
			<point x="132" y="304" type="line"/>
			<point x="132" y="386"/>
			<point x="195" y="439"/>
			<point x="268" y="439" type="curve" smooth="yes"/>
			<point x="342" y="439"/>
			<point x="379" y="385"/>
			<point x="379" y="311" type="curve" smooth="yes"/>
			<point x="379" y="0" type="line"/>
			<point x="462" y="0" type="line"/>
			<point x="462" y="337" type="line" smooth="yes"/>
			<point x="462" y="453"/>
			<point x="374" y="510"/>
			<point x="281" y="510" type="curve" smooth="yes"/>
			<point x="192" y="510"/>
			<point x="144" y="458"/>
		</contour>
	</outline>
</glyph>
<glyph name="o" format="2">
	<advance width="538"/>
	<unicode hex="006F"/>
	<outline>
		<contour>
			<point x="268" y="60" type="curve" smooth="yes"/>
			<point x="179" y="60"/>
			<point x="122" y="128"/>
			<point x="122" y="250" type="curve" smooth="yes"/>
			<point x="122" y="366"/>
			<point x="176" y="440"/>
			<point x="268" y="440" type="curve" smooth="yes"/>
			<point x="358" y="440"/>
			<point x="415" y="372"/>
			<point x="415" y="250" type="curve" smooth="yes"/>
			<point x="415" y="134"/>
			<point x="361" y="60"/>
		</contour>
		<contour>
			<point x="270" y="-10" type="curve" smooth="yes"/>
			<point x="415" y="-10"/>
			<point x="501" y="80"/>
			<point x="501" y="248" type="curve" smooth="yes"/>
			<point x="501" y="412"/>
			<point x="419" y="510"/>
			<point x="268" y="510" type="curve" smooth="yes"/>
			<point x="123" y="510"/>
			<point x="37" y="420"/>
			<point x="37" y="252" type="curve" smooth="yes"/>
			<point x="37" y="88"/>
			<point x="119" y="-10"/>
		</contour>
	</outline>
</glyph>
<glyph name="p" format="2">
	<advance width="554"/>
	<unicode hex="0070"/>
	<outline>
		<contour>
			<point x="50" y="500" type="line"/>
			<point x="132" y="500" type="line"/>
			<point x="132" y="-200" type="line"/>
			<point x="50" y="-200" type="line"/>
		</contour>
		<contour>
			<point x="281" y="60" type="curve" smooth="yes"/>
			<point x="374" y="60"/>
			<point x="426" y="134"/>
			<point x="426" y="250" type="curve" smooth="yes"/>
			<point x="426" y="372"/>
			<point x="371" y="440"/>
			<point x="281" y="440" type="curve" smooth="yes"/>
			<point x="189" y="440"/>
			<point x="135" y="366"/>
			<point x="135" y="250" type="curve" smooth="yes"/>
			<point x="135" y="128"/>
			<point x="192" y="60"/>
		</contour>
		<contour>
			<point x="298" y="-10" type="curve" smooth="yes"/>
			<point x="121" y="-10"/>
			<point x="82" y="182"/>
			<point x="82" y="249" type="curve" smooth="yes"/>
			<point x="82" y="316"/>
			<point x="122" y="510"/>
			<point x="299" y="510" type="curve" smooth="yes"/>
			<point x="424" y="510"/>
			<point x="512" y="412"/>
			<point x="512" y="248" type="curve" smooth="yes"/>
			<point x="512" y="80"/>
			<point x="420" y="-10"/>
		</contour>
	</outline>
</glyph>
<glyph name="q" format="2">
	<advance width="543"/>
	<unicode hex="0071"/>
	<anchor x="262" y="0" name="bottom"/>
	<anchor x="262" y="500" name="top"/>
	<outline>
		<contour>
			<point x="493" y="500" type="line"/>
			<point x="493" y="-200" type="line"/>
			<point x="411" y="-200" type="line"/>
			<point x="411" y="320" type="line"/>
			<point x="415" y="325" type="line"/>
			<point x="415" y="500" type="line"/>
		</contour>
		<contour>
			<point x="262" y="60" type="curve" smooth="yes"/>
			<point x="351" y="60"/>
			<point x="408" y="128"/>
			<point x="408" y="250" type="curve" smooth="yes"/>
			<point x="408" y="366"/>
			<point x="354" y="440"/>
			<point x="262" y="440" type="curve" smooth="yes"/>
			<point x="172" y="440"/>
			<point x="117" y="372"/>
			<point x="117" y="250" type="curve" smooth="yes"/>
			<point x="117" y="134"/>
			<point x="169" y="60"/>
		</contour>
		<contour>
			<point x="245" y="-10" type="curve" smooth="yes"/>
			<point x="123" y="-10"/>
			<point x="31" y="80"/>
			<point x="31" y="248" type="curve" smooth="yes"/>
			<point x="31" y="412"/>
			<point x="119" y="510"/>
			<point x="244" y="510" type="curve" smooth="yes"/>
			<point x="421" y="510"/>
			<point x="461" y="316"/>
			<point x="461" y="249" type="curve" smooth="yes"/>
			<point x="461" y="182"/>
			<point x="422" y="-10"/>
		</contour>
	</outline>
</glyph>
<glyph name="r" format="2">
	<advance width="312"/>
	<unicode hex="0072"/>
	<outline>
		<contour>
			<point x="50" y="500" type="line"/>
			<point x="50" y="0" type="line"/>
			<point x="132" y="0" type="line"/>
			<point x="132" y="500" type="line"/>
		</contour>
		<contour>
			<point x="292" y="430" type="curve"/>
			<point x="292" y="509" type="line"/>
			<point x="285" y="510"/>
			<point x="278" y="510"/>
			<point x="271" y="510" type="curve" smooth="yes"/>
			<point x="182" y="510"/>
			<point x="144" y="458"/>
			<point x="118" y="398" type="curve"/>
			<point x="132" y="299" type="line"/>
			<point x="132" y="381"/>
			<point x="185" y="434"/>
			<point x="258" y="434" type="curve" smooth="yes"/>
			<point x="270" y="434"/>
			<point x="281" y="432"/>
		</contour>
	</outline>
</glyph>
<glyph name="s" format="2">
	<advance width="458"/>
	<unicode hex="0073"/>
	<anchor x="229" y="0" name="bottom"/>
	<anchor x="226" y="510" name="top"/>
	<outline>
		<contour>
			<point x="116" y="151" type="curve"/>
			<point x="30" y="151" type="line"/>
			<point x="30" y="55"/>
			<point x="103" y="-9"/>
			<point x="232" y="-9" type="curve" smooth="yes"/>
			<point x="341" y="-9"/>
			<point x="428" y="36"/>
			<point x="428" y="134" type="curve" smooth="yes"/>
			<point x="428" y="315"/>
			<point x="131" y="244"/>
			<point x="131" y="378" type="curve" smooth="yes"/>
			<point x="131" y="420"/>
			<point x="169" y="440"/>
			<point x="228" y="440" type="curve" smooth="yes"/>
			<point x="289" y="440"/>
			<point x="333" y="417"/>
			<point x="333" y="364" type="curve"/>
			<point x="419" y="364" type="line"/>
			<point x="419" y="461"/>
			<point x="340" y="510"/>
			<point x="226" y="510" type="curve" smooth="yes"/>
			<point x="113" y="510"/>
			<point x="45" y="462"/>
			<point x="45" y="372" type="curve" smooth="yes"/>
			<point x="45" y="184"/>
			<point x="342" y="258"/>
			<point x="342" y="129" type="curve" smooth="yes"/>
			<point x="342" y="81"/>
			<point x="300" y="61"/>
			<point x="234" y="61" type="curve" smooth="yes"/>
			<point x="148" y="61"/>
			<point x="116" y="97"/>
		</contour>
	</outline>
</glyph>
<glyph name="t" format="2">
	<advance width="319"/>
	<unicode hex="0074"/>
	<anchor x="177" y="0" name="bottom"/>
	<anchor x="177" y="250" name="center"/>
	<anchor x="177" y="500" name="top"/>
	<anchor x="113" y="700" name="topright"/>
	<outline>
		<contour>
			<point x="296" y="-3" type="curve"/>
			<point x="296" y="64" type="line"/>
			<point x="244" y="54"/>
			<point x="178" y="51"/>
			<point x="178" y="141" type="curve" smooth="yes"/>
			<point x="178" y="612" type="line"/>
			<point x="96" y="612" type="line"/>
			<point x="96" y="131" type="line" smooth="yes"/>
			<point x="96" y="-22"/>
			<point x="251" y="-20"/>
		</contour>
		<contour>
			<point x="30" y="432" type="line"/>
			<point x="288" y="432" type="line"/>
			<point x="288" y="500" type="line"/>
			<point x="30" y="500" type="line"/>
		</contour>
	</outline>
</glyph>
<glyph name="u" format="2">
	<advance width="512"/>
	<unicode hex="0075"/>
	<anchor x="256" y="0" name="bottom"/>
	<anchor x="442" y="32" name="ogonek"/>
	<anchor x="256" y="500" name="top"/>
	<anchor x="467" y="500" name="topright"/>
	<outline>
		<contour>
			<point x="462" y="0" type="line"/>
			<point x="462" y="500" type="line"/>
			<point x="380" y="500" type="line"/>
			<point x="380" y="0" type="line"/>
		</contour>
		<contour>
			<point x="394" y="102" type="curve"/>
			<point x="380" y="196" type="line"/>
			<point x="380" y="114"/>
			<point x="317" y="61"/>
			<point x="244" y="61" type="curve" smooth="yes"/>
			<point x="170" y="61"/>
			<point x="133" y="115"/>
			<point x="133" y="189" type="curve"/>
			<point x="133" y="500" type="line"/>
			<point x="50" y="500" type="line"/>
			<point x="50" y="163" type="line"/>
			<point x="50" y="47"/>
			<point x="138" y="-10"/>
			<point x="231" y="-10" type="curve" smooth="yes"/>
			<point x="320" y="-10"/>
			<point x="368" y="42"/>
		</contour>
	</outline>
</glyph>
<glyph name="v" format="2">
	<advance width="533"/>
	<unicode hex="0076"/>
	<outline>
		<contour>
			<point x="30" y="500" type="line"/>
			<point x="214" y="0" type="line"/>
			<point x="296" y="0" type="line"/>
			<point x="119" y="500" type="line"/>
		</contour>
		<contour>
			<point x="503" y="500" type="line"/>
			<point x="419" y="500" type="line"/>
			<point x="242" y="0" type="line"/>
			<point x="319" y="0" type="line"/>
		</contour>
	</outline>
</glyph>
<glyph name="w" format="2">
	<advance width="760"/>
	<unicode hex="0077"/>
	<anchor x="380" y="0" name="bottom"/>
	<anchor x="382" y="500" name="top"/>
	<outline>
		<contour>
			<point x="171" y="0" type="line"/>
			<point x="275" y="0" type="line"/>
			<point x="381" y="423" type="line"/>
			<point x="493" y="0" type="line"/>
			<point x="597" y="0" type="line"/>
			<point x="736" y="500" type="line"/>
			<point x="656" y="500" type="line"/>
			<point x="544" y="83" type="line"/>
			<point x="435" y="500" type="line"/>
			<point x="334" y="500" type="line"/>
			<point x="222" y="83" type="line"/>
			<point x="113" y="500" type="line"/>
			<point x="24" y="500" type="line"/>
		</contour>
	</outline>
</glyph>
<glyph name="x" format="2">
	<advance width="517"/>
	<unicode hex="0078"/>
	<outline>
		<contour>
			<point x="30" y="500" type="line"/>
			<point x="390" y="0" type="line"/>
			<point x="487" y="0" type="line"/>
			<point x="127" y="500" type="line"/>
		</contour>
		<contour>
			<point x="390" y="500" type="line"/>
			<point x="249" y="288" type="line"/>
			<point x="293" y="220" type="line"/>
			<point x="487" y="500" type="line"/>
		</contour>
		<contour>
			<point x="30" y="0" type="line"/>
			<point x="127" y="0" type="line"/>
			<point x="268" y="212" type="line"/>
			<point x="224" y="280" type="line"/>
		</contour>
	</outline>
</glyph>
<glyph name="y" format="2">
	<advance width="501"/>
	<unicode hex="0079"/>
	<anchor x="251" y="0" name="bottom"/>
	<anchor x="257" y="500" name="top"/>
	<outline>
		<contour>
			<point x="24" y="500" type="line"/>
			<point x="211" y="0" type="line"/>
			<point x="285" y="0" type="line"/>
			<point x="113" y="500" type="line"/>
		</contour>
		<contour>
			<point x="477" y="500" type="line"/>
			<point x="393" y="500" type="line"/>
			<point x="216" y="0" type="line"/>
			<point x="293" y="0" type="line"/>
		</contour>
		<contour>
			<point x="282" y="-30" type="curve" smooth="yes"/>
			<point x="305" y="35" type="line"/>
			<point x="223" y="35" type="line"/>
			<point x="200" y="-30" type="line" smooth="yes"/>
			<point x="171" y="-113"/>
			<point x="115" y="-140"/>
			<point x="55" y="-124" type="curve"/>
			<point x="55" y="-192" type="line"/>
			<point x="63" y="-195"/>
			<point x="92" y="-200"/>
			<point x="107" y="-200" type="curve" smooth="yes"/>
			<point x="209" y="-200"/>
			<point x="248" y="-125"/>
		</contour>
	</outline>
</glyph>
<glyph name="z" format="2">
	<advance width="487"/>
	<unicode hex="007A"/>
	<anchor x="243" y="0" name="bottom"/>
	<anchor x="244" y="250" name="center"/>
	<anchor x="245" y="500" name="top"/>
	<outline>
		<contour>
			<point x="445" y="440" type="line"/>
			<point x="355" y="440" type="line"/>
			<point x="35" y="59" type="line"/>
			<point x="124" y="59" type="line"/>
		</contour>
		<contour>
			<point x="42" y="499" type="line"/>
			<point x="42" y="431" type="line"/>
			<point x="397" y="431" type="line"/>
			<point x="445" y="440" type="line"/>
			<point x="445" y="499" type="line"/>
		</contour>
		<contour>
			<point x="35" y="59" type="line"/>
			<point x="35" y="0" type="line"/>
			<point x="452" y="0" type="line"/>
			<point x="452" y="68" type="line"/>
			<point x="73" y="68" type="line"/>
		</contour>
	</outline>
</glyph>
<glyph name="braceleft" format="2">
	<advance width="339"/>
	<unicode hex="007B"/>
	<outline>
		<contour>
			<point x="50" y="277" type="curve"/>
			<point x="50" y="211" type="line"/>
			<point x="102" y="211"/>
			<point x="204" y="280"/>
			<point x="204" y="367" type="curve" smooth="yes"/>
			<point x="204" y="538" type="line" smooth="yes"/>
			<point x="204" y="592"/>
			<point x="234" y="622"/>
			<point x="289" y="622" type="curve" smooth="yes"/>
			<point x="319" y="622" type="line"/>
			<point x="319" y="678" type="line"/>
			<point x="289" y="678" type="line" smooth="yes"/>
			<point x="190" y="678"/>
			<point x="134" y="628"/>
			<point x="134" y="538" type="curve" smooth="yes"/>
			<point x="134" y="367" type="line" smooth="yes"/>
			<point x="134" y="309"/>
			<point x="95" y="277"/>
		</contour>
		<contour>
			<point x="50" y="277" type="curve"/>
			<point x="50" y="211" type="line"/>
			<point x="112" y="211"/>
			<point x="204" y="280"/>
			<point x="204" y="367" type="curve" smooth="yes"/>
			<point x="204" y="538" type="line" smooth="yes"/>
			<point x="204" y="592"/>
			<point x="234" y="622"/>
			<point x="289" y="622" type="curve" smooth="yes"/>
			<point x="319" y="622" type="line"/>
			<point x="319" y="678" type="line"/>
			<point x="289" y="678" type="line" smooth="yes"/>
			<point x="190" y="678"/>
			<point x="134" y="628"/>
			<point x="134" y="538" type="curve" smooth="yes"/>
			<point x="134" y="367" type="line" smooth="yes"/>
			<point x="134" y="309"/>
			<point x="95" y="277"/>
		</contour>
		<contour>
			<point x="50" y="277" type="curve"/>
			<point x="50" y="211" type="line"/>
			<point x="95" y="211"/>
			<point x="134" y="179"/>
			<point x="134" y="121" type="curve" smooth="yes"/>
			<point x="134" y="-50" type="line" smooth="yes"/>
			<point x="134" y="-140"/>
			<point x="190" y="-190"/>
			<point x="289" y="-190" type="curve" smooth="yes"/>
			<point x="319" y="-190" type="line"/>
			<point x="319" y="-134" type="line"/>
			<point x="289" y="-134" type="line" smooth="yes"/>
			<point x="234" y="-134"/>
			<point x="204" y="-104"/>
			<point x="204" y="-50" type="curve" smooth="yes"/>
			<point x="204" y="121" type="line" smooth="yes"/>
			<point x="204" y="208"/>
			<point x="102" y="277"/>
		</contour>
		<contour>
			<point x="50" y="277" type="curve"/>
			<point x="50" y="211" type="line"/>
			<point x="95" y="211"/>
			<point x="134" y="179"/>
			<point x="134" y="121" type="curve" smooth="yes"/>
			<point x="134" y="-50" type="line" smooth="yes"/>
			<point x="134" y="-140"/>
			<point x="190" y="-190"/>
			<point x="289" y="-190" type="curve" smooth="yes"/>
			<point x="319" y="-190" type="line"/>
			<point x="319" y="-134" type="line"/>
			<point x="289" y="-134" type="line" smooth="yes"/>
			<point x="234" y="-134"/>
			<point x="204" y="-104"/>
			<point x="204" y="-50" type="curve" smooth="yes"/>
			<point x="204" y="121" type="line" smooth="yes"/>
			<point x="204" y="208"/>
			<point x="112" y="277"/>
		</contour>
	</outline>
</glyph>
<glyph name="bar" format="2">
	<advance width="174"/>
	<unicode hex="007C"/>
	<outline>
		<contour>
			<point x="50" y="680" type="line"/>
			<point x="50" y="-200" type="line"/>
			<point x="124" y="-200" type="line"/>
			<point x="124" y="680" type="line"/>
		</contour>
	</outline>
</glyph>
<glyph name="braceright" format="2">
	<advance width="339"/>
	<unicode hex="007D"/>
	<outline>
		<contour>
			<point x="289" y="211" type="curve"/>
			<point x="289" y="277" type="line"/>
			<point x="244" y="277"/>
			<point x="205" y="309"/>
			<point x="205" y="367" type="curve" smooth="yes"/>
			<point x="205" y="538" type="line" smooth="yes"/>
			<point x="205" y="628"/>
			<point x="149" y="678"/>
			<point x="50" y="678" type="curve" smooth="yes"/>
			<point x="20" y="678" type="line"/>
			<point x="20" y="622" type="line"/>
			<point x="50" y="622" type="line" smooth="yes"/>
			<point x="105" y="622"/>
			<point x="135" y="592"/>
			<point x="135" y="538" type="curve" smooth="yes"/>
			<point x="135" y="367" type="line" smooth="yes"/>
			<point x="135" y="280"/>
			<point x="237" y="211"/>
		</contour>
		<contour>
			<point x="289" y="211" type="curve"/>
			<point x="289" y="277" type="line"/>
			<point x="244" y="277"/>
			<point x="205" y="309"/>
			<point x="205" y="367" type="curve" smooth="yes"/>
			<point x="205" y="538" type="line" smooth="yes"/>
			<point x="205" y="628"/>
			<point x="149" y="678"/>
			<point x="50" y="678" type="curve" smooth="yes"/>
			<point x="20" y="678" type="line"/>
			<point x="20" y="622" type="line"/>
			<point x="50" y="622" type="line" smooth="yes"/>
			<point x="105" y="622"/>
			<point x="135" y="592"/>
			<point x="135" y="538" type="curve" smooth="yes"/>
			<point x="135" y="367" type="line" smooth="yes"/>
			<point x="135" y="280"/>
			<point x="227" y="211"/>
		</contour>
		<contour>
			<point x="289" y="211" type="curve"/>
			<point x="289" y="277" type="line"/>
			<point x="237" y="277"/>
			<point x="135" y="208"/>
			<point x="135" y="121" type="curve" smooth="yes"/>
			<point x="135" y="-50" type="line" smooth="yes"/>
			<point x="135" y="-104"/>
			<point x="105" y="-134"/>
			<point x="50" y="-134" type="curve" smooth="yes"/>
			<point x="20" y="-134" type="line"/>
			<point x="20" y="-190" type="line"/>
			<point x="50" y="-190" type="line" smooth="yes"/>
			<point x="149" y="-190"/>
			<point x="205" y="-140"/>
			<point x="205" y="-50" type="curve" smooth="yes"/>
			<point x="205" y="121" type="line" smooth="yes"/>
			<point x="205" y="179"/>
			<point x="244" y="211"/>
		</contour>
		<contour>
			<point x="289" y="211" type="curve"/>
			<point x="289" y="277" type="line"/>
			<point x="227" y="277"/>
			<point x="135" y="208"/>
			<point x="135" y="121" type="curve" smooth="yes"/>
			<point x="135" y="-50" type="line" smooth="yes"/>
			<point x="135" y="-104"/>
			<point x="105" y="-134"/>
			<point x="50" y="-134" type="curve" smooth="yes"/>
			<point x="20" y="-134" type="line"/>
			<point x="20" y="-190" type="line"/>
			<point x="50" y="-190" type="line" smooth="yes"/>
			<point x="149" y="-190"/>
			<point x="205" y="-140"/>
			<point x="205" y="-50" type="curve" smooth="yes"/>
			<point x="205" y="121" type="line" smooth="yes"/>
			<point x="205" y="179"/>
			<point x="244" y="211"/>
		</contour>
	</outline>
</glyph>
<glyph name="asciitilde" format="2">
	<advance width="507"/>
	<unicode hex="007E"/>
	<outline>
		<contour>
			<point x="477" y="305" type="curve"/>
			<point x="428" y="328" type="line"/>
			<point x="420" y="286"/>
			<point x="389" y="257"/>
			<point x="353" y="257" type="curve" smooth="yes"/>
			<point x="293" y="257"/>
			<point x="243" y="339"/>
			<point x="157" y="339" type="curve" smooth="yes"/>
			<point x="94" y="339"/>
			<point x="45" y="295"/>
			<point x="30" y="224" type="curve"/>
			<point x="79" y="201" type="line"/>
			<point x="87" y="243"/>
			<point x="118" y="272"/>
			<point x="154" y="272" type="curve" smooth="yes"/>
			<point x="214" y="272"/>
			<point x="264" y="190"/>
			<point x="350" y="190" type="curve" smooth="yes"/>
			<point x="413" y="190"/>
			<point x="462" y="234"/>
		</contour>
	</outline>
</glyph>
<glyph name="cent" format="2">
	<advance width="493"/>
	<unicode hex="00A2"/>
	<outline>
		<component base="c" yOffset="86"/>
		<contour>
			<point x="220" y="549" type="line"/>
			<point x="294" y="549" type="line"/>
			<point x="294" y="680" type="line"/>
			<point x="220" y="680" type="line"/>
		</contour>
		<contour>
			<point x="228" y="113" type="line"/>
			<point x="286" y="113" type="line"/>
			<point x="286" y="549" type="line"/>
			<point x="228" y="549" type="line"/>
		</contour>
		<contour>
			<point x="294" y="113" type="line"/>
			<point x="220" y="113" type="line"/>
			<point x="220" y="0" type="line"/>
			<point x="294" y="0" type="line"/>
		</contour>
	</outline>
</glyph>
<glyph name="sterling" format="2">
	<advance width="582"/>
	<unicode hex="00A3"/>
	<outline>
		<contour>
			<point x="552" y="72" type="line"/>
			<point x="208" y="72" type="line"/>
			<point x="254" y="107"/>
			<point x="274" y="163"/>
			<point x="274" y="223" type="curve" smooth="yes"/>
			<point x="274" y="339"/>
			<point x="197" y="399"/>
			<point x="197" y="483" type="curve" smooth="yes"/>
			<point x="197" y="613"/>
			<point x="382" y="659"/>
			<point x="518" y="564" type="curve"/>
			<point x="518" y="655" type="line"/>
			<point x="345" y="739"/>
			<point x="107" y="660"/>
			<point x="107" y="475" type="curve" smooth="yes"/>
			<point x="107" y="369"/>
			<point x="184" y="333"/>
			<point x="184" y="223" type="curve" smooth="yes"/>
			<point x="184" y="141"/>
			<point x="141" y="104"/>
			<point x="94" y="78" type="curve"/>
			<point x="94" y="0" type="line"/>
			<point x="552" y="0" type="line"/>
		</contour>
		<contour>
			<point x="50" y="277" type="line"/>
			<point x="476" y="277" type="line"/>
			<point x="476" y="345" type="line"/>
			<point x="50" y="345" type="line"/>
		</contour>
	</outline>
</glyph>
<glyph name="currency" format="2">
	<advance width="445"/>
	<unicode hex="00A4"/>
	<outline>
		<contour>
			<point x="223" y="180" type="curve" smooth="yes"/>
			<point x="310" y="180"/>
			<point x="382" y="252"/>
			<point x="382" y="339" type="curve" smooth="yes"/>
			<point x="382" y="426"/>
			<point x="310" y="498"/>
			<point x="223" y="498" type="curve" smooth="yes"/>
			<point x="136" y="498"/>
			<point x="64" y="426"/>
			<point x="64" y="339" type="curve" smooth="yes"/>
			<point x="64" y="252"/>
			<point x="136" y="180"/>
		</contour>
		<contour>
			<point x="223" y="237" type="curve" smooth="yes"/>
			<point x="165" y="237"/>
			<point x="121" y="281"/>
			<point x="121" y="339" type="curve" smooth="yes"/>
			<point x="121" y="397"/>
			<point x="165" y="441"/>
			<point x="223" y="441" type="curve" smooth="yes"/>
			<point x="281" y="441"/>
			<point x="325" y="397"/>
			<point x="325" y="339" type="curve" smooth="yes"/>
			<point x="325" y="281"/>
			<point x="281" y="237"/>
		</contour>
		<contour>
			<point x="302" y="453" type="line"/>
			<point x="336" y="417" type="line"/>
			<point x="421" y="502" type="line"/>
			<point x="386" y="537" type="line"/>
		</contour>
		<contour>
			<point x="113" y="414" type="line"/>
			<point x="149" y="449" type="line"/>
			<point x="60" y="538" type="line"/>
			<point x="25" y="503" type="line"/>
		</contour>
		<contour>
			<point x="328" y="269" type="line"/>
			<point x="296" y="231" type="line"/>
			<point x="385" y="141" type="line"/>
			<point x="421" y="176" type="line"/>
		</contour>
		<contour>
			<point x="148" y="230" type="line"/>
			<point x="114" y="265" type="line"/>
			<point x="24" y="176" type="line"/>
			<point x="59" y="141" type="line"/>
		</contour>
	</outline>
</glyph>
<glyph name="yen" format="2">
	<advance width="636"/>
	<unicode hex="00A5"/>
	<outline>
		<component base="Y"/>
		<contour>
			<point x="112" y="117" type="line"/>
			<point x="495" y="117" type="line"/>
			<point x="495" y="179" type="line"/>
			<point x="112" y="179" type="line"/>
		</contour>
		<contour>
			<point x="112" y="265" type="line"/>
			<point x="495" y="265" type="line"/>
			<point x="495" y="327" type="line"/>
			<point x="112" y="327" type="line"/>
		</contour>
	</outline>
</glyph>
<glyph name="brokenbar" format="2">
	<advance width="174"/>
	<unicode hex="00A6"/>
	<outline>
		<contour>
			<point x="50" y="680" type="line"/>
			<point x="50" y="338" type="line"/>
			<point x="124" y="338" type="line"/>
			<point x="124" y="680" type="line"/>
		</contour>
		<contour>
			<point x="124" y="142" type="line"/>
			<point x="50" y="142" type="line"/>
			<point x="50" y="-200" type="line"/>
			<point x="124" y="-200" type="line"/>
		</contour>
	</outline>
</glyph>
<glyph name="section" format="2">
	<advance width="428"/>
	<unicode hex="00A7"/>
	<outline>
		<contour>
			<point x="30" y="298" type="curve" smooth="yes"/>
			<point x="30" y="102"/>
			<point x="326" y="171"/>
			<point x="326" y="34" type="curve" smooth="yes"/>
			<point x="326" y="-27"/>
			<point x="278" y="-55"/>
			<point x="221" y="-55" type="curve" smooth="yes"/>
			<point x="155" y="-55"/>
			<point x="110" y="-15"/>
			<point x="110" y="38" type="curve"/>
			<point x="37" y="38" type="line"/>
			<point x="37" y="-54"/>
			<point x="104" y="-114"/>
			<point x="220" y="-114" type="curve" smooth="yes"/>
			<point x="323" y="-114"/>
			<point x="398" y="-67"/>
			<point x="398" y="36" type="curve" smooth="yes"/>
			<point x="398" y="110"/>
			<point x="357" y="146"/>
			<point x="306" y="170" type="curve"/>
			<point x="362" y="180"/>
			<point x="398" y="212"/>
			<point x="398" y="283" type="curve" smooth="yes"/>
			<point x="398" y="479"/>
			<point x="102" y="410"/>
			<point x="102" y="547" type="curve" smooth="yes"/>
			<point x="102" y="608"/>
			<point x="150" y="636"/>
			<point x="207" y="636" type="curve" smooth="yes"/>
			<point x="273" y="636"/>
			<point x="318" y="596"/>
			<point x="318" y="543" type="curve"/>
			<point x="391" y="543" type="line"/>
			<point x="391" y="635"/>
			<point x="324" y="695"/>
			<point x="208" y="695" type="curve" smooth="yes"/>
			<point x="105" y="695"/>
			<point x="30" y="648"/>
			<point x="30" y="545" type="curve" smooth="yes"/>
			<point x="30" y="471"/>
			<point x="71" y="435"/>
			<point x="122" y="411" type="curve"/>
			<point x="66" y="401"/>
			<point x="30" y="369"/>
		</contour>
		<contour>
			<point x="101" y="301" type="curve" smooth="yes"/>
			<point x="101" y="364"/>
			<point x="154" y="393"/>
			<point x="207" y="381" type="curve" smooth="yes"/>
			<point x="272" y="366"/>
			<point x="327" y="340"/>
			<point x="327" y="280" type="curve" smooth="yes"/>
			<point x="327" y="217"/>
			<point x="274" y="188"/>
			<point x="221" y="200" type="curve" smooth="yes"/>
			<point x="156" y="215"/>
			<point x="101" y="241"/>
		</contour>
	</outline>
</glyph>
<glyph name="copyright" format="2">
	<advance width="770"/>
	<unicode hex="00A9"/>
	<outline>
		<contour>
			<point x="385" y="-28" type="curve" smooth="yes"/>
			<point x="580" y="-28"/>
			<point x="740" y="132"/>
			<point x="740" y="327" type="curve" smooth="yes"/>
			<point x="740" y="522"/>
			<point x="580" y="682"/>
			<point x="385" y="682" type="curve" smooth="yes"/>
			<point x="190" y="682"/>
			<point x="30" y="522"/>
			<point x="30" y="327" type="curve" smooth="yes"/>
			<point x="30" y="132"/>
			<point x="190" y="-28"/>
		</contour>
		<contour>
			<point x="385" y="30" type="curve" smooth="yes"/>
			<point x="219" y="30"/>
			<point x="88" y="161"/>
			<point x="88" y="327" type="curve" smooth="yes"/>
			<point x="88" y="493"/>
			<point x="219" y="624"/>
			<point x="385" y="624" type="curve" smooth="yes"/>
			<point x="551" y="624"/>
			<point x="682" y="493"/>
			<point x="682" y="327" type="curve"/>
			<point x="682" y="161"/>
			<point x="551" y="30"/>
		</contour>
		<contour>
			<point x="560" y="246" type="curve"/>
			<point x="488" y="246" type="line"/>
			<point x="476" y="202"/>
			<point x="437" y="170"/>
			<point x="385" y="170" type="curve" smooth="yes"/>
			<point x="308" y="170"/>
			<point x="271" y="231"/>
			<point x="271" y="327" type="curve" smooth="yes"/>
			<point x="271" y="422"/>
			<point x="308" y="483"/>
			<point x="385" y="483" type="curve" smooth="yes"/>
			<point x="438" y="483"/>
			<point x="476" y="451"/>
			<point x="488" y="407" type="curve"/>
			<point x="560" y="407" type="line"/>
			<point x="544" y="496"/>
			<point x="478" y="541"/>
			<point x="386" y="541" type="curve" smooth="yes"/>
			<point x="265" y="541"/>
			<point x="201" y="463"/>
			<point x="201" y="327" type="curve" smooth="yes"/>
			<point x="201" y="190"/>
			<point x="265" y="112"/>
			<point x="386" y="112" type="curve" smooth="yes"/>
			<point x="478" y="112"/>
			<point x="543" y="157"/>
		</contour>
	</outline>
</glyph>
<glyph name="guillemotleft" format="2">
	<advance width="521"/>
	<unicode hex="00AB"/>
	<outline>
		<contour>
			<point x="214" y="250" type="line"/>
			<point x="386" y="55" type="line"/>
			<point x="471" y="55" type="line"/>
			<point x="300" y="250" type="line"/>
			<point x="471" y="445" type="line"/>
			<point x="386" y="445" type="line"/>
		</contour>
		<contour>
			<point x="30" y="250" type="line"/>
			<point x="202" y="55" type="line"/>
			<point x="287" y="55" type="line"/>
			<point x="116" y="250" type="line"/>
			<point x="287" y="445" type="line"/>
			<point x="202" y="445" type="line"/>
		</contour>
	</outline>
</glyph>
<glyph name="logicalnot" format="2">
	<advance width="600"/>
	<unicode hex="00AC"/>
	<outline>
		<contour>
			<point x="81" y="279" type="line"/>
			<point x="519" y="279" type="line"/>
			<point x="519" y="351" type="line"/>
			<point x="81" y="351" type="line"/>
		</contour>
		<contour>
			<point x="437" y="282" type="line"/>
			<point x="437" y="131" type="line"/>
			<point x="519" y="131" type="line"/>
			<point x="519" y="282" type="line"/>
		</contour>
	</outline>
</glyph>
<glyph name="registered" format="2">
	<advance width="456"/>
	<unicode hex="00AE"/>
	<outline>
		<contour>
			<point x="228" y="280" type="curve" smooth="yes"/>
			<point x="342" y="280"/>
			<point x="436" y="374"/>
			<point x="436" y="488" type="curve" smooth="yes"/>
			<point x="436" y="602"/>
			<point x="342" y="696"/>
			<point x="228" y="696" type="curve" smooth="yes"/>
			<point x="114" y="696"/>
			<point x="20" y="602"/>
			<point x="20" y="488" type="curve" smooth="yes"/>
			<point x="20" y="374"/>
			<point x="114" y="280"/>
		</contour>
		<contour>
			<point x="228" y="320" type="curve" smooth="yes"/>
			<point x="134" y="320"/>
			<point x="60" y="394"/>
			<point x="60" y="488" type="curve" smooth="yes"/>
			<point x="60" y="582"/>
			<point x="134" y="656"/>
			<point x="228" y="656" type="curve" smooth="yes"/>
			<point x="322" y="656"/>
			<point x="396" y="582"/>
			<point x="396" y="488" type="curve" smooth="yes"/>
			<point x="396" y="394"/>
			<point x="322" y="320"/>
		</contour>
		<contour>
			<point x="230" y="476" type="line"/>
			<point x="284" y="381" type="line"/>
			<point x="322" y="381" type="line"/>
			<point x="267" y="476" type="line"/>
		</contour>
		<contour>
			<point x="186" y="570" type="line"/>
			<point x="244" y="570" type="line" smooth="yes"/>
			<point x="267" y="570"/>
			<point x="281" y="551"/>
			<point x="281" y="531" type="curve" smooth="yes"/>
			<point x="281" y="511"/>
			<point x="267" y="493"/>
			<point x="244" y="493" type="curve" smooth="yes"/>
			<point x="186" y="493" type="line"/>
		</contour>
		<contour>
			<point x="186" y="463" type="line"/>
			<point x="244" y="463" type="line" smooth="yes"/>
			<point x="290" y="463"/>
			<point x="318" y="492"/>
			<point x="318" y="531" type="curve" smooth="yes"/>
			<point x="318" y="568"/>
			<point x="290" y="599"/>
			<point x="244" y="599" type="curve" smooth="yes"/>
			<point x="150" y="599" type="line"/>
			<point x="150" y="381" type="line"/>
			<point x="186" y="381" type="line"/>
		</contour>
	</outline>
</glyph>
<glyph name="degree" format="2">
	<advance width="216"/>
	<unicode hex="00B0"/>
	<outline>
		<contour>
			<point x="108" y="500" type="curve" smooth="yes"/>
			<point x="162" y="500"/>
			<point x="206" y="544"/>
			<point x="206" y="598" type="curve" smooth="yes"/>
			<point x="206" y="652"/>
			<point x="162" y="696"/>
			<point x="108" y="696" type="curve" smooth="yes"/>
			<point x="54" y="696"/>
			<point x="10" y="652"/>
			<point x="10" y="598" type="curve" smooth="yes"/>
			<point x="10" y="544"/>
			<point x="54" y="500"/>
		</contour>
		<contour>
			<point x="108" y="542" type="curve" smooth="yes"/>
			<point x="77" y="542"/>
			<point x="52" y="567"/>
			<point x="52" y="598" type="curve" smooth="yes"/>
			<point x="52" y="629"/>
			<point x="77" y="654"/>
			<point x="108" y="654" type="curve" smooth="yes"/>
			<point x="139" y="654"/>
			<point x="164" y="629"/>
			<point x="164" y="598" type="curve" smooth="yes"/>
			<point x="164" y="567"/>
			<point x="139" y="542"/>
		</contour>
	</outline>
</glyph>
<glyph name="plusminus" format="2">
	<advance width="550"/>
	<unicode hex="00B1"/>
	<outline>
		<contour>
			<point x="50" y="240" type="line"/>
			<point x="500" y="240" type="line"/>
			<point x="500" y="318" type="line"/>
			<point x="50" y="318" type="line"/>
		</contour>
		<contour>
			<point x="313" y="64" type="line"/>
			<point x="313" y="494" type="line"/>
			<point x="237" y="494" type="line"/>
			<point x="237" y="64" type="line"/>
		</contour>
		<contour>
			<point x="50" y="-64" type="line"/>
			<point x="500" y="-64" type="line"/>
			<point x="500" y="4" type="line"/>
			<point x="50" y="4" type="line"/>
		</contour>
	</outline>
</glyph>
<glyph name="paragraph" format="2">
	<advance width="531"/>
	<unicode hex="00B6"/>
	<outline>
		<contour>
			<point x="402" y="680" type="line"/>
			<point x="402" y="-140" type="line"/>
			<point x="476" y="-140" type="line"/>
			<point x="476" y="680" type="line"/>
		</contour>
		<contour>
			<point x="261" y="680" type="line"/>
			<point x="261" y="-140" type="line"/>
			<point x="335" y="-140" type="line"/>
			<point x="335" y="680" type="line"/>
		</contour>
		<contour>
			<point x="252" y="286" type="curve" smooth="yes"/>
			<point x="275" y="286" type="line"/>
			<point x="275" y="680" type="line"/>
			<point x="252" y="680" type="line" smooth="yes"/>
			<point x="143" y="680"/>
			<point x="55" y="591"/>
			<point x="55" y="483" type="curve" smooth="yes"/>
			<point x="55" y="374"/>
			<point x="143" y="286"/>
		</contour>
	</outline>
</glyph>
<glyph name="guillemotright" format="2">
	<advance width="521"/>
	<unicode hex="00BB"/>
	<outline>
		<contour>
			<point x="307" y="250" type="line"/>
			<point x="135" y="445" type="line"/>
			<point x="50" y="445" type="line"/>
			<point x="221" y="250" type="line"/>
			<point x="50" y="55" type="line"/>
			<point x="135" y="55" type="line"/>
		</contour>
		<contour>
			<point x="491" y="250" type="line"/>
			<point x="319" y="445" type="line"/>
			<point x="234" y="445" type="line"/>
			<point x="405" y="250" type="line"/>
			<point x="234" y="55" type="line"/>
			<point x="319" y="55" type="line"/>
		</contour>
	</outline>
</glyph>
<glyph name="questiondown" format="2">
	<advance width="482"/>
	<unicode hex="00BF"/>
	<outline>
		<contour>
			<point x="265" y="392" type="curve" smooth="yes"/>
			<point x="299" y="392"/>
			<point x="314" y="408"/>
			<point x="314" y="441" type="curve" smooth="yes"/>
			<point x="314" y="475"/>
			<point x="298" y="490"/>
			<point x="265" y="490" type="curve" smooth="yes"/>
			<point x="231" y="490"/>
			<point x="216" y="474"/>
			<point x="216" y="441" type="curve" smooth="yes"/>
			<point x="216" y="407"/>
			<point x="232" y="392"/>
		</contour>
		<contour>
			<point x="251" y="-210" type="curve" smooth="yes"/>
			<point x="341" y="-210"/>
			<point x="419" y="-167"/>
			<point x="462" y="-72" type="curve"/>
			<point x="394" y="-34" type="line"/>
			<point x="364" y="-103"/>
			<point x="313" y="-137"/>
			<point x="251" y="-137" type="curve" smooth="yes"/>
			<point x="176" y="-137"/>
			<point x="124" y="-87"/>
			<point x="124" y="-26" type="curve" smooth="yes"/>
			<point x="124" y="107"/>
			<point x="301" y="84"/>
			<point x="301" y="241" type="curve" smooth="yes"/>
			<point x="301" y="289" type="line"/>
			<point x="229" y="289" type="line"/>
			<point x="229" y="254" type="line" smooth="yes"/>
			<point x="229" y="121"/>
			<point x="37" y="137"/>
			<point x="37" y="-30" type="curve" smooth="yes"/>
			<point x="37" y="-131"/>
			<point x="127" y="-210"/>
		</contour>
	</outline>
</glyph>
<glyph name="AE" format="2">
	<advance width="959"/>
	<unicode hex="00C6"/>
	<outline>
		<contour>
			<point x="35" y="0" type="line"/>
			<point x="128" y="0" type="line"/>
			<point x="461" y="680" type="line"/>
			<point x="379" y="680" type="line"/>
		</contour>
		<contour>
			<point x="169" y="187" type="line"/>
			<point x="528" y="187" type="line"/>
			<point x="528" y="259" type="line"/>
			<point x="169" y="259" type="line"/>
		</contour>
		<contour>
			<point x="468" y="680" type="line"/>
			<point x="468" y="0" type="line"/>
			<point x="553" y="0" type="line"/>
			<point x="553" y="680" type="line"/>
		</contour>
		<contour>
			<point x="509" y="0" type="line"/>
			<point x="921" y="0" type="line"/>
			<point x="921" y="72" type="line"/>
			<point x="509" y="72" type="line"/>
		</contour>
		<contour>
			<point x="408" y="608" type="line"/>
			<point x="921" y="608" type="line"/>
			<point x="921" y="680" type="line"/>
			<point x="408" y="680" type="line"/>
		</contour>
		<contour>
			<point x="509" y="304" type="line"/>
			<point x="861" y="304" type="line"/>
			<point x="861" y="376" type="line"/>
			<point x="509" y="376" type="line"/>
		</contour>
	</outline>
</glyph>
<glyph name="Eth" format="2">
	<advance width="704"/>
	<unicode hex="00D0"/>
	<outline>
		<component base="D" xOffset="45"/>
		<contour>
			<point x="20" y="304" type="line"/>
			<point x="265" y="304" type="line"/>
			<point x="265" y="376" type="line"/>
			<point x="20" y="376" type="line"/>
		</contour>
	</outline>
</glyph>
<glyph name="multiply" format="2">
	<advance width="550"/>
	<unicode hex="00D7"/>
	<outline>
		<contour>
			<point x="77" y="414" type="line"/>
			<point x="423" y="67" type="line"/>
			<point x="473" y="117" type="line"/>
			<point x="126" y="463" type="line"/>
		</contour>
		<contour>
			<point x="126" y="67" type="line"/>
			<point x="473" y="414" type="line"/>
			<point x="423" y="463" type="line"/>
			<point x="77" y="117" type="line"/>
		</contour>
	</outline>
</glyph>
<glyph name="Oslash" format="2">
	<advance width="696"/>
	<unicode hex="00D8"/>
	<outline>
		<component base="O"/>
		<contour>
			<point x="613" y="732" type="line"/>
			<point x="27" y="-7" type="line"/>
			<point x="83" y="-52" type="line"/>
			<point x="669" y="687" type="line"/>
		</contour>
	</outline>
</glyph>
<glyph name="Thorn" format="2">
	<advance width="593"/>
	<unicode hex="00DE"/>
	<outline>
		<contour>
			<point x="140" y="478" type="line"/>
			<point x="322" y="478" type="line" smooth="yes"/>
			<point x="406" y="478"/>
			<point x="462" y="415"/>
			<point x="462" y="339" type="curve" smooth="yes"/>
			<point x="462" y="263"/>
			<point x="406" y="203"/>
			<point x="322" y="203" type="curve" smooth="yes"/>
			<point x="140" y="203" type="line"/>
		</contour>
		<contour>
			<point x="55" y="128" type="line"/>
			<point x="322" y="128" type="line"/>
			<point x="465" y="128"/>
			<point x="552" y="220"/>
			<point x="552" y="339" type="curve" smooth="yes"/>
			<point x="552" y="458"/>
			<point x="465" y="553"/>
			<point x="322" y="553" type="curve" smooth="yes"/>
			<point x="55" y="553" type="line"/>
		</contour>
		<contour>
			<point x="55" y="680" type="line"/>
			<point x="55" y="0" type="line"/>
			<point x="140" y="0" type="line"/>
			<point x="140" y="680" type="line"/>
		</contour>
	</outline>
</glyph>
<glyph name="germandbls" format="2">
	<advance width="515"/>
	<unicode hex="00DF"/>
	<outline>
		<contour>
			<point x="203" y="0" type="line"/>
			<point x="264" y="0" type="line" smooth="yes"/>
			<point x="421" y="0"/>
			<point x="495" y="106"/>
			<point x="495" y="198" type="curve" smooth="yes"/>
			<point x="495" y="287"/>
			<point x="425" y="357"/>
			<point x="349" y="372" type="curve"/>
			<point x="419" y="385"/>
			<point x="455" y="448"/>
			<point x="455" y="519" type="curve" smooth="yes"/>
			<point x="455" y="611"/>
			<point x="394" y="710"/>
			<point x="250" y="710" type="curve" smooth="yes"/>
			<point x="103" y="710"/>
			<point x="50" y="606"/>
			<point x="50" y="525" type="curve" smooth="yes"/>
			<point x="50" y="2" type="line"/>
			<point x="132" y="2" type="line"/>
			<point x="132" y="525" type="line" smooth="yes"/>
			<point x="132" y="582"/>
			<point x="165" y="640"/>
			<point x="248" y="640" type="curve" smooth="yes"/>
			<point x="340" y="640"/>
			<point x="369" y="569"/>
			<point x="369" y="514" type="curve" smooth="yes"/>
			<point x="369" y="452"/>
			<point x="331" y="410"/>
			<point x="243" y="410" type="curve"/>
			<point x="243" y="340" type="line"/>
			<point x="346" y="340"/>
			<point x="409" y="272"/>
			<point x="409" y="196" type="curve" smooth="yes"/>
			<point x="409" y="139"/>
			<point x="374" y="70"/>
			<point x="264" y="70" type="curve" smooth="yes"/>
			<point x="203" y="70" type="line"/>
		</contour>
	</outline>
</glyph>
<glyph name="ae" format="2">
	<advance width="846"/>
	<unicode hex="00E6"/>
	<outline>
		<contour>
			<point x="600" y="-10" type="curve" smooth="yes"/>
			<point x="709" y="-10"/>
			<point x="786" y="41"/>
			<point x="815" y="138" type="curve"/>
			<point x="728" y="138" type="line"/>
			<point x="706" y="88"/>
			<point x="656" y="60"/>
			<point x="598" y="60" type="curve" smooth="yes"/>
			<point x="516" y="60"/>
			<point x="465" y="118"/>
			<point x="458" y="224" type="curve"/>
			<point x="821" y="224" type="line"/>
			<point x="821" y="262" type="line" smooth="yes"/>
			<point x="821" y="444"/>
			<point x="720" y="510"/>
			<point x="603" y="510" type="curve" smooth="yes"/>
			<point x="498" y="510"/>
			<point x="453" y="457"/>
			<point x="422" y="404" type="curve"/>
			<point x="396" y="460"/>
			<point x="346" y="508"/>
			<point x="253" y="508" type="curve" smooth="yes"/>
			<point x="160" y="508"/>
			<point x="57" y="460"/>
			<point x="56" y="348" type="curve"/>
			<point x="137" y="348" type="line"/>
			<point x="137" y="393"/>
			<point x="178" y="438"/>
			<point x="248" y="438" type="curve" smooth="yes"/>
			<point x="317" y="438"/>
			<point x="370" y="395"/>
			<point x="370" y="329" type="curve" smooth="yes"/>
			<point x="370" y="288" type="line"/>
			<point x="207" y="289" type="line" smooth="yes"/>
			<point x="112" y="290"/>
			<point x="38" y="232"/>
			<point x="38" y="144" type="curve" smooth="yes"/>
			<point x="38" y="49"/>
			<point x="118" y="-10"/>
			<point x="210" y="-10" type="curve" smooth="yes"/>
			<point x="298" y="-10"/>
			<point x="374" y="43"/>
			<point x="403" y="100" type="curve"/>
			<point x="438" y="29"/>
			<point x="504" y="-10"/>
		</contour>
		<contour>
			<point x="127" y="145" type="curve" smooth="yes"/>
			<point x="127" y="197"/>
			<point x="164" y="222"/>
			<point x="231" y="222" type="curve" smooth="yes"/>
			<point x="370" y="222" type="line"/>
			<point x="370" y="173" type="line" smooth="yes"/>
			<point x="370" y="102"/>
			<point x="292" y="60"/>
			<point x="224" y="60" type="curve" smooth="yes"/>
			<point x="163" y="60"/>
			<point x="127" y="94"/>
		</contour>
		<contour>
			<point x="734" y="292" type="curve"/>
			<point x="459" y="292" type="line"/>
			<point x="470" y="384"/>
			<point x="518" y="440"/>
			<point x="598" y="440" type="curve" smooth="yes"/>
			<point x="677" y="440"/>
			<point x="734" y="386"/>
		</contour>
	</outline>
</glyph>
<glyph name="eth" format="2">
	<advance width="542"/>
	<unicode hex="00F0"/>
	<outline>
		<contour>
			<point x="263" y="368" type="curve" smooth="yes"/>
			<point x="353" y="368"/>
			<point x="404" y="320"/>
			<point x="404" y="221" type="curve" smooth="yes"/>
			<point x="404" y="123"/>
			<point x="353" y="62"/>
			<point x="263" y="62" type="curve" smooth="yes"/>
			<point x="172" y="62"/>
			<point x="118" y="125"/>
			<point x="118" y="221" type="curve" smooth="yes"/>
			<point x="118" y="318"/>
			<point x="172" y="368"/>
		</contour>
		<contour>
			<point x="31" y="217" type="curve" smooth="yes"/>
			<point x="31" y="87"/>
			<point x="114" y="-11"/>
			<point x="258" y="-11" type="curve" smooth="yes"/>
			<point x="412" y="-11"/>
			<point x="506" y="101"/>
			<point x="506" y="291" type="curve" smooth="yes"/>
			<point x="506" y="510"/>
			<point x="371" y="633"/>
			<point x="238" y="700" type="curve"/>
			<point x="116" y="700" type="line"/>
			<point x="244" y="645"/>
			<point x="402" y="524"/>
			<point x="412" y="353" type="curve"/>
			<point x="387" y="408"/>
			<point x="345" y="441"/>
			<point x="259" y="441" type="curve" smooth="yes"/>
			<point x="111" y="441"/>
			<point x="31" y="345"/>
		</contour>
		<contour>
			<point x="167" y="578" type="line"/>
			<point x="167" y="511" type="line"/>
			<point x="472" y="607" type="line"/>
			<point x="472" y="675" type="line"/>
		</contour>
	</outline>
</glyph>
<glyph name="divide" format="2">
	<advance width="550"/>
	<unicode hex="00F7"/>
	<outline>
		<contour>
			<point x="57" y="232" type="line"/>
			<point x="493" y="232" type="line"/>
			<point x="493" y="302" type="line"/>
			<point x="57" y="302" type="line"/>
		</contour>
		<contour>
			<point x="275" y="49" type="curve" smooth="yes"/>
			<point x="308" y="49"/>
			<point x="323" y="64"/>
			<point x="323" y="97" type="curve" smooth="yes"/>
			<point x="323" y="130"/>
			<point x="309" y="145"/>
			<point x="275" y="145" type="curve" smooth="yes"/>
			<point x="242" y="145"/>
			<point x="227" y="131"/>
			<point x="227" y="97" type="curve" smooth="yes"/>
			<point x="227" y="64"/>
			<point x="241" y="49"/>
		</contour>
		<contour>
			<point x="275" y="389" type="curve" smooth="yes"/>
			<point x="308" y="389"/>
			<point x="323" y="404"/>
			<point x="323" y="437" type="curve" smooth="yes"/>
			<point x="323" y="470"/>
			<point x="309" y="485"/>
			<point x="275" y="485" type="curve" smooth="yes"/>
			<point x="242" y="485"/>
			<point x="227" y="471"/>
			<point x="227" y="437" type="curve" smooth="yes"/>
			<point x="227" y="404"/>
			<point x="241" y="389"/>
		</contour>
	</outline>
</glyph>
<glyph name="oslash" format="2">
	<advance width="526"/>
	<unicode hex="00F8"/>
	<outline>
		<component base="o"/>
		<contour>
			<point x="454" y="548" type="line"/>
			<point x="16" y="-3" type="line"/>
			<point x="72" y="-48" type="line"/>
			<point x="510" y="503" type="line"/>
		</contour>
	</outline>
</glyph>
<glyph name="thorn" format="2">
	<advance width="543"/>
	<unicode hex="00FE"/>
	<outline>
		<contour>
			<point x="50" y="700" type="line"/>
			<point x="132" y="700" type="line"/>
			<point x="132" y="-200" type="line"/>
			<point x="50" y="-200" type="line"/>
		</contour>
		<contour>
			<point x="281" y="60" type="curve" smooth="yes"/>
			<point x="374" y="60"/>
			<point x="426" y="134"/>
			<point x="426" y="250" type="curve" smooth="yes"/>
			<point x="426" y="372"/>
			<point x="371" y="440"/>
			<point x="281" y="440" type="curve" smooth="yes"/>
			<point x="189" y="440"/>
			<point x="135" y="366"/>
			<point x="135" y="250" type="curve" smooth="yes"/>
			<point x="135" y="128"/>
			<point x="192" y="60"/>
		</contour>
		<contour>
			<point x="298" y="-10" type="curve" smooth="yes"/>
			<point x="121" y="-10"/>
			<point x="82" y="182"/>
			<point x="82" y="249" type="curve" smooth="yes"/>
			<point x="82" y="316"/>
			<point x="122" y="510"/>
			<point x="299" y="510" type="curve" smooth="yes"/>
			<point x="424" y="510"/>
			<point x="512" y="412"/>
			<point x="512" y="248" type="curve" smooth="yes"/>
			<point x="512" y="80"/>
			<point x="420" y="-10"/>
		</contour>
	</outline>
</glyph>
<glyph name="dcroat" format="2">
	<advance width="604"/>
	<unicode hex="0111"/>
	<outline>
		<component base="d"/>
		<contour>
			<point x="319" y="549" type="line"/>
			<point x="319" y="613" type="line"/>
			<point x="584" y="613" type="line"/>
			<point x="584" y="549" type="line"/>
		</contour>
	</outline>
</glyph>
<glyph name="Hbar" format="2">
	<advance width="709"/>
	<unicode hex="0126"/>
	<outline>
		<component base="H" xOffset="19"/>
		<contour>
			<point x="20" y="544" type="line"/>
			<point x="689" y="544" type="line"/>
			<point x="689" y="606" type="line"/>
			<point x="20" y="606" type="line"/>
		</contour>
	</outline>
</glyph>
<glyph name="hbar" format="2">
	<advance width="543"/>
	<unicode hex="0127"/>
	<outline>
		<component base="h" xOffset="31"/>
		<contour>
			<point x="20" y="559" type="line"/>
			<point x="285" y="559" type="line"/>
			<point x="285" y="623" type="line"/>
			<point x="20" y="623" type="line"/>
		</contour>
	</outline>
</glyph>
<glyph name="dotlessi" format="2">
	<advance width="182"/>
	<unicode hex="0131"/>
	<anchor x="91" y="0" name="bottom"/>
	<anchor x="112" y="32" name="ogonek"/>
	<anchor x="91" y="500" name="top"/>
	<outline>
		<contour>
			<point x="50" y="500" type="line"/>
			<point x="50" y="0" type="line"/>
			<point x="132" y="0" type="line"/>
			<point x="132" y="500" type="line"/>
		</contour>
	</outline>
</glyph>
<glyph name="IJ" format="2">
	<advance width="535"/>
	<unicode hex="0132"/>
	<outline>
		<contour>
			<point x="55" y="680" type="line"/>
			<point x="55" y="275" type="line"/>
			<point x="140" y="275" type="line"/>
			<point x="140" y="680" type="line"/>
		</contour>
		<contour>
			<point x="265" y="-15" type="curve" smooth="yes"/>
			<point x="389" y="-15"/>
			<point x="480" y="59"/>
			<point x="480" y="229" type="curve" smooth="yes"/>
			<point x="480" y="680" type="line"/>
			<point x="395" y="680" type="line"/>
			<point x="395" y="229" type="line" smooth="yes"/>
			<point x="398" y="110"/>
			<point x="340" y="61"/>
			<point x="265" y="61" type="curve" smooth="yes"/>
			<point x="196" y="61"/>
			<point x="139" y="102"/>
			<point x="139" y="179" type="curve"/>
			<point x="56" y="179" type="line"/>
			<point x="56" y="54"/>
			<point x="146" y="-15"/>
		</contour>
	</outline>
</glyph>
<glyph name="Lslash" format="2">
	<advance width="578"/>
	<unicode hex="0141"/>
	<outline>
		<component base="L" xOffset="60"/>
		<contour>
			<point x="20" y="284" type="line"/>
			<point x="356" y="380" type="line"/>
			<point x="356" y="447" type="line"/>
			<point x="20" y="351" type="line"/>
		</contour>
	</outline>
</glyph>
<glyph name="lslash" format="2">
	<advance width="296"/>
	<unicode hex="0142"/>
	<outline>
		<component base="l" xOffset="57"/>
		<contour>
			<point x="20" y="299" type="line"/>
			<point x="276" y="395" type="line"/>
			<point x="276" y="462" type="line"/>
			<point x="20" y="366" type="line"/>
		</contour>
	</outline>
</glyph>
<glyph name="OE" format="2">
	<advance width="1068"/>
	<unicode hex="0152"/>
	<outline>
		<contour>
			<point x="347" y="61" type="curve" smooth="yes"/>
			<point x="203" y="61"/>
			<point x="126" y="160"/>
			<point x="126" y="340" type="curve" smooth="yes"/>
			<point x="126" y="520"/>
			<point x="203" y="619"/>
			<point x="347" y="619" type="curve" smooth="yes"/>
			<point x="493" y="619"/>
			<point x="570" y="520"/>
			<point x="570" y="340" type="curve" smooth="yes"/>
			<point x="570" y="160"/>
			<point x="493" y="61"/>
		</contour>
		<contour>
			<point x="348" y="-15" type="curve" smooth="yes"/>
			<point x="548" y="-15"/>
			<point x="630" y="115"/>
			<point x="630" y="340" type="curve" smooth="yes"/>
			<point x="630" y="565"/>
			<point x="548" y="695"/>
			<point x="348" y="695" type="curve" smooth="yes"/>
			<point x="148" y="695"/>
			<point x="36" y="565"/>
			<point x="36" y="340" type="curve" smooth="yes"/>
			<point x="36" y="115"/>
			<point x="148" y="-15"/>
		</contour>
		<contour>
			<point x="577" y="680" type="line"/>
			<point x="577" y="0" type="line"/>
			<point x="662" y="0" type="line"/>
			<point x="662" y="680" type="line"/>
		</contour>
		<contour>
			<point x="618" y="0" type="line"/>
			<point x="1030" y="0" type="line"/>
			<point x="1030" y="72" type="line"/>
			<point x="618" y="72" type="line"/>
		</contour>
		<contour>
			<point x="618" y="608" type="line"/>
			<point x="1030" y="608" type="line"/>
			<point x="1030" y="680" type="line"/>
			<point x="618" y="680" type="line"/>
		</contour>
		<contour>
			<point x="618" y="304" type="line"/>
			<point x="970" y="304" type="line"/>
			<point x="970" y="376" type="line"/>
			<point x="618" y="376" type="line"/>
		</contour>
	</outline>
</glyph>
<glyph name="oe" format="2">
	<advance width="884"/>
	<unicode hex="0153"/>
	<outline>
		<contour>
			<point x="262" y="60" type="curve" smooth="yes"/>
			<point x="173" y="60"/>
			<point x="116" y="128"/>
			<point x="116" y="250" type="curve" smooth="yes"/>
			<point x="116" y="366"/>
			<point x="170" y="440"/>
			<point x="262" y="440" type="curve" smooth="yes"/>
			<point x="352" y="440"/>
			<point x="409" y="372"/>
			<point x="409" y="250" type="curve" smooth="yes"/>
			<point x="409" y="134"/>
			<point x="355" y="60"/>
		</contour>
		<contour>
			<point x="264" y="-10" type="curve" smooth="yes"/>
			<point x="409" y="-10"/>
			<point x="495" y="80"/>
			<point x="495" y="248" type="curve" smooth="yes"/>
			<point x="495" y="412"/>
			<point x="413" y="510"/>
			<point x="262" y="510" type="curve" smooth="yes"/>
			<point x="117" y="510"/>
			<point x="31" y="420"/>
			<point x="31" y="252" type="curve" smooth="yes"/>
			<point x="31" y="88"/>
			<point x="113" y="-10"/>
		</contour>
		<contour>
			<point x="460" y="292" type="line"/>
			<point x="460" y="224" type="line"/>
			<point x="859" y="224" type="line"/>
			<point x="859" y="262" type="line"/>
			<point x="825" y="292" type="line"/>
		</contour>
		<contour>
			<point x="772" y="292" type="curve"/>
			<point x="859" y="262" type="line"/>
			<point x="859" y="444"/>
			<point x="759" y="510"/>
			<point x="636" y="510" type="curve" smooth="yes"/>
			<point x="491" y="510"/>
			<point x="410" y="420"/>
			<point x="410" y="252" type="curve" smooth="yes"/>
			<point x="410" y="88"/>
			<point x="487" y="-10"/>
			<point x="638" y="-10" type="curve" smooth="yes"/>
			<point x="747" y="-10"/>
			<point x="824" y="41"/>
			<point x="853" y="138" type="curve"/>
			<point x="766" y="138" type="line"/>
			<point x="744" y="88"/>
			<point x="694" y="60"/>
			<point x="636" y="60" type="curve" smooth="yes"/>
			<point x="547" y="60"/>
			<point x="495" y="128"/>
			<point x="495" y="250" type="curve" smooth="yes"/>
			<point x="495" y="366"/>
			<point x="544" y="440"/>
			<point x="636" y="440" type="curve" smooth="yes"/>
			<point x="715" y="440"/>
			<point x="772" y="386"/>
		</contour>
	</outline>
</glyph>
<glyph name="longs" format="2">
	<advance width="263"/>
	<unicode hex="017F"/>
	<outline>
		<contour>
			<point x="250" y="634" type="curve"/>
			<point x="250" y="701" type="line"/>
			<point x="234" y="709"/>
			<point x="212" y="712"/>
			<point x="190" y="712" type="curve" smooth="yes"/>
			<point x="90" y="712"/>
			<point x="50" y="652"/>
			<point x="50" y="571" type="curve" smooth="yes"/>
			<point x="50" y="0" type="line"/>
			<point x="132" y="0" type="line"/>
			<point x="132" y="561" type="line" smooth="yes"/>
			<point x="132" y="609"/>
			<point x="151" y="642"/>
			<point x="204" y="642" type="curve" smooth="yes"/>
			<point x="220" y="642"/>
			<point x="235" y="639"/>
		</contour>
	</outline>
</glyph>
<glyph name="uni018F" format="2">
	<advance width="696"/>
	<unicode hex="018F"/>
	<outline>
		<contour>
			<point x="70" y="304" type="line"/>
			<point x="607" y="304" type="line"/>
			<point x="607" y="376" type="line"/>
			<point x="70" y="376" type="line"/>
		</contour>
		<contour>
			<point x="137" y="376" type="curve"/>
			<point x="47" y="376" type="line"/>
			<point x="46" y="364"/>
			<point x="46" y="352"/>
			<point x="46" y="340" type="curve" smooth="yes"/>
			<point x="46" y="115"/>
			<point x="148" y="-15"/>
			<point x="343" y="-15" type="curve" smooth="yes"/>
			<point x="548" y="-15"/>
			<point x="660" y="115"/>
			<point x="660" y="340" type="curve" smooth="yes"/>
			<point x="660" y="565"/>
			<point x="548" y="695"/>
			<point x="343" y="695" type="curve" smooth="yes"/>
			<point x="199" y="695"/>
			<point x="109" y="623"/>
			<point x="67" y="493" type="curve"/>
			<point x="161" y="493" type="line"/>
			<point x="195" y="575"/>
			<point x="251" y="619"/>
			<point x="342" y="619" type="curve" smooth="yes"/>
			<point x="493" y="619"/>
			<point x="570" y="520"/>
			<point x="570" y="340" type="curve" smooth="yes"/>
			<point x="570" y="160"/>
			<point x="493" y="61"/>
			<point x="342" y="61" type="curve" smooth="yes"/>
			<point x="203" y="61"/>
			<point x="136" y="160"/>
			<point x="136" y="340" type="curve" smooth="yes"/>
			<point x="136" y="352"/>
			<point x="136" y="364"/>
		</contour>
	</outline>
</glyph>
<glyph name="uni0237" format="2">
	<advance width="173"/>
	<unicode hex="0237"/>
	<anchor x="87" y="-200" name="bottom"/>
	<anchor x="90" y="500" name="top"/>
	<outline>
		<contour>
			<point x="-25" y="-122" type="curve" smooth="yes"/>
			<point x="-31" y="-122" type="line"/>
			<point x="-31" y="-192" type="line"/>
			<point x="-25" y="-192" type="line" smooth="yes"/>
			<point x="98" y="-192"/>
			<point x="131" y="-142"/>
			<point x="131" y="-31" type="curve" smooth="yes"/>
			<point x="131" y="500" type="line"/>
			<point x="49" y="500" type="line"/>
			<point x="49" y="-21" type="line" smooth="yes"/>
			<point x="49" y="-93"/>
			<point x="31" y="-122"/>
		</contour>
	</outline>
</glyph>
<glyph name="uni0259" format="2">
	<advance width="511"/>
	<unicode hex="0259"/>
	<outline>
		<contour>
			<point x="430" y="208" type="line"/>
			<point x="430" y="276" type="line"/>
			<point x="31" y="276" type="line"/>
			<point x="31" y="238" type="line"/>
			<point x="65" y="208" type="line"/>
		</contour>
		<contour>
			<point x="118" y="208" type="curve"/>
			<point x="31" y="238" type="line"/>
			<point x="31" y="56"/>
			<point x="131" y="-10"/>
			<point x="254" y="-10" type="curve" smooth="yes"/>
			<point x="399" y="-10"/>
			<point x="480" y="80"/>
			<point x="480" y="248" type="curve" smooth="yes"/>
			<point x="480" y="412"/>
			<point x="403" y="510"/>
			<point x="252" y="510" type="curve" smooth="yes"/>
			<point x="143" y="510"/>
			<point x="66" y="459"/>
			<point x="37" y="362" type="curve"/>
			<point x="124" y="362" type="line"/>
			<point x="146" y="412"/>
			<point x="196" y="440"/>
			<point x="254" y="440" type="curve" smooth="yes"/>
			<point x="343" y="440"/>
			<point x="395" y="372"/>
			<point x="395" y="250" type="curve" smooth="yes"/>
			<point x="395" y="134"/>
			<point x="346" y="60"/>
			<point x="254" y="60" type="curve" smooth="yes"/>
			<point x="175" y="60"/>
			<point x="118" y="114"/>
		</contour>
	</outline>
</glyph>
<glyph name="gravecomb" format="2">
	<advance width="0"/>
	<unicode hex="0300"/>
	<anchor x="250" y="500" name="_top"/>
	<anchor x="250" y="712" name="top"/>
	<outline>
		<contour>
			<point x="129" y="712" type="line"/>
			<point x="220" y="580" type="line"/>
			<point x="285" y="580" type="line"/>
			<point x="224" y="712" type="line"/>
		</contour>
	</outline>
</glyph>
<glyph name="acutecomb" format="2">
	<advance width="0"/>
	<unicode hex="0301"/>
	<anchor x="250" y="500" name="_top"/>
	<anchor x="250" y="691" name="top"/>
	<outline>
		<contour>
			<point x="373" y="692" type="line"/>
			<point x="278" y="692" type="line"/>
			<point x="217" y="560" type="line"/>
			<point x="282" y="560" type="line"/>
		</contour>
	</outline>
</glyph>
<glyph name="uni0302" format="2">
	<advance width="0"/>
	<unicode hex="0302"/>
	<anchor x="250" y="500" name="_top"/>
	<anchor x="250" y="693" name="top"/>
	<outline>
		<contour>
			<point x="294" y="693" type="line"/>
			<point x="206" y="693" type="line"/>
			<point x="102" y="561" type="line"/>
			<point x="184" y="561" type="line"/>
			<point x="250" y="652" type="line"/>
			<point x="316" y="561" type="line"/>
			<point x="398" y="561" type="line"/>
		</contour>
	</outline>
</glyph>
<glyph name="tildecomb" format="2">
	<advance width="0"/>
	<unicode hex="0303"/>
	<anchor x="1" y="500" name="_top"/>
	<anchor x="1" y="670" name="top"/>
	<outline>
		<contour>
			<point x="158" y="645" type="curve"/>
			<point x="119" y="664" type="line"/>
			<point x="113" y="633"/>
			<point x="91" y="610"/>
			<point x="68" y="610" type="curve" smooth="yes"/>
			<point x="28" y="610"/>
			<point x="-8" y="670"/>
			<point x="-64" y="670" type="curve" smooth="yes"/>
			<point x="-105" y="670"/>
			<point x="-147" y="635"/>
			<point x="-157" y="584" type="curve"/>
			<point x="-118" y="565" type="line"/>
			<point x="-112" y="596"/>
			<point x="-90" y="619"/>
			<point x="-67" y="619" type="curve" smooth="yes"/>
			<point x="-27" y="619"/>
			<point x="9" y="559"/>
			<point x="65" y="559" type="curve" smooth="yes"/>
			<point x="106" y="559"/>
			<point x="148" y="594"/>
		</contour>
	</outline>
</glyph>
<glyph name="uni0304" format="2">
	<advance width="0"/>
	<unicode hex="0304"/>
	<anchor x="250" y="500" name="_top"/>
	<anchor x="250" y="615" name="top"/>
	<outline>
		<contour>
			<point x="105" y="615" type="line"/>
			<point x="105" y="560" type="line"/>
			<point x="395" y="560" type="line"/>
			<point x="395" y="615" type="line"/>
		</contour>
	</outline>
</glyph>
<glyph name="uni0306" format="2">
	<advance width="0"/>
	<unicode hex="0306"/>
	<anchor x="250" y="500" name="_top"/>
	<anchor x="250" y="712" name="top"/>
	<outline>
		<contour>
			<point x="250" y="577" type="curve" smooth="yes"/>
			<point x="335" y="577"/>
			<point x="395" y="638"/>
			<point x="395" y="712" type="curve"/>
			<point x="336" y="712" type="line"/>
			<point x="336" y="659"/>
			<point x="305" y="623"/>
			<point x="250" y="623" type="curve" smooth="yes"/>
			<point x="195" y="623"/>
			<point x="164" y="659"/>
			<point x="164" y="712" type="curve"/>
			<point x="105" y="712" type="line"/>
			<point x="105" y="638"/>
			<point x="165" y="577"/>
		</contour>
	</outline>
</glyph>
<glyph name="uni0307" format="2">
	<advance width="0"/>
	<unicode hex="0307"/>
	<anchor x="250" y="500" name="_top"/>
	<anchor x="250" y="688" name="top"/>
	<outline>
		<contour>
			<point x="250" y="582" type="curve" smooth="yes"/>
			<point x="286" y="582"/>
			<point x="303" y="598"/>
			<point x="303" y="635" type="curve" smooth="yes"/>
			<point x="303" y="671"/>
			<point x="287" y="688"/>
			<point x="250" y="688" type="curve" smooth="yes"/>
			<point x="214" y="688"/>
			<point x="197" y="672"/>
			<point x="197" y="635" type="curve" smooth="yes"/>
			<point x="197" y="599"/>
			<point x="213" y="582"/>
		</contour>
	</outline>
</glyph>
<glyph name="uni0308" format="2">
	<advance width="0"/>
	<unicode hex="0308"/>
	<anchor x="250" y="500" name="_top"/>
	<anchor x="250" y="668" name="top"/>
	<outline>
		<contour>
			<point x="155" y="562" type="curve" smooth="yes"/>
			<point x="191" y="562"/>
			<point x="208" y="578"/>
			<point x="208" y="615" type="curve" smooth="yes"/>
			<point x="208" y="651"/>
			<point x="192" y="668"/>
			<point x="155" y="668" type="curve" smooth="yes"/>
			<point x="119" y="668"/>
			<point x="102" y="652"/>
			<point x="102" y="615" type="curve" smooth="yes"/>
			<point x="102" y="579"/>
			<point x="118" y="562"/>
		</contour>
		<contour>
			<point x="345" y="562" type="curve" smooth="yes"/>
			<point x="381" y="562"/>
			<point x="398" y="578"/>
			<point x="398" y="615" type="curve" smooth="yes"/>
			<point x="398" y="651"/>
			<point x="382" y="668"/>
			<point x="345" y="668" type="curve" smooth="yes"/>
			<point x="309" y="668"/>
			<point x="292" y="652"/>
			<point x="292" y="615" type="curve" smooth="yes"/>
			<point x="292" y="579"/>
			<point x="308" y="562"/>
		</contour>
	</outline>
</glyph>
<glyph name="uni030A" format="2">
	<advance width="0"/>
	<unicode hex="030A"/>
	<anchor x="250" y="500" name="_top"/>
	<anchor x="250" y="726" name="top"/>
	<outline>
		<contour>
			<point x="250" y="549" type="curve" smooth="yes"/>
			<point x="300" y="549"/>
			<point x="338" y="587"/>
			<point x="338" y="638" type="curve" smooth="yes"/>
			<point x="338" y="688"/>
			<point x="300" y="726"/>
			<point x="250" y="726" type="curve" smooth="yes"/>
			<point x="199" y="726"/>
			<point x="161" y="688"/>
			<point x="161" y="638" type="curve" smooth="yes"/>
			<point x="161" y="587"/>
			<point x="199" y="549"/>
		</contour>
		<contour>
			<point x="250" y="588" type="curve" smooth="yes"/>
			<point x="221" y="588"/>
			<point x="200" y="609"/>
			<point x="200" y="638" type="curve" smooth="yes"/>
			<point x="200" y="667"/>
			<point x="221" y="688"/>
			<point x="250" y="688" type="curve" smooth="yes"/>
			<point x="279" y="688"/>
			<point x="300" y="667"/>
			<point x="300" y="638" type="curve" smooth="yes"/>
			<point x="300" y="609"/>
			<point x="279" y="588"/>
		</contour>
	</outline>
</glyph>
<glyph name="uni030B" format="2">
	<advance width="0"/>
	<unicode hex="030B"/>
	<anchor x="222" y="500" name="_top"/>
	<anchor x="261" y="691" name="top"/>
	<outline>
		<contour>
			<point x="253" y="692" type="line"/>
			<point x="161" y="692" type="line"/>
			<point x="107" y="560" type="line"/>
			<point x="169" y="560" type="line"/>
		</contour>
		<contour>
			<point x="406" y="692" type="line"/>
			<point x="314" y="692" type="line"/>
			<point x="260" y="560" type="line"/>
			<point x="322" y="560" type="line"/>
		</contour>
	</outline>
</glyph>
<glyph name="uni030C" format="2">
	<advance width="0"/>
	<unicode hex="030C"/>
	<anchor x="250" y="500" name="_top"/>
	<anchor x="250" y="712" name="top"/>
	<outline>
		<contour>
			<point x="218" y="580" type="line"/>
			<point x="294" y="580" type="line"/>
			<point x="408" y="712" type="line"/>
			<point x="336" y="712" type="line"/>
		</contour>
		<contour>
			<point x="282" y="580" type="line"/>
			<point x="164" y="712" type="line"/>
			<point x="92" y="712" type="line"/>
			<point x="206" y="580" type="line"/>
		</contour>
	</outline>
</glyph>
<glyph name="uni0327" format="2">
	<advance width="0"/>
	<unicode hex="0327"/>
	<anchor x="249" y="0" name="_bottom"/>
	<anchor x="249" y="-208" name="bottom"/>
	<outline>
		<contour>
			<point x="194" y="-68" type="line"/>
			<point x="194" y="-98" type="line"/>
			<point x="267" y="-95"/>
			<point x="293" y="-105"/>
			<point x="293" y="-128" type="curve" smooth="yes"/>
			<point x="293" y="-154"/>
			<point x="267" y="-158"/>
			<point x="236" y="-158" type="curve" smooth="yes"/>
			<point x="210" y="-158"/>
			<point x="186" y="-152"/>
			<point x="166" y="-140" type="curve"/>
			<point x="144" y="-186" type="line"/>
			<point x="168" y="-200"/>
			<point x="201" y="-208"/>
			<point x="236" y="-208" type="curve" smooth="yes"/>
			<point x="285" y="-208"/>
			<point x="353" y="-190"/>
			<point x="353" y="-128" type="curve" smooth="yes"/>
			<point x="353" y="-72"/>
			<point x="298" y="-49"/>
			<point x="244" y="-57" type="curve"/>
			<point x="267" y="-5" type="line"/>
			<point x="228" y="11" type="line"/>
		</contour>
	</outline>
</glyph>
<glyph name="uni0328" format="2">
	<advance width="0"/>
	<unicode hex="0328"/>
	<anchor x="274" y="69" name="_ogonek"/>
	<outline>
		<contour>
			<point x="328" y="-117" type="curve"/>
			<point x="328" y="-79" type="line"/>
			<point x="309" y="-86"/>
			<point x="282" y="-90"/>
			<point x="270" y="-90" type="curve" smooth="yes"/>
			<point x="248" y="-90"/>
			<point x="237" y="-79"/>
			<point x="237" y="-59" type="curve" smooth="yes"/>
			<point x="237" y="-32"/>
			<point x="257" y="13"/>
			<point x="294" y="37" type="curve"/>
			<point x="274" y="69" type="line"/>
			<point x="211" y="27"/>
			<point x="182" y="-21"/>
			<point x="182" y="-66" type="curve" smooth="yes"/>
			<point x="182" y="-116"/>
			<point x="219" y="-140"/>
			<point x="262" y="-140" type="curve" smooth="yes"/>
			<point x="284" y="-140"/>
			<point x="310" y="-134"/>
		</contour>
	</outline>
</glyph>
<glyph name="uni0411" format="2">
	<advance width="576"/>
	<unicode hex="0411"/>
	<outline>
		<contour>
			<point x="322" y="75" type="curve" smooth="yes"/>
			<point x="140" y="75" type="line"/>
			<point x="140" y="350" type="line"/>
			<point x="322" y="350" type="line" smooth="yes"/>
			<point x="406" y="350"/>
			<point x="462" y="290"/>
			<point x="462" y="214" type="curve" smooth="yes"/>
			<point x="462" y="138"/>
			<point x="406" y="75"/>
		</contour>
		<contour>
			<point x="322" y="425" type="curve" smooth="yes"/>
			<point x="140" y="425" type="line"/>
			<point x="140" y="680" type="line"/>
			<point x="55" y="680" type="line"/>
			<point x="55" y="0" type="line"/>
			<point x="322" y="0" type="line" smooth="yes"/>
			<point x="465" y="0"/>
			<point x="552" y="95"/>
			<point x="552" y="214" type="curve" smooth="yes"/>
			<point x="552" y="333"/>
			<point x="465" y="425"/>
		</contour>
		<contour>
			<point x="70" y="608" type="line"/>
			<point x="503" y="608" type="line"/>
			<point x="503" y="680" type="line"/>
			<point x="70" y="680" type="line"/>
		</contour>
	</outline>
</glyph>
<glyph name="uni0413" format="2">
	<advance width="514"/>
	<unicode hex="0413"/>
	<outline>
		<contour>
			<point x="63" y="608" type="line"/>
			<point x="484" y="608" type="line"/>
			<point x="484" y="680" type="line"/>
			<point x="63" y="680" type="line"/>
		</contour>
		<contour>
			<point x="30" y="680" type="line"/>
			<point x="30" y="0" type="line"/>
			<point x="115" y="0" type="line"/>
			<point x="115" y="680" type="line"/>
		</contour>
	</outline>
</glyph>
<glyph name="uni0414" format="2">
	<advance width="653"/>
	<unicode hex="0414"/>
	<outline>
		<contour>
			<point x="483" y="680" type="line"/>
			<point x="483" y="0" type="line"/>
			<point x="568" y="0" type="line"/>
			<point x="568" y="680" type="line"/>
		</contour>
		<contour>
			<point x="206" y="608" type="line"/>
			<point x="535" y="608" type="line"/>
			<point x="535" y="680" type="line"/>
			<point x="206" y="680" type="line"/>
		</contour>
		<contour>
			<point x="77" y="68" type="curve"/>
			<point x="168" y="68" type="line"/>
			<point x="193" y="127"/>
			<point x="194" y="203"/>
			<point x="198" y="252" type="curve" smooth="yes"/>
			<point x="237" y="680" type="line"/>
			<point x="155" y="680" type="line"/>
			<point x="118" y="252" type="line" smooth="yes"/>
			<point x="113" y="194"/>
			<point x="109" y="96"/>
		</contour>
		<contour>
			<point x="19" y="0" type="line"/>
			<point x="623" y="0" type="line"/>
			<point x="623" y="72" type="line"/>
			<point x="19" y="72" type="line"/>
		</contour>
		<contour>
			<point x="547" y="-115" type="line"/>
			<point x="623" y="-115" type="line"/>
			<point x="623" y="62" type="line"/>
			<point x="547" y="62" type="line"/>
		</contour>
		<contour>
			<point x="19" y="-115" type="line"/>
			<point x="95" y="-115" type="line"/>
			<point x="95" y="62" type="line"/>
			<point x="19" y="62" type="line"/>
		</contour>
	</outline>
</glyph>
<glyph name="uni0416" format="2">
	<advance width="916"/>
	<unicode hex="0416"/>
	<outline>
		<contour>
			<point x="425" y="680" type="line"/>
			<point x="425" y="0" type="line"/>
			<point x="510" y="0" type="line"/>
			<point x="510" y="680" type="line"/>
		</contour>
		<contour>
			<point x="803" y="678" type="line"/>
			<point x="533" y="349" type="line"/>
			<point x="628" y="349" type="line"/>
			<point x="905" y="678" type="line"/>
		</contour>
		<contour>
			<point x="803" y="0" type="line"/>
			<point x="905" y="0" type="line"/>
			<point x="628" y="349" type="line"/>
			<point x="533" y="349" type="line"/>
		</contour>
		<contour>
			<point x="336" y="313" type="line"/>
			<point x="599" y="313" type="line"/>
			<point x="599" y="385" type="line"/>
			<point x="336" y="385" type="line"/>
		</contour>
		<contour>
			<point x="132" y="678" type="line"/>
			<point x="30" y="678" type="line"/>
			<point x="307" y="349" type="line"/>
			<point x="402" y="349" type="line"/>
		</contour>
		<contour>
			<point x="132" y="0" type="line"/>
			<point x="402" y="349" type="line"/>
			<point x="307" y="349" type="line"/>
			<point x="30" y="0" type="line"/>
		</contour>
	</outline>
</glyph>
<glyph name="uni0417" format="2">
	<advance width="562"/>
	<unicode hex="0417"/>
	<outline>
		<contour>
			<point x="279" y="392" type="curve" smooth="yes"/>
			<point x="206" y="392" type="line"/>
			<point x="206" y="320" type="line"/>
			<point x="279" y="320" type="line" smooth="yes"/>
			<point x="380" y="320"/>
			<point x="436" y="261"/>
			<point x="436" y="184" type="curve" smooth="yes"/>
			<point x="436" y="105"/>
			<point x="377" y="63"/>
			<point x="281" y="63" type="curve" smooth="yes"/>
			<point x="183" y="63"/>
			<point x="132" y="105"/>
			<point x="132" y="196" type="curve"/>
			<point x="42" y="196" type="line"/>
			<point x="42" y="53"/>
			<point x="150" y="-10"/>
			<point x="281" y="-10" type="curve" smooth="yes"/>
			<point x="408" y="-10"/>
			<point x="526" y="52"/>
			<point x="526" y="179" type="curve" smooth="yes"/>
			<point x="526" y="270"/>
			<point x="468" y="334"/>
			<point x="377" y="361" type="curve"/>
			<point x="453" y="385"/>
			<point x="500" y="436"/>
			<point x="500" y="513" type="curve" smooth="yes"/>
			<point x="500" y="617"/>
			<point x="409" y="690"/>
			<point x="280" y="690" type="curve" smooth="yes"/>
			<point x="145" y="690"/>
			<point x="54" y="618"/>
			<point x="54" y="516" type="curve"/>
			<point x="144" y="516" type="line"/>
			<point x="144" y="580"/>
			<point x="197" y="617"/>
			<point x="280" y="617" type="curve" smooth="yes"/>
			<point x="355" y="617"/>
			<point x="410" y="582"/>
			<point x="410" y="503" type="curve" smooth="yes"/>
			<point x="410" y="392"/>
			<point x="302" y="392"/>
		</contour>
	</outline>
</glyph>
<glyph name="uni0418" format="2">
	<advance width="651"/>
	<unicode hex="0418"/>
	<anchor x="631" y="0" name="bottomright"/>
	<anchor x="326" y="680" name="top"/>
	<outline>
		<contour>
			<point x="596" y="0" type="line"/>
			<point x="596" y="680" type="line"/>
			<point x="505" y="680" type="line"/>
			<point x="115" y="101" type="line"/>
			<point x="140" y="93" type="line"/>
			<point x="140" y="680" type="line"/>
			<point x="55" y="680" type="line"/>
			<point x="55" y="0" type="line"/>
			<point x="146" y="0" type="line"/>
			<point x="536" y="579" type="line"/>
			<point x="511" y="587" type="line"/>
			<point x="511" y="0" type="line"/>
		</contour>
	</outline>
</glyph>
<glyph name="uni041A" format="2">
	<advance width="565"/>
	<unicode hex="041A"/>
	<outline>
		<contour>
			<point x="452" y="678" type="line"/>
			<point x="182" y="349" type="line"/>
			<point x="277" y="349" type="line"/>
			<point x="554" y="678" type="line"/>
		</contour>
		<contour>
			<point x="50" y="680" type="line"/>
			<point x="50" y="0" type="line"/>
			<point x="135" y="0" type="line"/>
			<point x="135" y="680" type="line"/>
		</contour>
		<contour>
			<point x="452" y="0" type="line"/>
			<point x="554" y="0" type="line"/>
			<point x="277" y="349" type="line"/>
			<point x="182" y="349" type="line"/>
		</contour>
		<contour>
			<point x="70" y="313" type="line"/>
			<point x="248" y="313" type="line"/>
			<point x="248" y="385" type="line"/>
			<point x="70" y="385" type="line"/>
		</contour>
	</outline>
</glyph>
<glyph name="uni041B" format="2">
	<advance width="632"/>
	<unicode hex="041B"/>
	<outline>
		<contour>
			<point x="492" y="680" type="line"/>
			<point x="492" y="0" type="line"/>
			<point x="577" y="0" type="line"/>
			<point x="577" y="680" type="line"/>
		</contour>
		<contour>
			<point x="204" y="608" type="line"/>
			<point x="544" y="608" type="line"/>
			<point x="544" y="680" type="line"/>
			<point x="204" y="680" type="line"/>
		</contour>
		<contour>
			<point x="19" y="66" type="curve"/>
			<point x="19" y="-6" type="line"/>
			<point x="173" y="-51"/>
			<point x="206" y="89"/>
			<point x="217" y="252" type="curve" smooth="yes"/>
			<point x="245" y="680" type="line"/>
			<point x="163" y="680" type="line"/>
			<point x="137" y="252" type="line" smooth="yes"/>
			<point x="131" y="147"/>
			<point x="118" y="33"/>
		</contour>
	</outline>
</glyph>
<glyph name="uni041F" format="2">
	<advance width="652"/>
	<unicode hex="041F"/>
	<outline>
		<contour>
			<point x="55" y="680" type="line"/>
			<point x="55" y="0" type="line"/>
			<point x="140" y="0" type="line"/>
			<point x="140" y="680" type="line"/>
		</contour>
		<contour>
			<point x="512" y="680" type="line"/>
			<point x="512" y="0" type="line"/>
			<point x="597" y="0" type="line"/>
			<point x="597" y="680" type="line"/>
		</contour>
		<contour>
			<point x="96" y="608" type="line"/>
			<point x="564" y="608" type="line"/>
			<point x="564" y="680" type="line"/>
			<point x="96" y="680" type="line"/>
		</contour>
	</outline>
</glyph>
<glyph name="uni0423" format="2">
	<advance width="636"/>
	<unicode hex="0423"/>
	<outline>
		<contour>
			<point x="35" y="680" type="line"/>
			<point x="275" y="178" type="line"/>
			<point x="360" y="178" type="line"/>
			<point x="601" y="680" type="line"/>
			<point x="511" y="680" type="line"/>
			<point x="318" y="261" type="line"/>
			<point x="128" y="680" type="line"/>
		</contour>
		<contour>
			<point x="342" y="141" type="curve" smooth="yes"/>
			<point x="380" y="220" type="line"/>
			<point x="295" y="220" type="line"/>
			<point x="257" y="141" type="line" smooth="yes"/>
			<point x="222" y="67"/>
			<point x="211" y="56"/>
			<point x="150" y="56" type="curve" smooth="yes"/>
			<point x="142" y="56"/>
			<point x="127" y="58"/>
			<point x="116" y="61" type="curve"/>
			<point x="116" y="-9" type="line"/>
			<point x="124" y="-12"/>
			<point x="154" y="-15"/>
			<point x="170" y="-15" type="curve" smooth="yes"/>
			<point x="269" y="-15"/>
			<point x="304" y="61"/>
		</contour>
	</outline>
</glyph>
<glyph name="uni0424" format="2">
	<advance width="727"/>
	<unicode hex="0424"/>
	<outline>
		<contour>
			<point x="362" y="144" type="curve" smooth="yes"/>
			<point x="204" y="144"/>
			<point x="126" y="214"/>
			<point x="126" y="340" type="curve" smooth="yes"/>
			<point x="126" y="466"/>
			<point x="204" y="536"/>
			<point x="362" y="536" type="curve" smooth="yes"/>
			<point x="522" y="536"/>
			<point x="601" y="466"/>
			<point x="601" y="340" type="curve" smooth="yes"/>
			<point x="601" y="214"/>
			<point x="522" y="144"/>
		</contour>
		<contour>
			<point x="363" y="68" type="curve" smooth="yes"/>
			<point x="574" y="68"/>
			<point x="691" y="165"/>
			<point x="691" y="340" type="curve" smooth="yes"/>
			<point x="691" y="515"/>
			<point x="574" y="612"/>
			<point x="363" y="612" type="curve" smooth="yes"/>
			<point x="153" y="612"/>
			<point x="36" y="515"/>
			<point x="36" y="340" type="curve" smooth="yes"/>
			<point x="36" y="165"/>
			<point x="153" y="68"/>
		</contour>
		<contour>
			<point x="317" y="680" type="line"/>
			<point x="317" y="0" type="line"/>
			<point x="402" y="0" type="line"/>
			<point x="402" y="680" type="line"/>
		</contour>
	</outline>
</glyph>
<glyph name="uni0426" format="2">
	<advance width="730"/>
	<unicode hex="0426"/>
	<outline>
		<contour>
			<point x="55" y="0" type="line"/>
			<point x="140" y="0" type="line"/>
			<point x="140" y="680" type="line"/>
			<point x="55" y="680" type="line"/>
		</contour>
		<contour>
			<point x="512" y="0" type="line"/>
			<point x="597" y="0" type="line"/>
			<point x="597" y="680" type="line"/>
			<point x="512" y="680" type="line"/>
		</contour>
		<contour>
			<point x="96" y="72" type="line"/>
			<point x="96" y="0" type="line"/>
			<point x="710" y="0" type="line"/>
			<point x="710" y="72" type="line"/>
		</contour>
		<contour>
			<point x="634" y="-115" type="line"/>
			<point x="710" y="-115" type="line"/>
			<point x="710" y="62" type="line"/>
			<point x="634" y="62" type="line"/>
		</contour>
	</outline>
</glyph>
<glyph name="uni0427" format="2">
	<advance width="655"/>
	<unicode hex="0427"/>
	<outline>
		<contour>
			<point x="600" y="0" type="line"/>
			<point x="600" y="680" type="line"/>
			<point x="515" y="680" type="line"/>
			<point x="515" y="0" type="line"/>
		</contour>
		<contour>
			<point x="549" y="359" type="curve"/>
			<point x="535" y="458" type="line"/>
			<point x="515" y="366"/>
			<point x="417" y="278"/>
			<point x="314" y="278" type="curve" smooth="yes"/>
			<point x="210" y="278"/>
			<point x="141" y="367"/>
			<point x="141" y="441" type="curve"/>
			<point x="141" y="680" type="line"/>
			<point x="55" y="680" type="line"/>
			<point x="55" y="415" type="line"/>
			<point x="55" y="299"/>
			<point x="165" y="202"/>
			<point x="301" y="202" type="curve" smooth="yes"/>
			<point x="439" y="202"/>
			<point x="523" y="299"/>
		</contour>
	</outline>
</glyph>
<glyph name="uni0428" format="2">
	<advance width="888"/>
	<unicode hex="0428"/>
	<outline>
		<contour>
			<point x="55" y="0" type="line"/>
			<point x="140" y="0" type="line"/>
			<point x="140" y="680" type="line"/>
			<point x="55" y="680" type="line"/>
		</contour>
		<contour>
			<point x="96" y="72" type="line"/>
			<point x="96" y="0" type="line"/>
			<point x="770" y="0" type="line"/>
			<point x="770" y="72" type="line"/>
		</contour>
		<contour>
			<point x="401" y="0" type="line"/>
			<point x="486" y="0" type="line"/>
			<point x="486" y="680" type="line"/>
			<point x="401" y="680" type="line"/>
		</contour>
		<contour>
			<point x="748" y="0" type="line"/>
			<point x="833" y="0" type="line"/>
			<point x="833" y="680" type="line"/>
			<point x="748" y="680" type="line"/>
		</contour>
	</outline>
</glyph>
<glyph name="uni0429" format="2">
	<advance width="966"/>
	<unicode hex="0429"/>
	<outline>
		<contour>
			<point x="55" y="0" type="line"/>
			<point x="140" y="0" type="line"/>
			<point x="140" y="680" type="line"/>
			<point x="55" y="680" type="line"/>
		</contour>
		<contour>
			<point x="96" y="72" type="line"/>
			<point x="96" y="0" type="line"/>
			<point x="946" y="0" type="line"/>
			<point x="946" y="72" type="line"/>
		</contour>
		<contour>
			<point x="401" y="0" type="line"/>
			<point x="486" y="0" type="line"/>
			<point x="486" y="680" type="line"/>
			<point x="401" y="680" type="line"/>
		</contour>
		<contour>
			<point x="748" y="0" type="line"/>
			<point x="833" y="0" type="line"/>
			<point x="833" y="680" type="line"/>
			<point x="748" y="680" type="line"/>
		</contour>
		<contour>
			<point x="870" y="-160" type="line"/>
			<point x="946" y="-160" type="line"/>
			<point x="946" y="62" type="line"/>
			<point x="870" y="62" type="line"/>
		</contour>
	</outline>
</glyph>
<glyph name="uni042A" format="2">
	<advance width="695"/>
	<unicode hex="042A"/>
	<outline>
		<contour>
			<point x="441" y="75" type="curve" smooth="yes"/>
			<point x="259" y="75" type="line"/>
			<point x="259" y="350" type="line"/>
			<point x="441" y="350" type="line" smooth="yes"/>
			<point x="525" y="350"/>
			<point x="581" y="290"/>
			<point x="581" y="214" type="curve" smooth="yes"/>
			<point x="581" y="138"/>
			<point x="525" y="75"/>
		</contour>
		<contour>
			<point x="441" y="425" type="curve" smooth="yes"/>
			<point x="259" y="425" type="line"/>
			<point x="259" y="680" type="line"/>
			<point x="174" y="680" type="line"/>
			<point x="174" y="0" type="line"/>
			<point x="441" y="0" type="line" smooth="yes"/>
			<point x="584" y="0"/>
			<point x="671" y="95"/>
			<point x="671" y="214" type="curve" smooth="yes"/>
			<point x="671" y="333"/>
			<point x="584" y="425"/>
		</contour>
		<contour>
			<point x="15" y="608" type="line"/>
			<point x="227" y="608" type="line"/>
			<point x="227" y="680" type="line"/>
			<point x="15" y="680" type="line"/>
		</contour>
	</outline>
</glyph>
<glyph name="uni042D" format="2">
	<advance width="660"/>
	<unicode hex="042D"/>
	<outline>
		<component base="C" xScale="-1" xOffset="666"/>
		<contour>
			<point x="229" y="306" type="line"/>
			<point x="587" y="306" type="line"/>
			<point x="587" y="378" type="line"/>
			<point x="229" y="378" type="line"/>
		</contour>
	</outline>
</glyph>
<glyph name="uni042E" format="2">
	<advance width="871"/>
	<unicode hex="042E"/>
	<outline>
		<contour>
			<point x="55" y="680" type="line"/>
			<point x="55" y="0" type="line"/>
			<point x="140" y="0" type="line"/>
			<point x="140" y="680" type="line"/>
		</contour>
		<contour>
			<point x="532" y="61" type="curve" smooth="yes"/>
			<point x="388" y="61"/>
			<point x="321" y="160"/>
			<point x="321" y="340" type="curve" smooth="yes"/>
			<point x="321" y="520"/>
			<point x="388" y="619"/>
			<point x="532" y="619" type="curve" smooth="yes"/>
			<point x="678" y="619"/>
			<point x="745" y="520"/>
			<point x="745" y="340" type="curve" smooth="yes"/>
			<point x="745" y="160"/>
			<point x="678" y="61"/>
		</contour>
		<contour>
			<point x="533" y="-15" type="curve" smooth="yes"/>
			<point x="733" y="-15"/>
			<point x="835" y="115"/>
			<point x="835" y="340" type="curve" smooth="yes"/>
			<point x="835" y="565"/>
			<point x="733" y="695"/>
			<point x="533" y="695" type="curve" smooth="yes"/>
			<point x="333" y="695"/>
			<point x="231" y="565"/>
			<point x="231" y="340" type="curve" smooth="yes"/>
			<point x="231" y="115"/>
			<point x="333" y="-15"/>
		</contour>
		<contour>
			<point x="90" y="304" type="line"/>
			<point x="294" y="304" type="line"/>
			<point x="294" y="376" type="line"/>
			<point x="90" y="376" type="line"/>
		</contour>
	</outline>
</glyph>
<glyph name="uni0431" format="2">
	<advance width="527"/>
	<unicode hex="0431"/>
	<outline>
		<contour>
			<point x="271" y="421" type="curve" smooth="yes"/>
			<point x="362" y="421"/>
			<point x="410" y="349"/>
			<point x="410" y="251" type="curve" smooth="yes"/>
			<point x="410" y="146"/>
			<point x="355" y="59"/>
			<point x="267" y="59" type="curve" smooth="yes"/>
			<point x="174" y="59"/>
			<point x="122" y="154"/>
			<point x="122" y="249" type="curve" smooth="yes"/>
			<point x="122" y="351"/>
			<point x="181" y="421"/>
		</contour>
		<contour>
			<point x="31" y="329" type="curve" smooth="yes"/>
			<point x="31" y="124"/>
			<point x="98" y="-11"/>
			<point x="261" y="-11" type="curve" smooth="yes"/>
			<point x="415" y="-11"/>
			<point x="496" y="109"/>
			<point x="496" y="247" type="curve" smooth="yes"/>
			<point x="496" y="377"/>
			<point x="424" y="491"/>
			<point x="271" y="491" type="curve" smooth="yes"/>
			<point x="189" y="491"/>
			<point x="139" y="458"/>
			<point x="114" y="403" type="curve"/>
			<point x="122" y="505"/>
			<point x="166" y="600"/>
			<point x="279" y="600" type="curve" smooth="yes"/>
			<point x="359" y="600"/>
			<point x="393" y="611"/>
			<point x="457" y="630" type="curve"/>
			<point x="457" y="700" type="line"/>
			<point x="393" y="681"/>
			<point x="354" y="670"/>
			<point x="279" y="670" type="curve" smooth="yes"/>
			<point x="103" y="670"/>
			<point x="31" y="545"/>
		</contour>
	</outline>
</glyph>
<glyph name="uni0432" format="2">
	<advance width="457"/>
	<unicode hex="0432"/>
	<outline>
		<contour>
			<point x="50" y="0" type="line"/>
			<point x="268" y="0" type="line" smooth="yes"/>
			<point x="377" y="0"/>
			<point x="437" y="58"/>
			<point x="437" y="136" type="curve" smooth="yes"/>
			<point x="437" y="217"/>
			<point x="373" y="257"/>
			<point x="330" y="261" type="curve"/>
			<point x="361" y="264"/>
			<point x="411" y="303"/>
			<point x="411" y="374" type="curve" smooth="yes"/>
			<point x="411" y="457"/>
			<point x="345" y="500"/>
			<point x="249" y="500" type="curve" smooth="yes"/>
			<point x="50" y="500" type="line"/>
		</contour>
		<contour>
			<point x="268" y="68" type="curve" smooth="yes"/>
			<point x="132" y="68" type="line"/>
			<point x="132" y="225" type="line"/>
			<point x="268" y="225" type="line" smooth="yes"/>
			<point x="321" y="225"/>
			<point x="351" y="188"/>
			<point x="351" y="140" type="curve" smooth="yes"/>
			<point x="351" y="101"/>
			<point x="330" y="68"/>
		</contour>
		<contour>
			<point x="249" y="288" type="curve" smooth="yes"/>
			<point x="132" y="288" type="line"/>
			<point x="132" y="432" type="line"/>
			<point x="249" y="432" type="line" smooth="yes"/>
			<point x="302" y="432"/>
			<point x="325" y="409"/>
			<point x="325" y="368" type="curve" smooth="yes"/>
			<point x="325" y="325"/>
			<point x="300" y="288"/>
		</contour>
	</outline>
</glyph>
<glyph name="uni0433" format="2">
	<advance width="435"/>
	<unicode hex="0433"/>
	<outline>
		<contour>
			<point x="74" y="432" type="line"/>
			<point x="410" y="432" type="line"/>
			<point x="410" y="500" type="line"/>
			<point x="74" y="500" type="line"/>
		</contour>
		<contour>
			<point x="50" y="500" type="line"/>
			<point x="50" y="0" type="line"/>
			<point x="132" y="0" type="line"/>
			<point x="132" y="500" type="line"/>
		</contour>
	</outline>
</glyph>
<glyph name="uni0434" format="2">
	<advance width="561"/>
	<unicode hex="0434"/>
	<outline>
		<contour>
			<point x="388" y="500" type="line"/>
			<point x="388" y="-1" type="line"/>
			<point x="470" y="-1" type="line"/>
			<point x="470" y="500" type="line"/>
		</contour>
		<contour>
			<point x="169" y="432" type="line"/>
			<point x="446" y="432" type="line"/>
			<point x="446" y="500" type="line"/>
			<point x="169" y="500" type="line"/>
		</contour>
		<contour>
			<point x="76" y="50" type="curve"/>
			<point x="166" y="50" type="line"/>
			<point x="182" y="93"/>
			<point x="192" y="149"/>
			<point x="195" y="185" type="curve" smooth="yes"/>
			<point x="218" y="500" type="line"/>
			<point x="138" y="500" type="line"/>
			<point x="116" y="185" type="line" smooth="yes"/>
			<point x="113" y="142"/>
			<point x="100" y="70"/>
		</contour>
		<contour>
			<point x="50" y="0" type="line"/>
			<point x="511" y="0" type="line"/>
			<point x="511" y="67" type="line"/>
			<point x="50" y="67" type="line"/>
		</contour>
		<contour>
			<point x="429" y="-115" type="line"/>
			<point x="511" y="-115" type="line"/>
			<point x="511" y="45" type="line"/>
			<point x="429" y="45" type="line"/>
		</contour>
		<contour>
			<point x="50" y="-115" type="line"/>
			<point x="132" y="-115" type="line"/>
			<point x="132" y="45" type="line"/>
			<point x="50" y="45" type="line"/>
		</contour>
	</outline>
</glyph>
<glyph name="uni0436" format="2">
	<advance width="769"/>
	<unicode hex="0436"/>
	<outline>
		<contour>
			<point x="344" y="500" type="line"/>
			<point x="344" y="0" type="line"/>
			<point x="425" y="0" type="line"/>
			<point x="425" y="500" type="line"/>
		</contour>
		<contour>
			<point x="278" y="223" type="line"/>
			<point x="491" y="223" type="line"/>
			<point x="491" y="290" type="line"/>
			<point x="278" y="290" type="line"/>
		</contour>
		<contour>
			<point x="128" y="499" type="line"/>
			<point x="30" y="499" type="line"/>
			<point x="223" y="257" type="line"/>
			<point x="316" y="257" type="line"/>
		</contour>
		<contour>
			<point x="128" y="0" type="line"/>
			<point x="316" y="257" type="line"/>
			<point x="223" y="257" type="line"/>
			<point x="30" y="0" type="line"/>
		</contour>
		<contour>
			<point x="641" y="499" type="line"/>
			<point x="453" y="257" type="line"/>
			<point x="546" y="257" type="line"/>
			<point x="739" y="499" type="line"/>
		</contour>
		<contour>
			<point x="641" y="0" type="line"/>
			<point x="739" y="0" type="line"/>
			<point x="546" y="257" type="line"/>
			<point x="453" y="257" type="line"/>
		</contour>
	</outline>
</glyph>
<glyph name="uni0437" format="2">
	<advance width="442"/>
	<unicode hex="0437"/>
	<outline>
		<contour>
			<point x="217" y="286" type="curve" smooth="yes"/>
			<point x="173" y="286" type="line"/>
			<point x="173" y="226" type="line"/>
			<point x="217" y="226" type="line" smooth="yes"/>
			<point x="294" y="226"/>
			<point x="325" y="177"/>
			<point x="325" y="135" type="curve" smooth="yes"/>
			<point x="325" y="89"/>
			<point x="289" y="60"/>
			<point x="222" y="60" type="curve" smooth="yes"/>
			<point x="158" y="60"/>
			<point x="117" y="86"/>
			<point x="117" y="141" type="curve"/>
			<point x="38" y="141" type="line"/>
			<point x="38" y="37"/>
			<point x="121" y="-10"/>
			<point x="219" y="-10" type="curve" smooth="yes"/>
			<point x="313" y="-10"/>
			<point x="411" y="36"/>
			<point x="411" y="131" type="curve" smooth="yes"/>
			<point x="411" y="198"/>
			<point x="358" y="240"/>
			<point x="298" y="259" type="curve"/>
			<point x="346" y="278"/>
			<point x="392" y="321"/>
			<point x="392" y="378" type="curve" smooth="yes"/>
			<point x="392" y="456"/>
			<point x="314" y="510"/>
			<point x="218" y="510" type="curve" smooth="yes"/>
			<point x="122" y="510"/>
			<point x="46" y="457"/>
			<point x="46" y="368" type="curve"/>
			<point x="123" y="368" type="line"/>
			<point x="123" y="409"/>
			<point x="157" y="440"/>
			<point x="218" y="440" type="curve" smooth="yes"/>
			<point x="282" y="440"/>
			<point x="304" y="406"/>
			<point x="306" y="371" type="curve" smooth="yes"/>
			<point x="310" y="309"/>
			<point x="244" y="286"/>
		</contour>
	</outline>
</glyph>
<glyph name="uni0438" format="2">
	<advance width="511"/>
	<unicode hex="0438"/>
	<anchor x="253" y="500" name="top"/>
	<outline>
		<contour>
			<point x="469" y="0" type="line"/>
			<point x="469" y="500" type="line"/>
			<point x="382" y="500" type="line"/>
			<point x="91" y="74" type="line"/>
			<point x="124" y="68" type="line"/>
			<point x="124" y="500" type="line"/>
			<point x="42" y="500" type="line"/>
			<point x="42" y="0" type="line"/>
			<point x="129" y="0" type="line"/>
			<point x="420" y="426" type="line"/>
			<point x="387" y="432" type="line"/>
			<point x="387" y="0" type="line"/>
		</contour>
	</outline>
</glyph>
<glyph name="uni043A" format="2">
	<advance width="469"/>
	<unicode hex="043A"/>
	<outline>
		<contour>
			<point x="50" y="500" type="line"/>
			<point x="50" y="0" type="line"/>
			<point x="131" y="0" type="line"/>
			<point x="131" y="500" type="line"/>
		</contour>
		<contour>
			<point x="84" y="223" type="line"/>
			<point x="197" y="223" type="line"/>
			<point x="197" y="290" type="line"/>
			<point x="84" y="290" type="line"/>
		</contour>
		<contour>
			<point x="347" y="499" type="line"/>
			<point x="159" y="257" type="line"/>
			<point x="252" y="257" type="line"/>
			<point x="445" y="499" type="line"/>
		</contour>
		<contour>
			<point x="347" y="0" type="line"/>
			<point x="445" y="0" type="line"/>
			<point x="252" y="257" type="line"/>
			<point x="159" y="257" type="line"/>
		</contour>
	</outline>
</glyph>
<glyph name="uni043B" format="2">
	<advance width="482"/>
	<unicode hex="043B"/>
	<outline>
		<contour>
			<point x="358" y="494" type="line"/>
			<point x="358" y="0" type="line"/>
			<point x="440" y="0" type="line"/>
			<point x="440" y="494" type="line"/>
		</contour>
		<contour>
			<point x="149" y="427" type="line"/>
			<point x="396" y="427" type="line"/>
			<point x="396" y="494" type="line"/>
			<point x="149" y="494" type="line"/>
		</contour>
		<contour>
			<point x="15" y="57" type="curve"/>
			<point x="15" y="-3" type="line"/>
			<point x="129" y="-41"/>
			<point x="168" y="37"/>
			<point x="177" y="184" type="curve" smooth="yes"/>
			<point x="197" y="494" type="line"/>
			<point x="119" y="494" type="line"/>
			<point x="100" y="184" type="line" smooth="yes"/>
			<point x="96" y="119"/>
			<point x="90" y="28"/>
		</contour>
	</outline>
</glyph>
<glyph name="uni043C" format="2">
	<advance width="621"/>
	<unicode hex="043C"/>
	<outline>
		<contour>
			<point x="271" y="0" type="line"/>
			<point x="350" y="0" type="line"/>
			<point x="519" y="449" type="line"/>
			<point x="497" y="451" type="line"/>
			<point x="497" y="0" type="line"/>
			<point x="579" y="0" type="line"/>
			<point x="579" y="500" type="line"/>
			<point x="461" y="500" type="line"/>
			<point x="299" y="66" type="line"/>
			<point x="323" y="66" type="line"/>
			<point x="160" y="500" type="line"/>
			<point x="42" y="500" type="line"/>
			<point x="42" y="0" type="line"/>
			<point x="124" y="0" type="line"/>
			<point x="124" y="451" type="line"/>
			<point x="102" y="449" type="line"/>
		</contour>
	</outline>
</glyph>
<glyph name="uni043D" format="2">
	<advance width="532"/>
	<unicode hex="043D"/>
	<outline>
		<contour>
			<point x="50" y="500" type="line"/>
			<point x="50" y="0" type="line"/>
			<point x="132" y="0" type="line"/>
			<point x="132" y="500" type="line"/>
		</contour>
		<contour>
			<point x="400" y="500" type="line"/>
			<point x="400" y="0" type="line"/>
			<point x="482" y="0" type="line"/>
			<point x="482" y="500" type="line"/>
		</contour>
		<contour>
			<point x="80" y="215" type="line"/>
			<point x="438" y="215" type="line"/>
			<point x="438" y="285" type="line"/>
			<point x="80" y="285" type="line"/>
		</contour>
	</outline>
</glyph>
<glyph name="uni043F" format="2">
	<advance width="522"/>
	<unicode hex="043F"/>
	<outline>
		<contour>
			<point x="50" y="500" type="line"/>
			<point x="50" y="0" type="line"/>
			<point x="132" y="0" type="line"/>
			<point x="132" y="500" type="line"/>
		</contour>
		<contour>
			<point x="390" y="500" type="line"/>
			<point x="390" y="0" type="line"/>
			<point x="472" y="0" type="line"/>
			<point x="472" y="500" type="line"/>
		</contour>
		<contour>
			<point x="80" y="430" type="line"/>
			<point x="428" y="430" type="line"/>
			<point x="428" y="500" type="line"/>
			<point x="80" y="500" type="line"/>
		</contour>
	</outline>
</glyph>
<glyph name="uni0442" format="2">
	<advance width="473"/>
	<unicode hex="0442"/>
	<outline>
		<contour>
			<point x="25" y="432" type="line"/>
			<point x="448" y="432" type="line"/>
			<point x="448" y="500" type="line"/>
			<point x="25" y="500" type="line"/>
		</contour>
		<contour>
			<point x="196" y="500" type="line"/>
			<point x="196" y="0" type="line"/>
			<point x="277" y="0" type="line"/>
			<point x="277" y="500" type="line"/>
		</contour>
	</outline>
</glyph>
<glyph name="uni0444" format="2">
	<advance width="626"/>
	<unicode hex="0444"/>
	<outline>
		<contour>
			<point x="312" y="60" type="curve" smooth="yes"/>
			<point x="186" y="60"/>
			<point x="116" y="128"/>
			<point x="116" y="250" type="curve" smooth="yes"/>
			<point x="116" y="372"/>
			<point x="186" y="440"/>
			<point x="312" y="440" type="curve" smooth="yes"/>
			<point x="439" y="440"/>
			<point x="509" y="372"/>
			<point x="509" y="250" type="curve" smooth="yes"/>
			<point x="509" y="128"/>
			<point x="439" y="60"/>
		</contour>
		<contour>
			<point x="314" y="-10" type="curve" smooth="yes"/>
			<point x="485" y="-10"/>
			<point x="595" y="91"/>
			<point x="595" y="248" type="curve" smooth="yes"/>
			<point x="595" y="407"/>
			<point x="484" y="510"/>
			<point x="312" y="510" type="curve" smooth="yes"/>
			<point x="141" y="510"/>
			<point x="31" y="409"/>
			<point x="31" y="252" type="curve" smooth="yes"/>
			<point x="31" y="93"/>
			<point x="142" y="-10"/>
		</contour>
		<contour>
			<point x="270" y="650" type="line"/>
			<point x="270" y="-150" type="line"/>
			<point x="352" y="-150" type="line"/>
			<point x="352" y="650" type="line"/>
		</contour>
	</outline>
</glyph>
<glyph name="uni0446" format="2">
	<advance width="585"/>
	<unicode hex="0446"/>
	<outline>
		<contour>
			<point x="50" y="0" type="line"/>
			<point x="132" y="0" type="line"/>
			<point x="132" y="500" type="line"/>
			<point x="50" y="500" type="line"/>
		</contour>
		<contour>
			<point x="387" y="0" type="line"/>
			<point x="469" y="0" type="line"/>
			<point x="469" y="500" type="line"/>
			<point x="387" y="500" type="line"/>
		</contour>
		<contour>
			<point x="82" y="68" type="line"/>
			<point x="82" y="0" type="line"/>
			<point x="575" y="0" type="line"/>
			<point x="575" y="68" type="line"/>
		</contour>
		<contour>
			<point x="506" y="-89" type="line"/>
			<point x="575" y="-89" type="line"/>
			<point x="575" y="48" type="line"/>
			<point x="506" y="48" type="line"/>
		</contour>
	</outline>
</glyph>
<glyph name="uni0447" format="2">
	<advance width="511"/>
	<unicode hex="0447"/>
	<outline>
		<contour>
			<point x="461" y="0" type="line"/>
			<point x="461" y="500" type="line"/>
			<point x="378" y="500" type="line"/>
			<point x="378" y="0" type="line"/>
		</contour>
		<contour>
			<point x="423" y="279" type="curve"/>
			<point x="413" y="366" type="line"/>
			<point x="398" y="299"/>
			<point x="331" y="234"/>
			<point x="246" y="234" type="curve" smooth="yes"/>
			<point x="169" y="234"/>
			<point x="133" y="285"/>
			<point x="133" y="339" type="curve"/>
			<point x="133" y="500" type="line"/>
			<point x="50" y="500" type="line"/>
			<point x="50" y="320" type="line"/>
			<point x="50" y="235"/>
			<point x="125" y="163"/>
			<point x="236" y="163" type="curve" smooth="yes"/>
			<point x="347" y="163"/>
			<point x="404" y="235"/>
		</contour>
	</outline>
</glyph>
<glyph name="uni0448" format="2">
	<advance width="692"/>
	<unicode hex="0448"/>
	<outline>
		<contour>
			<point x="50" y="0" type="line"/>
			<point x="132" y="0" type="line"/>
			<point x="132" y="500" type="line"/>
			<point x="50" y="500" type="line"/>
		</contour>
		<contour>
			<point x="305" y="0" type="line"/>
			<point x="387" y="0" type="line"/>
			<point x="387" y="500" type="line"/>
			<point x="305" y="500" type="line"/>
		</contour>
		<contour>
			<point x="560" y="0" type="line"/>
			<point x="642" y="0" type="line"/>
			<point x="642" y="500" type="line"/>
			<point x="560" y="500" type="line"/>
		</contour>
		<contour>
			<point x="82" y="68" type="line"/>
			<point x="82" y="0" type="line"/>
			<point x="575" y="0" type="line"/>
			<point x="575" y="68" type="line"/>
		</contour>
	</outline>
</glyph>
<glyph name="uni0449" format="2">
	<advance width="758"/>
	<unicode hex="0449"/>
	<outline>
		<contour>
			<point x="50" y="0" type="line"/>
			<point x="132" y="0" type="line"/>
			<point x="132" y="500" type="line"/>
			<point x="50" y="500" type="line"/>
		</contour>
		<contour>
			<point x="305" y="0" type="line"/>
			<point x="387" y="0" type="line"/>
			<point x="387" y="500" type="line"/>
			<point x="305" y="500" type="line"/>
		</contour>
		<contour>
			<point x="560" y="0" type="line"/>
			<point x="642" y="0" type="line"/>
			<point x="642" y="500" type="line"/>
			<point x="560" y="500" type="line"/>
		</contour>
		<contour>
			<point x="82" y="68" type="line"/>
			<point x="82" y="0" type="line"/>
			<point x="748" y="0" type="line"/>
			<point x="748" y="68" type="line"/>
		</contour>
		<contour>
			<point x="679" y="-89" type="line"/>
			<point x="748" y="-89" type="line"/>
			<point x="748" y="48" type="line"/>
			<point x="679" y="48" type="line"/>
		</contour>
	</outline>
</glyph>
<glyph name="uni044A" format="2">
	<advance width="556"/>
	<unicode hex="044A"/>
	<outline>
		<contour>
			<point x="356" y="68" type="curve" smooth="yes"/>
			<point x="222" y="68" type="line"/>
			<point x="222" y="251" type="line"/>
			<point x="356" y="251" type="line" smooth="yes"/>
			<point x="413" y="251"/>
			<point x="439" y="203"/>
			<point x="439" y="157" type="curve" smooth="yes"/>
			<point x="439" y="111"/>
			<point x="413" y="68"/>
		</contour>
		<contour>
			<point x="356" y="318" type="curve" smooth="yes"/>
			<point x="222" y="318" type="line"/>
			<point x="222" y="500" type="line"/>
			<point x="140" y="500" type="line"/>
			<point x="140" y="0" type="line"/>
			<point x="356" y="0" type="line" smooth="yes"/>
			<point x="461" y="0"/>
			<point x="525" y="68"/>
			<point x="525" y="157" type="curve" smooth="yes"/>
			<point x="525" y="246"/>
			<point x="461" y="318"/>
		</contour>
		<contour>
			<point x="10" y="432" type="line"/>
			<point x="198" y="432" type="line"/>
			<point x="198" y="500" type="line"/>
			<point x="10" y="500" type="line"/>
		</contour>
	</outline>
</glyph>
<glyph name="uni044B" format="2">
	<advance width="657"/>
	<unicode hex="044B"/>
	<outline>
		<contour>
			<point x="266" y="68" type="curve" smooth="yes"/>
			<point x="132" y="68" type="line"/>
			<point x="132" y="251" type="line"/>
			<point x="266" y="251" type="line" smooth="yes"/>
			<point x="323" y="251"/>
			<point x="349" y="203"/>
			<point x="349" y="157" type="curve" smooth="yes"/>
			<point x="349" y="111"/>
			<point x="323" y="68"/>
		</contour>
		<contour>
			<point x="266" y="318" type="curve" smooth="yes"/>
			<point x="132" y="318" type="line"/>
			<point x="132" y="500" type="line"/>
			<point x="50" y="500" type="line"/>
			<point x="50" y="0" type="line"/>
			<point x="266" y="0" type="line" smooth="yes"/>
			<point x="371" y="0"/>
			<point x="435" y="68"/>
			<point x="435" y="157" type="curve" smooth="yes"/>
			<point x="435" y="246"/>
			<point x="371" y="318"/>
		</contour>
		<contour>
			<point x="525" y="500" type="line"/>
			<point x="525" y="0" type="line"/>
			<point x="607" y="0" type="line"/>
			<point x="607" y="500" type="line"/>
		</contour>
	</outline>
</glyph>
<glyph name="uni044D" format="2">
	<advance width="507"/>
	<unicode hex="044D"/>
	<outline>
		<contour>
			<point x="127" y="152" type="curve"/>
			<point x="40" y="152" type="line"/>
			<point x="60" y="44"/>
			<point x="139" y="-10"/>
			<point x="251" y="-10" type="curve" smooth="yes"/>
			<point x="398" y="-10"/>
			<point x="476" y="85"/>
			<point x="476" y="250" type="curve" smooth="yes"/>
			<point x="476" y="415"/>
			<point x="398" y="510"/>
			<point x="251" y="510" type="curve" smooth="yes"/>
			<point x="139" y="510"/>
			<point x="59" y="456"/>
			<point x="39" y="348" type="curve"/>
			<point x="127" y="348" type="line"/>
			<point x="141" y="401"/>
			<point x="188" y="440"/>
			<point x="252" y="440" type="curve" smooth="yes"/>
			<point x="345" y="440"/>
			<point x="390" y="365"/>
			<point x="390" y="250" type="curve" smooth="yes"/>
			<point x="390" y="135"/>
			<point x="345" y="60"/>
			<point x="252" y="60" type="curve" smooth="yes"/>
			<point x="189" y="60"/>
			<point x="141" y="99"/>
		</contour>
		<contour>
			<point x="170" y="216" type="line"/>
			<point x="398" y="216" type="line"/>
			<point x="398" y="284" type="line"/>
			<point x="170" y="284" type="line"/>
		</contour>
	</outline>
</glyph>
<glyph name="uni044E" format="2">
	<advance width="705"/>
	<unicode hex="044E"/>
	<outline>
		<contour>
			<point x="50" y="500" type="line"/>
			<point x="50" y="0" type="line"/>
			<point x="132" y="0" type="line"/>
			<point x="132" y="500" type="line"/>
		</contour>
		<contour>
			<point x="446" y="60" type="curve" smooth="yes"/>
			<point x="357" y="60"/>
			<point x="305" y="128"/>
			<point x="305" y="250" type="curve" smooth="yes"/>
			<point x="305" y="366"/>
			<point x="354" y="440"/>
			<point x="446" y="440" type="curve" smooth="yes"/>
			<point x="536" y="440"/>
			<point x="588" y="372"/>
			<point x="588" y="250" type="curve" smooth="yes"/>
			<point x="588" y="134"/>
			<point x="539" y="60"/>
		</contour>
		<contour>
			<point x="448" y="-10" type="curve" smooth="yes"/>
			<point x="593" y="-10"/>
			<point x="674" y="80"/>
			<point x="674" y="248" type="curve" smooth="yes"/>
			<point x="674" y="412"/>
			<point x="597" y="510"/>
			<point x="446" y="510" type="curve" smooth="yes"/>
			<point x="301" y="510"/>
			<point x="220" y="420"/>
			<point x="220" y="252" type="curve" smooth="yes"/>
			<point x="220" y="88"/>
			<point x="297" y="-10"/>
		</contour>
		<contour>
			<point x="80" y="216" type="line"/>
			<point x="299" y="216" type="line"/>
			<point x="299" y="284" type="line"/>
			<point x="80" y="284" type="line"/>
		</contour>
	</outline>
</glyph>
<glyph name="uni044F" format="2">
	<advance width="462"/>
	<unicode hex="044F"/>
	<outline>
		<contour>
			<point x="237" y="217" type="line"/>
			<point x="150" y="217" type="line"/>
			<point x="24" y="0" type="line"/>
			<point x="112" y="0" type="line"/>
		</contour>
		<contour>
			<point x="203" y="432" type="curve" smooth="yes"/>
			<point x="338" y="432" type="line"/>
			<point x="338" y="256" type="line"/>
			<point x="203" y="256" type="line" smooth="yes"/>
			<point x="151" y="256"/>
			<point x="120" y="297"/>
			<point x="120" y="343" type="curve" smooth="yes"/>
			<point x="120" y="389"/>
			<point x="151" y="432"/>
		</contour>
		<contour>
			<point x="203" y="188" type="curve" smooth="yes"/>
			<point x="338" y="188" type="line"/>
			<point x="338" y="0" type="line"/>
			<point x="420" y="0" type="line"/>
			<point x="420" y="500" type="line"/>
			<point x="203" y="500" type="line" smooth="yes"/>
			<point x="98" y="500"/>
			<point x="34" y="430"/>
			<point x="34" y="343" type="curve" smooth="yes"/>
			<point x="34" y="255"/>
			<point x="98" y="188"/>
		</contour>
	</outline>
</glyph>
<glyph name="endash" format="2">
	<advance width="450"/>
	<unicode hex="2013"/>
	<outline>
		<contour>
			<point x="0" y="230" type="line"/>
			<point x="450" y="230" type="line"/>
			<point x="450" y="308" type="line"/>
			<point x="0" y="308" type="line"/>
		</contour>
	</outline>
</glyph>
<glyph name="emdash" format="2">
	<advance width="900"/>
	<unicode hex="2014"/>
	<outline>
		<contour>
			<point x="0" y="230" type="line"/>
			<point x="900" y="230" type="line"/>
			<point x="900" y="308" type="line"/>
			<point x="0" y="308" type="line"/>
		</contour>
	</outline>
</glyph>
<glyph name="quoteleft" format="2">
	<advance width="183"/>
	<unicode hex="2018"/>
	<outline>
		<contour>
			<point x="111" y="479" type="line"/>
			<point x="153" y="680" type="line"/>
			<point x="88" y="680" type="line"/>
			<point x="20" y="479" type="line"/>
		</contour>
	</outline>
</glyph>
<glyph name="dagger" format="2">
	<advance width="388"/>
	<unicode hex="2020"/>
	<outline>
		<contour>
			<point x="30" y="563" type="line"/>
			<point x="358" y="563" type="line"/>
			<point x="358" y="631" type="line"/>
			<point x="30" y="631" type="line"/>
		</contour>
		<contour>
			<point x="157" y="763" type="line"/>
			<point x="157" y="246" type="line"/>
			<point x="231" y="246" type="line"/>
			<point x="231" y="763" type="line"/>
		</contour>
	</outline>
</glyph>
<glyph name="daggerdbl" format="2">
	<advance width="388"/>
	<unicode hex="2021"/>
	<outline>
		<contour>
			<point x="30" y="583" type="line"/>
			<point x="358" y="583" type="line"/>
			<point x="358" y="651" type="line"/>
			<point x="30" y="651" type="line"/>
		</contour>
		<contour>
			<point x="157" y="763" type="line"/>
			<point x="157" y="246" type="line"/>
			<point x="231" y="246" type="line"/>
			<point x="231" y="763" type="line"/>
		</contour>
		<contour>
			<point x="30" y="358" type="line"/>
			<point x="358" y="358" type="line"/>
			<point x="358" y="426" type="line"/>
			<point x="30" y="426" type="line"/>
		</contour>
	</outline>
</glyph>
<glyph name="guilsinglleft" format="2">
	<advance width="337"/>
	<unicode hex="2039"/>
	<outline>
		<contour>
			<point x="30" y="250" type="line"/>
			<point x="202" y="55" type="line"/>
			<point x="287" y="55" type="line"/>
			<point x="116" y="250" type="line"/>
			<point x="287" y="445" type="line"/>
			<point x="202" y="445" type="line"/>
		</contour>
	</outline>
</glyph>
<glyph name="guilsinglright" format="2">
	<advance width="337"/>
	<unicode hex="203A"/>
	<outline>
		<contour>
			<point x="307" y="250" type="line"/>
			<point x="135" y="445" type="line"/>
			<point x="50" y="445" type="line"/>
			<point x="221" y="250" type="line"/>
			<point x="50" y="55" type="line"/>
			<point x="135" y="55" type="line"/>
		</contour>
	</outline>
</glyph>
<glyph name="Euro" format="2">
	<advance width="746"/>
	<unicode hex="20AC"/>
	<outline>
		<component base="C" xOffset="86"/>
		<contour>
			<point x="50" y="219" type="line"/>
			<point x="443" y="219" type="line"/>
			<point x="443" y="281" type="line"/>
			<point x="50" y="281" type="line"/>
		</contour>
		<contour>
			<point x="50" y="397" type="line"/>
			<point x="443" y="397" type="line"/>
			<point x="443" y="459" type="line"/>
			<point x="50" y="459" type="line"/>
		</contour>
	</outline>
</glyph>
<glyph name="trademark" format="2">
	<advance width="587"/>
	<unicode hex="2122"/>
	<outline>
		<contour>
			<point x="30" y="631" type="line"/>
			<point x="245" y="631" type="line"/>
			<point x="245" y="670" type="line"/>
			<point x="30" y="670" type="line"/>
		</contour>
		<contour>
			<point x="116" y="670" type="line"/>
			<point x="116" y="403" type="line"/>
			<point x="159" y="403" type="line"/>
			<point x="159" y="670" type="line"/>
		</contour>
		<contour>
			<point x="394" y="403" type="line"/>
			<point x="436" y="403" type="line"/>
			<point x="521" y="640" type="line"/>
			<point x="514" y="641" type="line"/>
			<point x="514" y="403" type="line"/>
			<point x="557" y="403" type="line"/>
			<point x="557" y="670" type="line"/>
			<point x="491" y="670" type="line"/>
			<point x="409" y="438" type="line"/>
			<point x="421" y="438" type="line"/>
			<point x="339" y="670" type="line"/>
			<point x="273" y="670" type="line"/>
			<point x="273" y="403" type="line"/>
			<point x="316" y="403" type="line"/>
			<point x="316" y="641" type="line"/>
			<point x="309" y="640" type="line"/>
		</contour>
	</outline>
</glyph>
<glyph name="arrowleft" format="2">
	<advance width="740"/>
	<unicode hex="2190"/>
	<outline>
		<contour>
			<point x="12" y="336" type="line"/>
			<point x="299" y="47" type="line"/>
			<point x="350" y="101" type="line"/>
			<point x="155" y="297" type="line"/>
			<point x="692" y="298" type="line"/>
			<point x="692" y="371" type="line"/>
			<point x="153" y="372" type="line"/>
			<point x="350" y="572" type="line"/>
			<point x="299" y="623" type="line"/>
		</contour>
	</outline>
</glyph>
<glyph name="arrowup" format="2">
	<advance width="740"/>
	<unicode hex="2191"/>
	<outline>
		<contour>
			<point x="365" y="680" type="line"/>
			<point x="77" y="393" type="line"/>
			<point x="130" y="341" type="line"/>
			<point x="327" y="538" type="line"/>
			<point x="327" y="0" type="line"/>
			<point x="401" y="0" type="line"/>
			<point x="401" y="540" type="line"/>
			<point x="600" y="341" type="line"/>
			<point x="652" y="393" type="line"/>
		</contour>
	</outline>
</glyph>
<glyph name="arrowright" format="2">
	<advance width="740"/>
	<unicode hex="2192"/>
	<outline>
		<contour>
			<point x="709" y="327" type="line"/>
			<point x="423" y="615" type="line"/>
			<point x="371" y="562" type="line"/>
			<point x="568" y="365" type="line"/>
			<point x="30" y="364" type="line"/>
			<point x="30" y="291" type="line"/>
			<point x="570" y="291" type="line"/>
			<point x="371" y="91" type="line"/>
			<point x="422" y="40" type="line"/>
		</contour>
	</outline>
</glyph>
<glyph name="arrowdown" format="2">
	<advance width="740"/>
	<unicode hex="2193"/>
	<outline>
		<contour>
			<point x="356" y="-17" type="line"/>
			<point x="645" y="269" type="line"/>
			<point x="591" y="321" type="line"/>
			<point x="395" y="125" type="line"/>
			<point x="393" y="662" type="line"/>
			<point x="321" y="662" type="line"/>
			<point x="320" y="123" type="line"/>
			<point x="120" y="321" type="line"/>
			<point x="69" y="270" type="line"/>
		</contour>
	</outline>
</glyph>
<glyph name="arrowboth" format="2">
	<advance width="740"/>
	<unicode hex="2194"/>
	<outline>
		<contour>
			<point x="31" y="349" type="line"/>
			<point x="248" y="130" type="line"/>
			<point x="299" y="184" type="line"/>
			<point x="174" y="310" type="line"/>
			<point x="568" y="311" type="line"/>
			<point x="441" y="181" type="line"/>
			<point x="492" y="130" type="line"/>
			<point x="709" y="347" type="line"/>
			<point x="492" y="566" type="line"/>
			<point x="441" y="512" type="line"/>
			<point x="566" y="386" type="line"/>
			<point x="172" y="385" type="line"/>
			<point x="299" y="515" type="line"/>
			<point x="248" y="566" type="line"/>
		</contour>
	</outline>
</glyph>
<glyph name="arrowupdn" format="2">
	<advance width="740"/>
	<unicode hex="2195"/>
	<outline>
		<contour>
			<point x="371" y="687" type="line"/>
			<point x="152" y="470" type="line"/>
			<point x="206" y="419" type="line"/>
			<point x="332" y="544" type="line"/>
			<point x="333" y="150" type="line"/>
			<point x="203" y="277" type="line"/>
			<point x="152" y="226" type="line"/>
			<point x="369" y="9" type="line"/>
			<point x="588" y="226" type="line"/>
			<point x="534" y="277" type="line"/>
			<point x="408" y="152" type="line"/>
			<point x="407" y="546" type="line"/>
			<point x="537" y="419" type="line"/>
			<point x="588" y="470" type="line"/>
		</contour>
	</outline>
</glyph>
<glyph name="uni2196" format="2">
	<advance width="740"/>
	<unicode hex="2196"/>
	<outline>
		<contour>
			<point x="112" y="576" type="line"/>
			<point x="111" y="169" type="line"/>
			<point x="185" y="171" type="line"/>
			<point x="186" y="447" type="line"/>
			<point x="566" y="68" type="line"/>
			<point x="618" y="120" type="line"/>
			<point x="237" y="502" type="line"/>
			<point x="518" y="504" type="line"/>
			<point x="518" y="576" type="line"/>
		</contour>
	</outline>
</glyph>
<glyph name="uni2197" format="2">
	<advance width="740"/>
	<unicode hex="2197"/>
	<outline>
		<contour>
			<point x="605" y="580" type="line"/>
			<point x="199" y="581" type="line"/>
			<point x="199" y="507" type="line"/>
			<point x="478" y="507" type="line"/>
			<point x="98" y="126" type="line"/>
			<point x="150" y="74" type="line"/>
			<point x="532" y="456" type="line"/>
			<point x="532" y="174" type="line"/>
			<point x="605" y="174" type="line"/>
		</contour>
	</outline>
</glyph>
<glyph name="uni2198" format="2">
	<advance width="740"/>
	<unicode hex="2198"/>
	<outline>
		<contour>
			<point x="609" y="87" type="line"/>
			<point x="611" y="493" type="line"/>
			<point x="536" y="492" type="line"/>
			<point x="536" y="214" type="line"/>
			<point x="155" y="593" type="line"/>
			<point x="104" y="542" type="line"/>
			<point x="485" y="160" type="line"/>
			<point x="203" y="159" type="line"/>
			<point x="203" y="87" type="line"/>
		</contour>
	</outline>
</glyph>
<glyph name="uni2199" format="2">
	<advance width="740"/>
	<unicode hex="2199"/>
	<outline>
		<contour>
			<point x="116" y="83" type="line"/>
			<point x="523" y="81" type="line"/>
			<point x="521" y="156" type="line"/>
			<point x="244" y="156" type="line"/>
			<point x="623" y="537" type="line"/>
			<point x="572" y="588" type="line"/>
			<point x="190" y="208" type="line"/>
			<point x="188" y="489" type="line"/>
			<point x="116" y="489" type="line"/>
		</contour>
	</outline>
</glyph>
<glyph name="partialdiff" format="2">
	<advance width="532"/>
	<unicode hex="2202"/>
	<outline>
		<contour>
			<point x="263" y="398" type="curve" smooth="yes"/>
			<point x="353" y="398"/>
			<point x="404" y="328"/>
			<point x="404" y="230" type="curve" smooth="yes"/>
			<point x="404" y="131"/>
			<point x="353" y="62"/>
			<point x="260" y="62" type="curve" smooth="yes"/>
			<point x="172" y="62"/>
			<point x="118" y="125"/>
			<point x="118" y="227" type="curve" smooth="yes"/>
			<point x="118" y="328"/>
			<point x="172" y="398"/>
		</contour>
		<contour>
			<point x="31" y="223" type="curve" smooth="yes"/>
			<point x="31" y="87"/>
			<point x="116" y="-11"/>
			<point x="258" y="-11" type="curve" smooth="yes"/>
			<point x="432" y="-11"/>
			<point x="496" y="136"/>
			<point x="496" y="302" type="curve" smooth="yes"/>
			<point x="496" y="564"/>
			<point x="337" y="669"/>
			<point x="238" y="700" type="curve"/>
			<point x="116" y="700" type="line"/>
			<point x="244" y="645"/>
			<point x="389" y="554"/>
			<point x="412" y="383" type="curve"/>
			<point x="387" y="438"/>
			<point x="345" y="471"/>
			<point x="263" y="471" type="curve" smooth="yes"/>
			<point x="110" y="471"/>
			<point x="31" y="355"/>
		</contour>
	</outline>
</glyph>
<glyph name="product" format="2">
	<advance width="671"/>
	<unicode hex="220F"/>
	<outline>
		<contour>
			<point x="55" y="680" type="line"/>
			<point x="55" y="-200" type="line"/>
			<point x="140" y="-200" type="line"/>
			<point x="140" y="680" type="line"/>
		</contour>
		<contour>
			<point x="531" y="680" type="line"/>
			<point x="531" y="-200" type="line"/>
			<point x="616" y="-200" type="line"/>
			<point x="616" y="680" type="line"/>
		</contour>
		<contour>
			<point x="96" y="608" type="line"/>
			<point x="583" y="608" type="line"/>
			<point x="583" y="680" type="line"/>
			<point x="96" y="680" type="line"/>
		</contour>
	</outline>
</glyph>
<glyph name="summation" format="2">
	<advance width="600"/>
	<unicode hex="2211"/>
	<outline>
		<contour>
			<point x="447" y="212" type="line"/>
			<point x="447" y="268" type="line"/>
			<point x="198" y="608" type="line"/>
			<point x="583" y="608" type="line"/>
			<point x="583" y="680" type="line"/>
			<point x="96" y="680" type="line"/>
			<point x="96" y="608" type="line"/>
			<point x="366" y="240" type="line"/>
			<point x="96" y="-128" type="line"/>
			<point x="96" y="-200" type="line"/>
			<point x="583" y="-200" type="line"/>
			<point x="583" y="-128" type="line"/>
			<point x="198" y="-128" type="line"/>
		</contour>
	</outline>
</glyph>
<glyph name="minus" format="2">
	<advance width="477"/>
	<unicode hex="2212"/>
	<outline>
		<contour>
			<point x="50" y="285" type="line"/>
			<point x="427" y="285" type="line"/>
			<point x="427" y="363" type="line"/>
			<point x="50" y="363" type="line"/>
		</contour>
	</outline>
</glyph>
<glyph name="radical" format="2">
	<advance width="648"/>
	<unicode hex="221A"/>
	<outline>
		<contour>
			<point x="160" y="-198" type="line"/>
			<point x="257" y="-198" type="line"/>
			<point x="443" y="615" type="line"/>
			<point x="624" y="615" type="line"/>
			<point x="624" y="684" type="line"/>
			<point x="384" y="684" type="line"/>
			<point x="201" y="-117" type="line"/>
			<point x="105" y="123" type="line"/>
			<point x="24" y="123" type="line"/>
		</contour>
	</outline>
</glyph>
<glyph name="infinity" format="2">
	<advance width="709"/>
	<unicode hex="221E"/>
	<outline>
		<contour>
			<point x="187" y="365" type="curve" smooth="yes"/>
			<point x="235" y="365"/>
			<point x="265" y="332"/>
			<point x="307" y="278" type="curve"/>
			<point x="265" y="224"/>
			<point x="235" y="191"/>
			<point x="187" y="191" type="curve" smooth="yes"/>
			<point x="142" y="191"/>
			<point x="99" y="229"/>
			<point x="99" y="279" type="curve" smooth="yes"/>
			<point x="99" y="328"/>
			<point x="141" y="365"/>
		</contour>
		<contour>
			<point x="31" y="278" type="curve" smooth="yes"/>
			<point x="31" y="196"/>
			<point x="107" y="126"/>
			<point x="190" y="126" type="curve" smooth="yes"/>
			<point x="257" y="126"/>
			<point x="305" y="172"/>
			<point x="354" y="233" type="curve"/>
			<point x="400" y="179"/>
			<point x="452" y="126"/>
			<point x="522" y="126" type="curve" smooth="yes"/>
			<point x="604" y="126"/>
			<point x="678" y="196"/>
			<point x="678" y="279" type="curve" smooth="yes"/>
			<point x="678" y="361"/>
			<point x="605" y="430"/>
			<point x="517" y="430" type="curve" smooth="yes"/>
			<point x="452" y="430"/>
			<point x="410" y="391"/>
			<point x="354" y="323" type="curve"/>
			<point x="309" y="377"/>
			<point x="257" y="430"/>
			<point x="188" y="430" type="curve" smooth="yes"/>
			<point x="109" y="430"/>
			<point x="31" y="361"/>
		</contour>
		<contour>
			<point x="401" y="278" type="curve"/>
			<point x="443" y="332"/>
			<point x="473" y="365"/>
			<point x="523" y="365" type="curve" smooth="yes"/>
			<point x="569" y="365"/>
			<point x="610" y="328"/>
			<point x="610" y="278" type="curve" smooth="yes"/>
			<point x="610" y="229"/>
			<point x="570" y="191"/>
			<point x="524" y="191" type="curve" smooth="yes"/>
			<point x="475" y="191"/>
			<point x="443" y="224"/>
		</contour>
	</outline>
</glyph>
<glyph name="integral" format="2">
	<advance width="344"/>
	<unicode hex="222B"/>
	<outline>
		<contour>
			<point x="331" y="634" type="curve"/>
			<point x="331" y="701" type="line"/>
			<point x="315" y="709"/>
			<point x="293" y="712"/>
			<point x="271" y="712" type="curve" smooth="yes"/>
			<point x="171" y="712"/>
			<point x="131" y="652"/>
			<point x="131" y="571" type="curve" smooth="yes"/>
			<point x="131" y="0" type="line"/>
			<point x="213" y="0" type="line"/>
			<point x="213" y="561" type="line" smooth="yes"/>
			<point x="213" y="609"/>
			<point x="232" y="642"/>
			<point x="285" y="642" type="curve" smooth="yes"/>
			<point x="301" y="642"/>
			<point x="316" y="639"/>
		</contour>
		<contour>
			<point x="13" y="-134" type="curve"/>
			<point x="13" y="-201" type="line"/>
			<point x="29" y="-209"/>
			<point x="51" y="-212"/>
			<point x="73" y="-212" type="curve" smooth="yes"/>
			<point x="173" y="-212"/>
			<point x="213" y="-152"/>
			<point x="213" y="-71" type="curve" smooth="yes"/>
			<point x="213" y="500" type="line"/>
			<point x="131" y="500" type="line"/>
			<point x="131" y="-61" type="line" smooth="yes"/>
			<point x="131" y="-109"/>
			<point x="112" y="-142"/>
			<point x="59" y="-142" type="curve" smooth="yes"/>
			<point x="43" y="-142"/>
			<point x="28" y="-139"/>
		</contour>
	</outline>
</glyph>
<glyph name="approxequal" format="2">
	<advance width="550"/>
	<unicode hex="2248"/>
	<outline>
		<contour>
			<point x="505" y="428" type="curve"/>
			<point x="436" y="428" type="line"/>
			<point x="436" y="403"/>
			<point x="418" y="351"/>
			<point x="366" y="351" type="curve" smooth="yes"/>
			<point x="299" y="351"/>
			<point x="292" y="453"/>
			<point x="184" y="453" type="curve" smooth="yes"/>
			<point x="83" y="453"/>
			<point x="44" y="373"/>
			<point x="44" y="309" type="curve"/>
			<point x="113" y="309" type="line"/>
			<point x="113" y="334"/>
			<point x="130" y="386"/>
			<point x="181" y="386" type="curve" smooth="yes"/>
			<point x="245" y="386"/>
			<point x="250" y="284"/>
			<point x="362" y="284" type="curve" smooth="yes"/>
			<point x="467" y="284"/>
			<point x="505" y="364"/>
		</contour>
		<contour>
			<point x="505" y="228" type="curve"/>
			<point x="436" y="228" type="line"/>
			<point x="436" y="203"/>
			<point x="418" y="151"/>
			<point x="366" y="151" type="curve" smooth="yes"/>
			<point x="299" y="151"/>
			<point x="292" y="253"/>
			<point x="184" y="253" type="curve" smooth="yes"/>
			<point x="83" y="253"/>
			<point x="44" y="173"/>
			<point x="44" y="109" type="curve"/>
			<point x="113" y="109" type="line"/>
			<point x="113" y="134"/>
			<point x="130" y="186"/>
			<point x="181" y="186" type="curve" smooth="yes"/>
			<point x="245" y="186"/>
			<point x="250" y="84"/>
			<point x="362" y="84" type="curve" smooth="yes"/>
			<point x="467" y="84"/>
			<point x="505" y="164"/>
		</contour>
	</outline>
</glyph>
<glyph name="notequal" format="2">
	<advance width="550"/>
	<unicode hex="2260"/>
	<outline>
		<component base="equal"/>
		<contour>
			<point x="372" y="507" type="line"/>
			<point x="102" y="23" type="line"/>
			<point x="178" y="23" type="line"/>
			<point x="448" y="507" type="line"/>
		</contour>
	</outline>
</glyph>
<glyph name="lessequal" format="2">
	<advance width="550"/>
	<unicode hex="2264"/>
	<outline>
		<contour>
			<point x="489" y="129" type="line"/>
			<point x="145" y="270" type="line"/>
			<point x="489" y="411" type="line"/>
			<point x="489" y="490" type="line"/>
			<point x="61" y="308" type="line"/>
			<point x="61" y="232" type="line"/>
			<point x="489" y="50" type="line"/>
		</contour>
		<contour>
			<point x="61" y="-66" type="line"/>
			<point x="489" y="-66" type="line"/>
			<point x="489" y="-1" type="line"/>
			<point x="61" y="-1" type="line"/>
		</contour>
	</outline>
</glyph>
<glyph name="greaterequal" format="2">
	<advance width="550"/>
	<unicode hex="2265"/>
	<outline>
		<contour>
			<point x="61" y="-66" type="line"/>
			<point x="489" y="-66" type="line"/>
			<point x="489" y="-1" type="line"/>
			<point x="61" y="-1" type="line"/>
		</contour>
		<contour>
			<point x="61" y="129" type="line"/>
			<point x="61" y="50" type="line"/>
			<point x="489" y="232" type="line"/>
			<point x="489" y="308" type="line"/>
			<point x="61" y="490" type="line"/>
			<point x="61" y="411" type="line"/>
			<point x="405" y="270" type="line"/>
		</contour>
	</outline>
</glyph>
<glyph name="lozenge" format="2">
	<advance width="440"/>
	<unicode hex="25CA"/>
	<outline>
		<contour>
			<point x="220" y="558" type="line"/>
			<point x="348" y="307" type="line"/>
			<point x="217" y="69" type="line"/>
			<point x="92" y="306" type="line"/>
		</contour>
		<contour>
			<point x="258" y="612" type="line"/>
			<point x="182" y="612" type="line"/>
			<point x="24" y="306" type="line"/>
			<point x="187" y="0" type="line"/>
			<point x="245" y="0" type="line"/>
			<point x="416" y="305" type="line"/>
		</contour>
	</outline>
</glyph>
